<svg height="512pt" viewBox="0 -21 512 512" width="512pt" xmlns="http://www.w3.org/2000/svg"><path d="m448 42.667969h-313.28125c9.28125 19.433593 14.613281 41.066406 14.613281 64 0 22.933593-5.332031 44.5625-14.613281 64h313.28125c17.152344 0 33.257812-6.636719 45.3125-18.6875 12.054688-12.054688 18.6875-28.160157 18.6875-45.3125 0-35.285157-28.714844-64-64-64zm0 0" fill="#607d8b"/><path d="m213.332031 106.667969c0 58.910156-47.753906 106.664062-106.664062 106.664062-58.910157 0-106.667969-47.753906-106.667969-106.664062 0-58.910157 47.757812-106.667969 106.667969-106.667969 58.910156 0 106.664062 47.757812 106.664062 106.667969zm0 0" fill="#00bcd4"/><path d="m64 426.667969h313.28125c-9.28125-19.4375-14.613281-41.066407-14.613281-64 0-22.933594 5.332031-44.566407 14.613281-64h-313.28125c-17.152344 0-33.257812 6.632812-45.3125 18.6875-12.054688 12.050781-18.6875 28.160156-18.6875 45.3125 0 35.285156 28.714844 64 64 64zm0 0" fill="#607d8b"/><path d="m512 362.667969c0 58.910156-47.757812 106.664062-106.667969 106.664062-58.910156 0-106.664062-47.753906-106.664062-106.664062 0-58.910157 47.753906-106.667969 106.664062-106.667969 58.910157 0 106.667969 47.757812 106.667969 106.667969zm0 0" fill="#00bcd4"/></svg>