<?xml version="1.0" encoding="UTF-8" standalone="no"?>
<!-- Created with Inkscape (http://www.inkscape.org/) -->

<svg
   xmlns:dc="http://purl.org/dc/elements/1.1/"
   xmlns:cc="http://creativecommons.org/ns#"
   xmlns:rdf="http://www.w3.org/1999/02/22-rdf-syntax-ns#"
   xmlns:svg="http://www.w3.org/2000/svg"
   xmlns="http://www.w3.org/2000/svg"
   xmlns:sodipodi="http://sodipodi.sourceforge.net/DTD/sodipodi-0.dtd"
   xmlns:inkscape="http://www.inkscape.org/namespaces/inkscape"
   id="svg2"
   version="1.1"
   inkscape:version="0.92.2 5c3e80d, 2017-08-06"
   xml:space="preserve"
   width="696.33502"
   height="696.33624"
   viewBox="0 0 696.33502 696.33624"
   sodipodi:docname="59f94b90269fd600013970e8_social-chain.svg"><metadata
     id="metadata8"><rdf:RDF><cc:Work
         rdf:about=""><dc:format>image/svg+xml</dc:format><dc:type
           rdf:resource="http://purl.org/dc/dcmitype/StillImage" /><dc:title></dc:title></cc:Work></rdf:RDF></metadata><defs
     id="defs6"><clipPath
       clipPathUnits="userSpaceOnUse"
       id="clipPath16"><path
         d="M 0,1000 H 1000 V 0 H 0 Z"
         id="path18"
         inkscape:connector-curvature="0" /></clipPath></defs><sodipodi:namedview
     pagecolor="#ffffff"
     bordercolor="#666666"
     borderopacity="1"
     objecttolerance="10"
     gridtolerance="10"
     guidetolerance="10"
     inkscape:pageopacity="0"
     inkscape:pageshadow="2"
     inkscape:window-width="640"
     inkscape:window-height="480"
     id="namedview4"
     showgrid="false"
     inkscape:zoom="0.1888"
     inkscape:cx="-289.33315"
     inkscape:cy="350.72513"
     inkscape:window-x="0"
     inkscape:window-y="0"
     inkscape:window-maximized="0"
     inkscape:current-layer="g10"
     fit-margin-top="0"
     fit-margin-left="0"
     fit-margin-right="0"
     fit-margin-bottom="0" /><g
     id="g10"
     inkscape:groupmode="layer"
     inkscape:label="social-chain-seeklogo.com"
     transform="matrix(1.25,0,0,-1.25,-252.25687,970.61112)"><g
       id="g12"><g
         id="g14"
         clip-path="url(#clipPath16)"><g
           id="g20"
           transform="translate(232.0424,485.8236)"><path
             d="m 0,0 c -4.649,0 -8.717,2.352 -12.204,7.057 l -9.63,-7.306 c 1.992,-3.764 4.898,-6.753 8.717,-8.966 3.819,-2.214 8.192,-3.322 13.117,-3.322 5.812,0 10.613,1.537 14.404,4.608 3.791,3.072 5.687,7.237 5.687,12.495 0,3.874 -1.148,7.099 -3.445,9.672 -2.297,2.574 -5.826,4.856 -10.585,6.849 l -6.31,2.657 c -1.771,0.719 -3.002,1.397 -3.694,2.033 -0.692,0.637 -1.038,1.454 -1.038,2.45 0,2.325 1.632,3.487 4.898,3.487 1.937,0 3.598,-0.471 4.981,-1.412 1.384,-0.941 2.74,-2.407 4.069,-4.4 l 9.546,7.306 C 14.805,40.569 8.551,44.25 -0.249,44.25 c -5.645,0 -10.253,-1.481 -13.823,-4.442 -3.57,-2.961 -5.354,-6.877 -5.354,-11.748 0,-6.973 4.621,-12.48 13.864,-16.52 L 0.083,9.049 C 2.242,8.108 3.709,7.333 4.484,6.725 5.258,6.115 5.646,5.203 5.646,3.985 5.646,1.328 3.764,0 0,0"
             style="fill:#ff0066;fill-opacity:1;fill-rule:nonzero;stroke:none"
             id="path22"
             inkscape:connector-curvature="0" /></g><g
           id="g24"
           transform="translate(276.7076,512.7218)"><path
             d="m 0,0 c 2.767,2.823 6.365,4.234 10.793,4.234 4.316,0 7.887,-1.411 10.709,-4.234 2.823,-2.823 4.234,-6.503 4.234,-11.041 0,-4.594 -1.411,-8.289 -4.234,-11.084 -2.822,-2.795 -6.393,-4.192 -10.709,-4.192 -4.428,0 -8.026,1.397 -10.793,4.192 -2.767,2.795 -4.151,6.49 -4.151,11.084 0,4.538 1.384,8.218 4.151,11.041 m 10.71,-39.435 c 8.246,0 15.248,2.727 21.004,8.178 5.755,5.451 8.634,12.19 8.634,20.216 0,8.025 -2.879,14.763 -8.634,20.215 -5.756,5.452 -12.758,8.177 -21.004,8.177 -8.247,0 -15.221,-2.725 -20.922,-8.177 -5.7,-5.452 -8.551,-12.19 -8.551,-20.215 0,-8.026 2.851,-14.765 8.551,-20.216 5.701,-5.451 12.675,-8.178 20.922,-8.178"
             style="fill:#ff0066;fill-opacity:1;fill-rule:nonzero;stroke:none"
             id="path26"
             inkscape:connector-curvature="0" /></g><g
           id="g28"
           transform="translate(333.9811,481.4232)"><path
             d="m 0,0 c 5.701,-5.424 12.702,-8.136 21.004,-8.136 5.535,0 10.489,1.287 14.861,3.86 4.373,2.574 7.803,6.185 10.295,10.835 L 35.284,13.947 C 31.741,7.97 26.982,4.981 21.004,4.981 c -4.428,0 -8.025,1.384 -10.792,4.151 -2.768,2.767 -4.151,6.448 -4.151,11.042 0,4.594 1.397,8.302 4.192,11.125 2.795,2.823 6.379,4.234 10.751,4.234 5.978,0 10.737,-2.989 14.28,-8.967 L 46.16,33.955 C 43.668,38.604 40.238,42.216 35.865,44.789 31.493,47.363 26.566,48.65 21.087,48.65 12.785,48.65 5.77,45.924 0.042,40.473 -5.687,35.021 -8.551,28.283 -8.551,20.257 -8.551,12.177 -5.7,5.424 0,0"
             style="fill:#ff0066;fill-opacity:1;fill-rule:nonzero;stroke:none"
             id="path30"
             inkscape:connector-curvature="0" /></g><path
           d="m 403.957,529.077 h -14.279 v -54.793 h 14.279 z"
           style="fill:#ff0066;fill-opacity:1;fill-rule:nonzero;stroke:none"
           id="path32"
           inkscape:connector-curvature="0" /><g
           id="g34"
           transform="translate(438.3136,503.0087)"><path
             d="M 0,0 4.732,-12.702 H -4.815 Z M -9.879,-24.159 H 9.796 l 1.993,-4.566 H 27.147 L 2.241,27.064 h -4.566 l -24.906,-55.789 h 15.359 z"
             style="fill:#ff0066;fill-opacity:1;fill-rule:nonzero;stroke:none"
             id="path36"
             inkscape:connector-curvature="0" /></g><g
           id="g38"
           transform="translate(508.7218,487.1522)"><path
             d="M 0,0 H -22.665 V 41.925 H -36.944 V -12.868 H 0 Z"
             style="fill:#ff0066;fill-opacity:1;fill-rule:nonzero;stroke:none"
             id="path40"
             inkscape:connector-curvature="0" /></g><g
           id="g42"
           transform="translate(221.205,455.0795)"><path
             d="m 0,0 c -5.729,-5.452 -8.593,-12.19 -8.593,-20.215 0,-8.081 2.851,-14.834 8.551,-20.258 5.701,-5.424 12.702,-8.136 21.005,-8.136 5.534,0 10.488,1.287 14.86,3.861 4.373,2.573 7.804,6.185 10.295,10.834 l -10.876,7.389 c -3.543,-5.978 -8.303,-8.966 -14.279,-8.966 -4.429,0 -8.026,1.384 -10.793,4.15 -2.768,2.768 -4.151,6.449 -4.151,11.042 0,4.594 1.397,8.302 4.192,11.125 2.795,2.823 6.379,4.234 10.752,4.234 5.976,0 10.736,-2.989 14.279,-8.966 l 10.876,7.389 C 43.627,-1.868 40.196,1.743 35.823,4.317 31.451,6.89 26.525,8.177 21.045,8.177 12.743,8.177 5.728,5.452 0,0"
             style="fill:#ff0066;fill-opacity:1;fill-rule:nonzero;stroke:none"
             id="path44"
             inkscape:connector-curvature="0" /></g><g
           id="g46"
           transform="translate(324.0271,407.4672)"><path
             d="M 0,0 V 54.793 H -14.28 V 34.786 H -34.288 V 54.793 H -48.567 V 0 h 14.279 V 21.917 H -14.28 V 0 Z"
             style="fill:#ff0066;fill-opacity:1;fill-rule:nonzero;stroke:none"
             id="path48"
             inkscape:connector-curvature="0" /></g><g
           id="g50"
           transform="translate(352.0895,423.4901)"><path
             d="M 0,0 4.815,12.702 9.548,0 Z m 2.49,39.767 -24.905,-55.79 h 15.359 l 1.992,4.566 h 19.676 l 1.992,-4.566 H 31.963 L 7.056,39.767 Z"
             style="fill:#ff0066;fill-opacity:1;fill-rule:nonzero;stroke:none"
             id="path52"
             inkscape:connector-curvature="0" /></g><path
           d="m 389.699,407.467 h 14.279 v 54.793 h -14.279 z"
           style="fill:#ff0066;fill-opacity:1;fill-rule:nonzero;stroke:none"
           id="path54"
           inkscape:connector-curvature="0" /><g
           id="g56"
           transform="translate(449.2247,434.8641)"><path
             d="m 0,0 -29.721,28.393 h -4.566 v -55.79 h 14.279 V 0.415 L 9.714,-28.394 h 4.566 v 55.79 H 0 Z"
             style="fill:#ff0066;fill-opacity:1;fill-rule:nonzero;stroke:none"
             id="path58"
             inkscape:connector-curvature="0" /></g><g
           id="g60"
           transform="translate(648.7695,776.4889)"><path
             d="m 0,0 v -446.964 h -446.964 l 110.105,-110.105 h 446.963 v 446.965 z"
             style="fill:#ff0066;fill-opacity:1;fill-rule:nonzero;stroke:none"
             id="path62"
             inkscape:connector-curvature="0" /></g><path
           d="m 212.741,373.663 h 55.052 v 10.936 h -55.052 z"
           style="fill:#ff0066;fill-opacity:1;fill-rule:nonzero;stroke:none"
           id="path64"
           inkscape:connector-curvature="0" /></g></g></g></svg>