<?xml version="1.0" encoding="UTF-8" standalone="no"?>
<!-- Created with Inkscape (http://www.inkscape.org/) -->

<svg
   xmlns:dc="http://purl.org/dc/elements/1.1/"
   xmlns:cc="http://creativecommons.org/ns#"
   xmlns:rdf="http://www.w3.org/1999/02/22-rdf-syntax-ns#"
   xmlns:svg="http://www.w3.org/2000/svg"
   xmlns="http://www.w3.org/2000/svg"
   xmlns:sodipodi="http://sodipodi.sourceforge.net/DTD/sodipodi-0.dtd"
   xmlns:inkscape="http://www.inkscape.org/namespaces/inkscape"
   id="svg2"
   version="1.1"
   inkscape:version="0.92.2 5c3e80d, 2017-08-06"
   xml:space="preserve"
   width="322.44568"
   height="334.43472"
   viewBox="0 0 322.44568 334.43472"
   sodipodi:docname="59f94b9878cc2d0001fda9d0_Panda.svg"><metadata
     id="metadata8"><rdf:RDF><cc:Work
         rdf:about=""><dc:format>image/svg+xml</dc:format><dc:type
           rdf:resource="http://purl.org/dc/dcmitype/StillImage" /><dc:title></dc:title></cc:Work></rdf:RDF></metadata><defs
     id="defs6"><clipPath
       clipPathUnits="userSpaceOnUse"
       id="clipPath16"><path
         d="M 0,380 H 600 V 0 H 0 Z"
         id="path18"
         inkscape:connector-curvature="0" /></clipPath><clipPath
       clipPathUnits="userSpaceOnUse"
       id="clipPath100"><path
         d="M 0,380 H 600 V 0 H 0 Z"
         id="path102"
         inkscape:connector-curvature="0" /></clipPath></defs><sodipodi:namedview
     pagecolor="#ffffff"
     bordercolor="#666666"
     borderopacity="1"
     objecttolerance="10"
     gridtolerance="10"
     guidetolerance="10"
     inkscape:pageopacity="0"
     inkscape:pageshadow="2"
     inkscape:window-width="674"
     inkscape:window-height="480"
     id="namedview4"
     showgrid="false"
     inkscape:zoom="0.49684211"
     inkscape:cx="-75.716711"
     inkscape:cy="108.84633"
     inkscape:window-x="0"
     inkscape:window-y="0"
     inkscape:window-maximized="0"
     inkscape:current-layer="g10"
     fit-margin-top="0"
     fit-margin-left="0"
     fit-margin-right="0"
     fit-margin-bottom="0" /><g
     id="g10"
     inkscape:groupmode="layer"
     inkscape:label="cute-panda-animal-protection-seeklogo.com"
     transform="matrix(1.25,0,0,-1.25,-199.12773,463.08841)"><g
       id="g12"><g
         id="g14"
         clip-path="url(#clipPath16)"><g
           id="g20"
           transform="translate(366.524,182.6679)"><path
             d="m 0,0 c 0,0 17.907,-14.465 31.854,-14.465 9.838,0 20.792,12.055 18.597,24.971 C 48.515,21.894 38.227,38.573 17.563,52.348 7.405,59.12 -10.776,68.519 -26.861,72.322 -43.497,76.255 -58.2,74.435 -78.52,71.805 c -31.01,-4.014 -47.113,-15.986 -74.385,-9.815 -17.693,4.004 -33.06,29.445 -48.557,8.782 -15.497,-20.663 2.583,-48.04 26.861,-59.922 24.279,-11.883 29.026,-12.237 35.902,-13.174 C -127.018,4.322 -71.115,54.931 0,0"
             style="fill:#000000;fill-opacity:1;fill-rule:nonzero;stroke:none"
             id="path22"
             inkscape:connector-curvature="0" /></g><g
           id="g24"
           transform="translate(309.6607,344.1938)"><path
             d="M 0,0 C 0,0 13.313,9.835 31.205,8.5 49.441,7.14 58.281,-12.58 55.56,-27.54 52.997,-41.641 33.907,-51.798 31.814,-51.569 29.722,-51.34 4.08,0.34 0,0"
             style="fill:#000000;fill-opacity:1;fill-rule:nonzero;stroke:none"
             id="path26"
             inkscape:connector-curvature="0" /></g><g
           id="g28"
           transform="translate(298.2598,347.0376)"><path
             d="M 0,0 C 0,0 -7.288,19.097 -24.028,22.539 -44.316,26.71 -57.036,15.42 -58.984,6.613 -60.933,-2.194 -58.662,-13.45 -57.549,-16.258 -56.436,-19.065 0,0 0,0"
             style="fill:#000000;fill-opacity:1;fill-rule:nonzero;stroke:none"
             id="path30"
             inkscape:connector-curvature="0" /></g><g
           id="g32"
           transform="translate(224.7105,260.3627)"><path
             d="m 0,0 c 3.612,-12.809 20.333,-33.667 61,-31.333 40.668,2.333 65.001,16.666 68.668,45.333 3.667,28.667 -8,48.667 -27,69.333 C 83.668,104 47.418,99.509 34.666,92.667 21,85.333 16.868,72.903 14.264,61.35 11.598,49.516 6.001,40.843 3.5,35.333 -1.443,24.442 -3.583,12.708 0,0"
             style="fill:#ffffff;fill-opacity:1;fill-rule:nonzero;stroke:none"
             id="path34"
             inkscape:connector-curvature="0" /></g><g
           id="g36"
           transform="translate(224.7105,260.3627)"><path
             d="m 0,0 c 3.612,-12.809 20.333,-33.667 61,-31.333 40.668,2.333 65.001,16.666 68.668,45.333 3.667,28.667 -8,48.667 -27,69.333 C 83.668,104 47.418,99.509 34.666,92.667 21,85.333 16.868,72.903 14.264,61.35 11.598,49.516 6.001,40.843 3.5,35.333 -1.443,24.442 -3.583,12.708 0,0 Z"
             style="fill:none;stroke:#000000;stroke-width:5.66900015;stroke-linecap:butt;stroke-linejoin:miter;stroke-miterlimit:10;stroke-dasharray:none;stroke-opacity:1"
             id="path38"
             inkscape:connector-curvature="0" /></g><g
           id="g40"
           transform="translate(231.7935,286.6962)"><path
             d="m 0,0 c 6.167,1.583 11.753,8.537 13.75,14.25 1.893,5.417 4.334,16.833 -2.666,23.917 -1.559,1.576 -2.719,1.704 -2.719,1.704 0,0 -6.344,-21.996 -9.906,-27.746 C -5.104,6.375 -6.479,0.25 -6.479,0.25 v -1.312 c 0,0 1.844,-0.128 6.479,1.062"
             style="fill:#000000;fill-opacity:1;fill-rule:nonzero;stroke:none"
             id="path42"
             inkscape:connector-curvature="0" /></g><g
           id="g44"
           transform="translate(236.8233,312.8759)"><path
             d="M 0,0 C 0,0 2.783,-1.414 2.07,-6.297 1.545,-9.884 -0.388,-12.285 -5.332,-12.23 -4.153,-9.948 -0.971,-2.6 0,0"
             style="fill:#ffffff;fill-opacity:1;fill-rule:nonzero;stroke:none"
             id="path46"
             inkscape:connector-curvature="0" /></g><g
           id="g48"
           transform="translate(282.377,321.3627)"><path
             d="m 0,0 c -7.465,-2.657 -15.667,-14.254 -10.333,-29 4.267,-11.8 15.666,-26 30.668,-20.333 15,5.666 17.333,26.492 13,35.079 C 29.001,-5.667 19.668,7 0,0"
             style="fill:#000000;fill-opacity:1;fill-rule:nonzero;stroke:none"
             id="path50"
             inkscape:connector-curvature="0" /></g><g
           id="g52"
           transform="translate(284.1621,303.8022)"><path
             d="m 0,0 c -1.688,-4.547 0.221,-9.001 5.944,-10.04 5.724,-1.04 7.574,4.992 6.515,8.565 C 10.959,3.587 3,8.08 0,0"
             style="fill:#ffffff;fill-opacity:1;fill-rule:nonzero;stroke:none"
             id="path54"
             inkscape:connector-curvature="0" /></g><g
           id="g56"
           transform="translate(286.1304,302.4023)"><path
             d="m 0,0 c -0.863,-2.325 0.113,-4.603 3.039,-5.134 2.927,-0.532 3.874,2.552 3.332,4.38 C 5.604,1.834 1.534,4.132 0,0"
             style="fill:#000000;fill-opacity:1;fill-rule:nonzero;stroke:none"
             id="path58"
             inkscape:connector-curvature="0" /></g><g
           id="g60"
           transform="translate(236.3135,308.268)"><path
             d="M 0,0 C -0.238,0.589 -0.858,0.984 -1.122,1.325 L -3.676,-4.09 C -0.36,-5.338 0.876,-2.169 0,0"
             style="fill:#000000;fill-opacity:1;fill-rule:nonzero;stroke:none"
             id="path62"
             inkscape:connector-curvature="0" /></g><g
           id="g64"
           transform="translate(239.5557,287.1235)"><path
             d="m 0,0 c -0.039,-2.197 3.485,-9.192 8.093,-12.003 1.833,-1.119 3.642,-1.858 5.382,-2.263 2.632,-0.614 5.103,-0.463 7.252,0.297 3.569,1.261 7.574,4.775 9.898,9.648 0.928,1.948 0.756,5.83 -4.284,6.643 C 22.61,2.924 0.091,5.092 0,0"
             style="fill:#000000;fill-opacity:1;fill-rule:nonzero;stroke:none"
             id="path66"
             inkscape:connector-curvature="0" /></g><g
           id="g68"
           transform="translate(263.6582,261.5385)"><path
             d="m 0,0 c -4.531,1.095 -6.344,12.158 -3.844,13.033 3.208,1.123 -8.312,-0.438 -8.312,-0.438 0,0 5.437,-2.875 5.312,-10.312 -0.042,-2.538 -3.727,-3.361 -1.727,-3.361 2,0 11.662,0.331 8.571,1.078"
             style="fill:#000000;fill-opacity:1;fill-rule:nonzero;stroke:none"
             id="path70"
             inkscape:connector-curvature="0" /></g><g
           id="g72"
           transform="translate(247.6719,261.0712)"><path
             d="m 0,0 c -0.596,-1.381 1.504,-5.262 5.83,-5.699 4.326,-0.438 6.531,-0.063 9.75,0 3.219,0.062 14.433,2.202 17.375,6.824 C 35.898,5.75 31.044,3.75 29.349,3.313 27.653,2.875 16.88,-0.125 9.142,-0.062 1.403,0 0.351,0.812 0,0"
             style="fill:#000000;fill-opacity:1;fill-rule:nonzero;stroke:none"
             id="path74"
             inkscape:connector-curvature="0" /></g><g
           id="g76"
           transform="translate(233.4136,190.8295)"><path
             d="m 0,0 c -1.602,-0.975 -6.046,-3.294 -7.784,-6.708 -0.732,-1.963 -1.628,-6.141 -0.81,-16.799 0.662,-8.645 10.347,-54.463 61.336,-58.166 36.754,-2.672 53.265,8.554 62.414,18.101 11.091,11.573 20.298,45.262 12.011,62.077 C 124.023,4.887 110.806,9.977 103.148,12.122 87.825,16.415 49.798,30.358 0,0"
             style="fill:#ffffff;fill-opacity:1;fill-rule:nonzero;stroke:none"
             id="path78"
             inkscape:connector-curvature="0" /></g><g
           id="g80"
           transform="translate(233.4136,190.8295)"><path
             d="m 0,0 c -1.602,-0.975 -6.046,-3.294 -7.784,-6.708 -0.732,-1.963 -1.628,-6.141 -0.81,-16.799 0.662,-8.645 10.347,-54.463 61.336,-58.166 36.754,-2.672 53.265,8.554 62.414,18.101 11.091,11.573 20.298,45.262 12.011,62.077 C 124.023,4.887 110.806,9.977 103.148,12.122 87.825,16.415 49.798,30.358 0,0 Z"
             style="fill:none;stroke:#000000;stroke-width:5.66900015;stroke-linecap:butt;stroke-linejoin:miter;stroke-miterlimit:10;stroke-dasharray:none;stroke-opacity:1"
             id="path82"
             inkscape:connector-curvature="0" /></g><g
           id="g84"
           transform="translate(343.2368,170.1113)"><path
             d="M 0,0 C 10.952,-1.469 24.837,-13.773 20.585,-33.23 17.176,-48.799 4.366,-69.053 -17.706,-65.695 -39.778,-62.34 -47.483,-37.246 -43.297,-25.621 -39.111,-13.99 -28.846,3.871 0,0"
             style="fill:#000000;fill-opacity:1;fill-rule:nonzero;stroke:none"
             id="path86"
             inkscape:connector-curvature="0" /></g><g
           id="g88"
           transform="translate(249.8701,169.1347)"><path
             d="m 0,0 c -10.968,-1.344 -24.993,-13.492 -20.961,-32.994 3.23,-15.606 15.807,-36.004 37.916,-32.902 22.109,3.105 30.1,28.109 26.047,39.783 C 38.949,-14.438 28.887,3.539 0,0"
             style="fill:#000000;fill-opacity:1;fill-rule:nonzero;stroke:none"
             id="path90"
             inkscape:connector-curvature="0" /></g><g
           id="g92"
           transform="translate(294.147,184.6894)"><path
             d="M 0,0 C -0.695,-2.543 0.887,-4.676 4.605,-4.639 8.323,-4.606 8.996,-1.27 8.029,0.486 6.656,2.977 1.231,4.519 0,0"
             style="fill:#000000;fill-opacity:1;fill-rule:nonzero;stroke:none"
             id="path94"
             inkscape:connector-curvature="0" /></g></g></g></g></svg>