<?xml version="1.0" encoding="UTF-8" standalone="no"?>
<!-- Created with Inkscape (http://www.inkscape.org/) -->

<svg
   xmlns:dc="http://purl.org/dc/elements/1.1/"
   xmlns:cc="http://creativecommons.org/ns#"
   xmlns:rdf="http://www.w3.org/1999/02/22-rdf-syntax-ns#"
   xmlns:svg="http://www.w3.org/2000/svg"
   xmlns="http://www.w3.org/2000/svg"
   xmlns:sodipodi="http://sodipodi.sourceforge.net/DTD/sodipodi-0.dtd"
   xmlns:inkscape="http://www.inkscape.org/namespaces/inkscape"
   version="1.1"
   id="svg2"
   xml:space="preserve"
   width="258.89227"
   height="110.05786"
   viewBox="0 0 258.89228 110.05786"
   sodipodi:docname="babyshop.svg"
   inkscape:version="0.92.2 5c3e80d, 2017-08-06"><metadata
     id="metadata8"><rdf:RDF><cc:Work
         rdf:about=""><dc:format>image/svg+xml</dc:format><dc:type
           rdf:resource="http://purl.org/dc/dcmitype/StillImage" /><dc:title></dc:title></cc:Work></rdf:RDF></metadata><defs
     id="defs6"><clipPath
       clipPathUnits="userSpaceOnUse"
       id="clipPath30"><path
         d="M 0,500 H 500 V 0 H 0 Z"
         id="path28"
         inkscape:connector-curvature="0" /></clipPath><clipPath
       clipPathUnits="userSpaceOnUse"
       id="clipPath74"><path
         d="m 173.883,291.57 h 18.431 v -19.08 h -18.431 z"
         id="path72"
         inkscape:connector-curvature="0" /></clipPath><clipPath
       clipPathUnits="userSpaceOnUse"
       id="clipPath90"><path
         d="m 207.858,303.473 h 19.317 v -19.28 h -19.317 z"
         id="path88"
         inkscape:connector-curvature="0" /></clipPath><clipPath
       clipPathUnits="userSpaceOnUse"
       id="clipPath170"><path
         d="m 270.78,300.288 h 18.431 V 281.207 H 270.78 Z"
         id="path168"
         inkscape:connector-curvature="0" /></clipPath><clipPath
       clipPathUnits="userSpaceOnUse"
       id="clipPath186"><path
         d="m 305.416,290.499 h 19.25 v -19.07 h -19.25 z"
         id="path184"
         inkscape:connector-curvature="0" /></clipPath></defs><sodipodi:namedview
     pagecolor="#ffffff"
     bordercolor="#666666"
     borderopacity="1"
     objecttolerance="10"
     gridtolerance="10"
     guidetolerance="10"
     inkscape:pageopacity="0"
     inkscape:pageshadow="2"
     inkscape:window-width="1644"
     inkscape:window-height="972"
     id="namedview4"
     showgrid="false"
     fit-margin-top="0"
     fit-margin-left="0"
     fit-margin-right="0"
     fit-margin-bottom="0"
     inkscape:zoom="0.70799998"
     inkscape:cx="-300.97187"
     inkscape:cy="16.125412"
     inkscape:window-x="0"
     inkscape:window-y="0"
     inkscape:window-maximized="0"
     inkscape:current-layer="g235" /><g
     id="g10"
     inkscape:groupmode="layer"
     inkscape:label="516068-PIG118-804"
     transform="matrix(1.3333333,0,0,-1.3333333,-200.90014,461.11825)"><g
       id="g235"><g
         id="g24"><g
           clip-path="url(#clipPath30)"
           id="g26"><g
             transform="translate(233.6199,320.3631)"
             id="g32"><path
               inkscape:connector-curvature="0"
               id="path34"
               style="fill:#ffc2de;fill-opacity:1;fill-rule:nonzero;stroke:none"
               d="m 0,0 c 7.971,-21.396 -4.118,-44.882 -25.515,-52.853 -21.396,-7.97 -45.373,2.081 -53.343,23.477 -7.97,21.397 3.827,44.042 25.223,52.013 C -32.239,30.607 -7.97,21.396 0,0" /></g><g
             transform="translate(160.2224,268.2576)"
             id="g36"><path
               inkscape:connector-curvature="0"
               id="path38"
               style="fill:#ffc2de;fill-opacity:1;fill-rule:nonzero;stroke:none"
               d="m 0,0 c 0.178,-0.013 0.354,-0.025 0.532,-0.038 2.334,-0.167 5.136,1.184 6.746,2.794 1.655,1.655 2.901,4.37 2.794,6.746 C 9.962,11.97 9.151,14.529 7.278,16.249 5.338,18.03 3.17,18.854 0.532,19.043 0.354,19.056 0.178,19.068 0,19.081 -2.335,19.248 -5.136,17.897 -6.746,16.287 -8.401,14.632 -9.647,11.917 -9.541,9.541 -9.43,7.073 -8.619,4.514 -6.746,2.794 -4.806,1.014 -2.638,0.189 0,0" /></g><g
             transform="translate(237.6863,291.2971)"
             id="g40"><path
               inkscape:connector-curvature="0"
               id="path42"
               style="fill:#ffc2de;fill-opacity:1;fill-rule:nonzero;stroke:none"
               d="M 0,0 C 12.278,0 12.299,19.081 0,19.081 -12.277,19.081 -12.298,0 0,0" /></g><g
             transform="translate(178.573,323.054)"
             id="g44"><path
               inkscape:connector-curvature="0"
               id="path46"
               style="fill:#2a4e7a;fill-opacity:1;fill-rule:nonzero;stroke:none"
               d="m 0,0 c -2.08,3.215 2.567,7.723 5.022,9.298 2.665,1.712 5.742,1.755 8.304,-0.245 2.458,-1.92 3.272,-5.057 2.495,-8.032 C 15.47,-0.325 14.79,-1.669 13.835,-2.698 11.609,-5.096 6.712,-3.906 8.018,-0.007 8.507,1.452 6.204,2.078 5.718,0.627 4.313,-3.567 8.813,-8.049 13.016,-6.226 17.901,-4.105 19.72,2.884 17.592,7.46 15.496,11.968 9.955,14.297 5.365,12.211 1.144,10.294 -5.274,3.764 -2.06,-1.204 -1.229,-2.488 0.837,-1.293 0,0" /></g><g
             transform="translate(181.3904,288.9265)"
             id="g48"><path
               inkscape:connector-curvature="0"
               id="path50"
               style="fill:#2a4e7a;fill-opacity:1;fill-rule:nonzero;stroke:none"
               d="M 0,0 C -1.222,0.619 -0.139,2.15 0.528,2.748 1.16,3.315 1.983,3.674 2.805,3.85 4.403,4.193 5.912,3.775 7.189,2.794 8.406,1.86 9.595,3.931 8.394,4.854 5.887,6.779 2.275,6.824 -0.342,5.07 -2.644,3.528 -4.404,-0.437 -1.203,-2.059 0.163,-2.751 1.371,-0.694 0,0" /></g><g
             transform="translate(206.5408,297.866)"
             id="g52"><path
               inkscape:connector-curvature="0"
               id="path54"
               style="fill:#2a4e7a;fill-opacity:1;fill-rule:nonzero;stroke:none"
               d="M 0,0 C 0.268,1.663 1.301,3.255 3.072,3.573 4.921,3.904 6.644,2.409 6.683,0.562 6.715,-0.971 9.1,-0.977 9.067,0.562 9.006,3.476 6.622,5.987 3.646,6.017 0.618,6.047 -1.837,3.51 -2.3,0.634 -2.542,-0.868 -0.244,-1.514 0,0" /></g><g
             transform="translate(159.4275,276.7254)"
             id="g56"><path
               inkscape:connector-curvature="0"
               id="path58"
               style="fill:#2a4e7a;fill-opacity:1;fill-rule:nonzero;stroke:none"
               d="M 0,0 C -0.508,0.929 0.105,2.16 1.218,2.127 1.782,2.109 2.317,1.786 2.74,1.439 3.096,1.146 3.642,0.115 3.959,0.012 2.495,0.486 1.868,-1.816 3.324,-2.288 4.981,-2.824 6.378,-1.304 6.155,0.311 5.915,2.056 4.265,3.592 2.688,4.202 -0.693,5.51 -3.798,1.979 -2.06,-1.204 -1.324,-2.551 0.736,-1.349 0,0" /></g><g
             transform="translate(239.5271,304.9075)"
             id="g60"><path
               inkscape:connector-curvature="0"
               id="path62"
               style="fill:#2a4e7a;fill-opacity:1;fill-rule:nonzero;stroke:none"
               d="m 0,0 c -2.663,0.863 -6.075,-0.345 -6.773,-3.276 -0.65,-2.731 1.651,-5.293 4.454,-4.598 1.488,0.37 0.858,2.671 -0.635,2.3 -1.382,-0.343 -1.86,1.281 -1.281,2.271 0.719,1.229 2.368,1.403 3.6,1.003 C 0.829,-2.774 1.456,-0.472 0,0" /></g><g
             transform="translate(193.2634,279.8904)"
             id="g64"><path
               inkscape:connector-curvature="0"
               id="path66"
               style="fill:#2a4e7a;fill-opacity:1;fill-rule:nonzero;stroke:none"
               d="m 0,0 c 3.349,-2.602 7.086,-4.175 11.307,-2.491 3.804,1.518 6.005,5.115 6.321,9.095 0.121,1.531 -2.265,1.522 -2.385,0 C 14.987,3.377 13.02,0.48 9.841,-0.486 6.704,-1.438 4.126,-0.209 1.687,1.687 0.489,2.617 -1.211,0.941 0,0" /></g><g
             id="g68"><g
               id="g70" /><g
               id="g82"><g
                 id="g80"
                 clip-path="url(#clipPath74)"><g
                   id="g78"
                   transform="translate(183.0984,272.4895)"><path
                     inkscape:connector-curvature="0"
                     id="path76"
                     style="fill:#ffc2de;fill-opacity:1;fill-rule:nonzero;stroke:none"
                     d="M 0,0 C 12.278,0 12.298,19.081 0,19.081 -12.277,19.081 -12.298,0 0,0" /></g></g></g></g><g
             id="g84"><g
               id="g86" /><g
               id="g98"><g
                 id="g96"
                 clip-path="url(#clipPath90)"><g
                   id="g94"
                   transform="translate(219.9412,284.5916)"><path
                     inkscape:connector-curvature="0"
                     id="path92"
                     style="fill:#ffc2de;fill-opacity:1;fill-rule:nonzero;stroke:none"
                     d="m 0,0 c 0.074,0.028 0.148,0.055 0.224,0.083 2.379,0.886 4.38,2.128 5.701,4.385 1.196,2.045 1.704,5.058 0.962,7.351 -0.747,2.308 -2.178,4.536 -4.385,5.702 -2.155,1.139 -4.973,1.848 -7.352,0.961 -0.074,-0.027 -0.148,-0.055 -0.223,-0.083 -2.379,-0.886 -4.381,-2.128 -5.701,-4.384 -1.197,-2.045 -1.705,-5.059 -0.962,-7.352 0.747,-2.308 2.177,-4.536 4.384,-5.701 C -5.196,-0.177 -2.379,-0.886 0,0" /></g></g></g></g><g
             transform="translate(177.9011,279.1077)"
             id="g100"><path
               inkscape:connector-curvature="0"
               id="path102"
               style="fill:#2a4e7a;fill-opacity:1;fill-rule:nonzero;stroke:none"
               d="M 0,0 C 0.613,0 0.614,0.954 0,0.954 -0.614,0.954 -0.615,0 0,0" /></g><g
             transform="translate(178.3962,281.5525)"
             id="g104"><path
               inkscape:connector-curvature="0"
               id="path106"
               style="fill:#2a4e7a;fill-opacity:1;fill-rule:nonzero;stroke:none"
               d="M 0,0 C 0.074,0.028 0.148,0.056 0.224,0.083 0.794,0.295 0.547,1.218 -0.03,1.003 -0.104,0.976 -0.18,0.948 -0.254,0.92 -0.824,0.708 -0.577,-0.215 0,0" /></g><g
             transform="translate(181.8972,281.3601)"
             id="g108"><path
               inkscape:connector-curvature="0"
               id="path110"
               style="fill:#2a4e7a;fill-opacity:1;fill-rule:nonzero;stroke:none"
               d="M 0,0 C 0.614,0 0.615,0.954 0,0.954 -0.613,0.954 -0.614,0 0,0" /></g><g
             transform="translate(180.7976,277.8821)"
             id="g112"><path
               inkscape:connector-curvature="0"
               id="path114"
               style="fill:#2a4e7a;fill-opacity:1;fill-rule:nonzero;stroke:none"
               d="M 0,0 0.36,0.393 C 0.775,0.844 0.103,1.521 -0.314,1.067 -0.435,0.936 -0.555,0.805 -0.675,0.674 -1.09,0.223 -0.417,-0.454 0,0" /></g><g
             transform="translate(217.7332,293.7742)"
             id="g116"><path
               inkscape:connector-curvature="0"
               id="path118"
               style="fill:#2a4e7a;fill-opacity:1;fill-rule:nonzero;stroke:none"
               d="M 0,0 C 0.047,0.102 0.094,0.204 0.141,0.307 0.394,0.861 -0.428,1.346 -0.684,0.788 -0.73,0.686 -0.777,0.583 -0.824,0.481 -1.077,-0.073 -0.255,-0.559 0,0" /></g><g
             transform="translate(218.3601,296.2156)"
             id="g120"><path
               inkscape:connector-curvature="0"
               id="path122"
               style="fill:#2a4e7a;fill-opacity:1;fill-rule:nonzero;stroke:none"
               d="M 0,0 C 0.614,0 0.615,0.954 0,0.954 -0.614,0.954 -0.615,0 0,0" /></g><g
             transform="translate(221.0378,295.1765)"
             id="g124"><path
               inkscape:connector-curvature="0"
               id="path126"
               style="fill:#2a4e7a;fill-opacity:1;fill-rule:nonzero;stroke:none"
               d="M 0,0 C 0.613,0 0.615,0.954 0,0.954 -0.614,0.954 -0.615,0 0,0" /></g><g
             transform="translate(219.5515,292.3323)"
             id="g128"><path
               inkscape:connector-curvature="0"
               id="path130"
               style="fill:#2a4e7a;fill-opacity:1;fill-rule:nonzero;stroke:none"
               d="M 0,0 C 0.614,0 0.615,0.954 0,0.954 -0.613,0.954 -0.614,0 0,0" /></g><g
             transform="translate(343.3455,293.6941)"
             id="g132"><path
               inkscape:connector-curvature="0"
               id="path134"
               style="fill:#bde3ff;fill-opacity:1;fill-rule:nonzero;stroke:none"
               d="m 0,0 c -5.561,-22.145 -28.832,-34.643 -50.978,-29.082 -22.144,5.561 -36.202,27.431 -30.641,49.577 5.56,22.145 28.115,34.115 50.261,28.554 C -9.214,43.489 5.561,22.145 0,0" /></g><g
             transform="translate(252.0056,293.4837)"
             id="g136"><path
               inkscape:connector-curvature="0"
               id="path138"
               style="fill:#bde3ff;fill-opacity:1;fill-rule:nonzero;stroke:none"
               d="m 0,0 c 0.139,-0.112 0.276,-0.224 0.414,-0.336 0.864,-0.931 1.888,-1.588 3.07,-1.973 1.137,-0.597 2.363,-0.872 3.676,-0.822 2.34,0 5.136,1.039 6.746,2.795 1.669,1.817 2.908,4.205 2.795,6.746 -0.106,2.376 -0.867,5.178 -2.795,6.746 -0.137,0.112 -0.275,0.224 -0.414,0.336 -0.864,0.931 -1.888,1.588 -3.07,1.973 C 9.285,16.062 8.06,16.336 6.746,16.287 4.406,16.287 1.611,15.247 0,13.492 -1.669,11.674 -2.908,9.287 -2.794,6.746 -2.688,4.37 -1.927,1.568 0,0" /></g><g
             transform="translate(335.6287,265.7625)"
             id="g140"><path
               inkscape:connector-curvature="0"
               id="path142"
               style="fill:#bde3ff;fill-opacity:1;fill-rule:nonzero;stroke:none"
               d="M 0,0 C 12.277,0 12.298,19.081 0,19.081 -12.277,19.081 -12.298,0 0,0" /></g><g
             transform="translate(282.448,297.4925)"
             id="g144"><path
               inkscape:connector-curvature="0"
               id="path146"
               style="fill:#2a4e7a;fill-opacity:1;fill-rule:nonzero;stroke:none"
               d="m 0,0 c -1.097,2.2 3.516,1.891 4.388,1.557 1.488,-0.57 2.608,-1.724 3.097,-3.234 0.471,-1.454 2.775,-0.832 2.3,0.634 C 8.825,1.922 6.174,4.045 3.039,4.261 -0.018,4.47 -3.757,2.203 -2.06,-1.204 -1.375,-2.578 0.683,-1.371 0,0" /></g><g
             transform="translate(308.3601,290.5774)"
             id="g148"><path
               inkscape:connector-curvature="0"
               id="path150"
               style="fill:#2a4e7a;fill-opacity:1;fill-rule:nonzero;stroke:none"
               d="M 0,0 C 1.209,1.29 3.248,1.959 4.858,0.952 6.367,0.008 6.657,-2.063 5.7,-3.469 4.835,-4.741 6.9,-5.936 7.76,-4.672 9.369,-2.308 8.706,1.131 6.381,2.793 3.864,4.592 0.344,3.853 -1.687,1.687 -2.736,0.567 -1.053,-1.123 0,0" /></g><g
             transform="translate(257.49,299.8821)"
             id="g152"><path
               inkscape:connector-curvature="0"
               id="path154"
               style="fill:#2a4e7a;fill-opacity:1;fill-rule:nonzero;stroke:none"
               d="M 0,0 C 0.135,1.313 1.764,1.577 2.526,0.661 2.894,0.22 3.102,-0.393 3.188,-0.953 3.224,-1.192 3.236,-1.438 3.224,-1.68 3.228,-1.828 3.21,-1.975 3.172,-2.119 3.068,-2.312 3.139,-2.435 3.382,-2.487 2.492,-1.254 0.422,-2.443 1.322,-3.691 2.334,-5.092 4.324,-4.967 5.186,-3.452 6.008,-2.005 5.61,0.137 4.815,1.513 2.881,4.859 -1.986,3.864 -2.386,0 -2.543,-1.525 -0.156,-1.514 0,0" /></g><g
             transform="translate(339.5681,277.4475)"
             id="g156"><path
               inkscape:connector-curvature="0"
               id="path158"
               style="fill:#2a4e7a;fill-opacity:1;fill-rule:nonzero;stroke:none"
               d="m 0,0 c -1.762,2.295 -5.293,3.441 -7.632,1.238 -2.085,-1.964 -1.432,-5.248 1.215,-6.268 1.434,-0.552 2.055,1.754 0.635,2.301 -1.239,0.476 -0.726,2.006 0.168,2.508 1.18,0.662 2.78,0.026 3.554,-0.983 C -1.138,-2.405 0.936,-1.218 0,0" /></g><g
             transform="translate(287.1804,283.1233)"
             id="g160"><path
               inkscape:connector-curvature="0"
               id="path162"
               style="fill:#2a4e7a;fill-opacity:1;fill-rule:nonzero;stroke:none"
               d="m 0,0 c 1.231,-3.878 3.332,-7.168 7.521,-8.291 3.96,-1.061 8.056,0.561 10.583,3.674 0.958,1.181 -0.719,2.879 -1.687,1.686 C 14.414,-5.399 11.349,-6.838 8.155,-5.991 4.807,-5.103 3.275,-2.44 2.3,0.634 1.837,2.092 -0.467,1.469 0,0" /></g><g
             id="g164"><g
               id="g166" /><g
               id="g178"><g
                 id="g176"
                 clip-path="url(#clipPath170)"><g
                   id="g174"
                   transform="translate(279.9949,281.2073)"><path
                     inkscape:connector-curvature="0"
                     id="path172"
                     style="fill:#bde3ff;fill-opacity:1;fill-rule:nonzero;stroke:none"
                     d="M 0,0 C 12.278,0 12.298,19.081 0,19.081 -12.277,19.081 -12.298,0 0,0" /></g></g></g></g><g
             id="g180"><g
               id="g182" /><g
               id="g194"><g
                 id="g192"
                 clip-path="url(#clipPath186)"><g
                   id="g190"
                   transform="translate(312.3884,271.7937)"><path
                     inkscape:connector-curvature="0"
                     id="path188"
                     style="fill:#bde3ff;fill-opacity:1;fill-rule:nonzero;stroke:none"
                     d="m 0,0 c 0.077,-0.02 0.154,-0.039 0.231,-0.058 2.435,-0.611 5.167,-0.317 7.352,0.961 1.98,1.159 3.866,3.428 4.385,5.702 0.555,2.442 0.435,5.184 -0.962,7.352 C 9.675,16.021 7.744,17.729 5.304,18.341 5.227,18.36 5.15,18.38 5.073,18.399 2.639,19.01 -0.094,18.716 -2.278,17.437 -4.258,16.279 -6.146,14.01 -6.663,11.736 -7.219,9.293 -7.099,6.552 -5.701,4.384 -4.371,2.32 -2.439,0.613 0,0" /></g></g></g></g><g
             transform="translate(274.3269,291.2024)"
             id="g196"><path
               inkscape:connector-curvature="0"
               id="path198"
               style="fill:#2a4e7a;fill-opacity:1;fill-rule:nonzero;stroke:none"
               d="M 0,0 C 0.614,0 0.615,0.954 0,0.954 -0.613,0.954 -0.614,0 0,0" /></g><g
             transform="translate(275.8796,293.011)"
             id="g200"><path
               inkscape:connector-curvature="0"
               id="path202"
               style="fill:#2a4e7a;fill-opacity:1;fill-rule:nonzero;stroke:none"
               d="m 0,0 0.231,-0.059 c 0.596,-0.149 0.85,0.77 0.254,0.92 L 0.254,0.92 C -0.342,1.069 -0.596,0.149 0,0" /></g><g
             transform="translate(278.8972,290.7928)"
             id="g204"><path
               inkscape:connector-curvature="0"
               id="path206"
               style="fill:#2a4e7a;fill-opacity:1;fill-rule:nonzero;stroke:none"
               d="M 0,0 C 0.613,0 0.614,0.954 0,0.954 -0.614,0.954 -0.615,0 0,0" /></g><g
             transform="translate(275.7888,288.6438)"
             id="g208"><path
               inkscape:connector-curvature="0"
               id="path210"
               style="fill:#2a4e7a;fill-opacity:1;fill-rule:nonzero;stroke:none"
               d="M 0,0 C 0.173,0.04 0.347,0.08 0.52,0.119 1.118,0.256 0.864,1.176 0.266,1.039 0.093,1 -0.081,0.96 -0.254,0.92 -0.853,0.783 -0.599,-0.137 0,0" /></g><g
             transform="translate(315.2234,280.8128)"
             id="g212"><path
               inkscape:connector-curvature="0"
               id="path214"
               style="fill:#2a4e7a;fill-opacity:1;fill-rule:nonzero;stroke:none"
               d="M 0,0 C 0.097,0.058 0.193,0.115 0.29,0.173 0.816,0.488 0.337,1.313 -0.191,0.997 -0.288,0.939 -0.385,0.881 -0.481,0.824 -1.008,0.509 -0.528,-0.316 0,0" /></g><g
             transform="translate(317.3562,282.365)"
             id="g216"><path
               inkscape:connector-curvature="0"
               id="path218"
               style="fill:#2a4e7a;fill-opacity:1;fill-rule:nonzero;stroke:none"
               d="M 0,0 C 0.614,0 0.615,0.954 0,0.954 -0.613,0.954 -0.614,0 0,0" /></g><g
             transform="translate(318.9734,279.9915)"
             id="g220"><path
               inkscape:connector-curvature="0"
               id="path222"
               style="fill:#2a4e7a;fill-opacity:1;fill-rule:nonzero;stroke:none"
               d="M 0,0 C 0.614,0 0.615,0.954 0,0.954 -0.613,0.954 -0.614,0 0,0" /></g><g
             transform="translate(316.1375,278.4905)"
             id="g224"><path
               inkscape:connector-curvature="0"
               id="path226"
               style="fill:#2a4e7a;fill-opacity:1;fill-rule:nonzero;stroke:none"
               d="M 0,0 C 0.614,0 0.615,0.954 0,0.954 -0.613,0.954 -0.614,0 0,0" /></g><g
             transform="translate(311.2917,333.8347)"
             id="g228"><path
               inkscape:connector-curvature="0"
               id="path230"
               style="fill:#2a4e7a;fill-opacity:1;fill-rule:nonzero;stroke:none"
               d="m 0,0 c -2.695,-0.486 -21.013,-3.552 -17.913,-9.154 3.1,-5.6 15.601,4.651 18.116,6.638 -0.562,0.562 -1.124,1.124 -1.686,1.686 -1.918,-2.139 -10.092,-14.226 -3.062,-15.434 5.676,-0.976 6.208,11.567 5.593,14.789 -0.261,1.366 -2.295,0.978 -2.343,-0.317 -0.218,-5.969 1.577,-13.901 7.959,-15.672 0.525,-0.146 1.061,0.102 1.347,0.548 4.365,6.83 -2.222,12.502 -7.635,15.801 -1.314,0.801 -2.515,-1.261 -1.204,-2.06 3.31,-2.017 9.701,-5.922 7.465,-10.654 -1.658,-3.506 -3.91,3.286 -4.481,5.064 -0.739,2.305 -1.154,4.54 -1.065,6.973 -0.781,-0.106 -1.562,-0.211 -2.343,-0.317 0.31,-1.623 0.12,-10.521 -2.416,-9.629 -2.83,0.995 2.684,7.897 3.871,9.222 1.048,1.169 -0.502,2.622 -1.686,1.686 -2.018,-1.594 -4.055,-3.228 -6.282,-4.528 -1.162,-0.679 -2.68,-1.714 -3.997,-1.933 -1.183,-0.197 -2.982,-0.868 -1.902,0.718 1.036,1.522 5.365,2.317 7.155,2.79 2.353,0.621 4.75,1.052 7.144,1.483 C 2.143,-2.028 1.504,0.271 0,0" /></g></g></g></g></g></svg>