<?xml version="1.0" encoding="UTF-8" standalone="no"?>
<!-- Created with Inkscape (http://www.inkscape.org/) -->

<svg
   xmlns:dc="http://purl.org/dc/elements/1.1/"
   xmlns:cc="http://creativecommons.org/ns#"
   xmlns:rdf="http://www.w3.org/1999/02/22-rdf-syntax-ns#"
   xmlns:svg="http://www.w3.org/2000/svg"
   xmlns="http://www.w3.org/2000/svg"
   xmlns:sodipodi="http://sodipodi.sourceforge.net/DTD/sodipodi-0.dtd"
   xmlns:inkscape="http://www.inkscape.org/namespaces/inkscape"
   version="1.1"
   id="svg2"
   xml:space="preserve"
   width="238.77034"
   height="245.34366"
   viewBox="0 0 238.77033 245.34365"
   sodipodi:docname="Kids toys.svg"
   inkscape:version="0.92.2 5c3e80d, 2017-08-06"><metadata
     id="metadata8"><rdf:RDF><cc:Work
         rdf:about=""><dc:format>image/svg+xml</dc:format><dc:type
           rdf:resource="http://purl.org/dc/dcmitype/StillImage" /><dc:title></dc:title></cc:Work></rdf:RDF></metadata><defs
     id="defs6" /><sodipodi:namedview
     pagecolor="#ffffff"
     bordercolor="#666666"
     borderopacity="1"
     objecttolerance="10"
     gridtolerance="10"
     guidetolerance="10"
     inkscape:pageopacity="0"
     inkscape:pageshadow="2"
     inkscape:window-width="1186"
     inkscape:window-height="818"
     id="namedview4"
     showgrid="false"
     fit-margin-top="0"
     fit-margin-left="0"
     fit-margin-right="0"
     fit-margin-bottom="0"
     inkscape:zoom="0.22124998"
     inkscape:cx="-104.68849"
     inkscape:cy="286.6668"
     inkscape:window-x="0"
     inkscape:window-y="0"
     inkscape:window-maximized="0"
     inkscape:current-layer="g10" /><g
     id="g10"
     inkscape:groupmode="layer"
     inkscape:label="85758-OHNNK6-680"
     transform="matrix(1.3333333,0,0,-1.3333333,-638.02187,492.01019)"><g
       id="g1310"
       transform="translate(567.7305,225.0762)"><path
         d="m 0,0 c 4.282,-17.047 -6.066,-34.337 -23.114,-38.618 l -1.955,-0.492 c -17.046,-4.282 -34.336,6.068 -38.619,23.115 l -24.559,97.784 c -4.284,17.048 6.066,34.337 23.112,38.618 l 1.955,0.491 c 17.048,4.283 34.338,-6.065 38.62,-23.112 z"
         style="fill:#00a5d4;fill-opacity:1;fill-rule:nonzero;stroke:none"
         id="path1312"
         inkscape:connector-curvature="0" /></g><g
       id="g1314"
       transform="translate(642.1084,268.4287)"><path
         d="m 0,0 -25.608,15.962 -35.087,-55.468 26.971,-16.837 C -18.643,-65.37 0.9,-60.462 9.929,-45.38 l 1.035,1.729 C 19.99,-28.569 15.081,-9.024 0,0"
         style="fill:#f68135;fill-opacity:1;fill-rule:nonzero;stroke:none"
         id="path1316"
         inkscape:connector-curvature="0" /></g><g
       id="g1318"
       transform="translate(618.2402,363.4492)"><path
         d="m 0,0 -1.729,1.036 c -15.082,9.027 -34.625,4.118 -43.652,-10.964 l -21.844,-36.497 22.38,-89.098 c 1.501,1.61 2.856,3.397 4.033,5.362 l 51.779,86.509 C 19.992,-28.569 15.083,-9.026 0,0"
         style="fill:#ca2e8e;fill-opacity:1;fill-rule:nonzero;stroke:none"
         id="path1320"
         inkscape:connector-curvature="0" /></g></g></svg>