<?xml version="1.0" encoding="UTF-8" standalone="no"?>
<!-- Created with Inkscape (http://www.inkscape.org/) -->

<svg
   xmlns:dc="http://purl.org/dc/elements/1.1/"
   xmlns:cc="http://creativecommons.org/ns#"
   xmlns:rdf="http://www.w3.org/1999/02/22-rdf-syntax-ns#"
   xmlns:svg="http://www.w3.org/2000/svg"
   xmlns="http://www.w3.org/2000/svg"
   xmlns:sodipodi="http://sodipodi.sourceforge.net/DTD/sodipodi-0.dtd"
   xmlns:inkscape="http://www.inkscape.org/namespaces/inkscape"
   version="1.1"
   id="svg2"
   xml:space="preserve"
   width="236.00554"
   height="244.31546"
   viewBox="0 0 236.00554 244.31546"
   sodipodi:docname="baby-care.svg"
   inkscape:version="0.92.2 5c3e80d, 2017-08-06"><metadata
     id="metadata8"><rdf:RDF><cc:Work
         rdf:about=""><dc:format>image/svg+xml</dc:format><dc:type
           rdf:resource="http://purl.org/dc/dcmitype/StillImage" /><dc:title></dc:title></cc:Work></rdf:RDF></metadata><defs
     id="defs6"><clipPath
       clipPathUnits="userSpaceOnUse"
       id="clipPath20"><path
         d="M 0,500 H 500 V 0 H 0 Z"
         id="path18"
         inkscape:connector-curvature="0" /></clipPath><clipPath
       clipPathUnits="userSpaceOnUse"
       id="clipPath68"><path
         d="M 0,500 H 500 V 0 H 0 Z"
         id="path66"
         inkscape:connector-curvature="0" /></clipPath></defs><sodipodi:namedview
     pagecolor="#ffffff"
     bordercolor="#666666"
     borderopacity="1"
     objecttolerance="10"
     gridtolerance="10"
     guidetolerance="10"
     inkscape:pageopacity="0"
     inkscape:pageshadow="2"
     inkscape:window-width="1353"
     inkscape:window-height="746"
     id="namedview4"
     showgrid="false"
     fit-margin-top="0"
     fit-margin-left="0"
     fit-margin-right="0"
     fit-margin-bottom="0"
     inkscape:zoom="0.35399999"
     inkscape:cx="118.00267"
     inkscape:cy="49.168543"
     inkscape:window-x="175"
     inkscape:window-y="97"
     inkscape:window-maximized="0"
     inkscape:current-layer="g10" /><g
     id="g10"
     inkscape:groupmode="layer"
     inkscape:label="506384-PI9J4F-959"
     transform="matrix(1.3333333,0,0,-1.3333333,-215.33068,528.48024)"><g
       id="g14"><g
         id="g16"
         clip-path="url(#clipPath20)"><g
           id="g22"
           transform="translate(235.4644,384.8774)"><path
             d="m 0,0 c -9.123,-2.164 -24.567,-8.084 -32.894,-18.661 4.377,3.803 16.455,12.578 36.425,12.057 4.498,-0.117 9.626,2.452 9.942,6.147 C 13.58,0.798 7.353,0.853 0,0 m 72.922,-145.611 c -15.273,-5.366 -30.827,-5.431 -46.406,3.905 -7.572,4.539 -11.221,10.045 -12.007,15.494 l -0.089,-0.195 c -15.121,-13.101 -39.383,-11.969 -56.105,4.493 -27.592,27.164 -11.554,66.958 17.042,76.383 4.628,5.965 15.128,16.91 20.812,19.949 2.091,1.119 3.481,3.334 -1.227,3.857 -10.262,1.139 -17.791,-9.926 -29.441,-14.264 -2.695,-1.004 -6.3,-1.941 -8.153,0.168 -0.934,1.063 -1.088,2.563 -0.815,3.884 4.184,20.276 31.604,32.869 46.751,36.488 5.774,1.379 7.223,6.667 5.146,6.821 -5.943,0.441 -24.67,0.486 -48.241,-18.634 -39.587,-32.112 -45.647,-90.235 -13.536,-129.822 32.112,-39.588 87.09,-45.916 128.116,-15.665 8.1,5.972 17.375,16.22 21.222,24.707 -4.796,-5.867 -13.436,-14.185 -23.069,-17.569 m -37.883,64.573 -0.28,-0.616 c 0.301,0.09 0.615,0.166 0.935,0.236 z M 3.701,-11.613 c 3.322,-1.468 -0.041,-4.324 -5.029,-4.449 -17.401,-0.438 -26.968,-6.088 -39.746,-16.085 4.852,11.082 18.423,18.666 26.498,20.546 10.319,2.402 15.235,1.331 18.277,-0.012"
             style="fill:#ffb114;fill-opacity:1;fill-rule:nonzero;stroke:none"
             id="path24"
             inkscape:connector-curvature="0" /></g><g
           id="g26"
           transform="translate(249.8843,258.4707)"><path
             d="M 0,0 C -0.133,-0.776 -0.457,-1.367 -0.829,-1.904 -1.218,-2.422 -1.715,-2.809 -2.201,-3.21 l -1.515,-1.132 -1.576,-1.054 c -2.146,-1.341 -4.448,-2.453 -6.848,-3.301 -4.806,-1.691 -9.962,-2.338 -15.047,-2.087 -2.545,0.118 -5.075,0.497 -7.554,1.074 -2.475,0.595 -4.889,1.425 -7.212,2.444 -4.646,2.044 -8.958,4.783 -12.784,8.071 -1.918,1.644 -3.708,3.415 -5.363,5.31 -1.656,1.893 -3.213,3.885 -4.583,6.008 -2.742,4.24 -4.858,8.917 -6.109,13.835 -1.246,4.917 -1.642,10.045 -1.191,15.087 0.445,5.045 1.724,10 3.714,14.64 1.99,4.64 4.688,8.97 7.972,12.804 3.277,3.829 7.091,7.261 11.471,9.825 4.347,2.597 9.14,4.472 14.118,5.427 4.977,0.96 10.116,0.993 15.085,0.162 2.486,-0.408 4.934,-1.026 7.304,-1.847 0.6,-0.184 1.179,-0.425 1.766,-0.643 0.589,-0.215 1.17,-0.448 1.74,-0.705 1.143,-0.481 2.313,-1.014 3.424,-1.653 2.23,-1.258 4.28,-2.846 6.056,-4.678 1.778,-1.821 3.284,-3.901 4.645,-5.9 0.342,-0.491 0.683,-0.977 1.018,-1.379 0.164,-0.196 0.333,-0.375 0.462,-0.475 0.14,-0.113 0.169,-0.093 0.087,-0.084 1.35,-0.056 2.68,-0.313 3.936,-0.749 2.513,-0.873 4.745,-2.374 6.544,-4.257 1.782,-1.893 3.205,-4.134 4.026,-6.587 0.422,-1.22 0.72,-2.478 0.89,-3.75 0.068,-0.637 0.167,-1.273 0.12,-1.916 -0.08,-0.643 -0.293,-1.29 -0.853,-1.882 -0.284,0.313 -0.45,0.611 -0.594,0.904 -0.138,0.292 -0.258,0.578 -0.317,0.864 -0.082,0.285 -0.11,0.571 -0.147,0.858 l -0.15,0.852 c -0.227,1.13 -0.567,2.233 -1.01,3.289 -0.912,2.093 -2.107,4.075 -3.715,5.68 -1.575,1.619 -3.482,2.927 -5.582,3.637 -1.048,0.351 -2.136,0.543 -3.219,0.578 -0.321,0.005 -0.673,0.1 -0.923,0.219 -0.26,0.121 -0.463,0.262 -0.637,0.399 -0.35,0.279 -0.592,0.553 -0.822,0.82 -0.445,0.534 -0.801,1.047 -1.158,1.553 -1.384,2.015 -2.749,3.898 -4.422,5.521 -1.648,1.631 -3.515,3.016 -5.55,4.109 -1.012,0.556 -2.07,1.011 -3.18,1.454 -0.544,0.233 -1.096,0.443 -1.656,0.634 -0.557,0.195 -1.107,0.414 -1.675,0.574 -2.245,0.73 -4.547,1.264 -6.872,1.597 -4.648,0.675 -9.395,0.54 -13.963,-0.441 -4.57,-0.971 -8.954,-2.765 -12.923,-5.231 -3.941,-2.499 -7.594,-5.505 -10.647,-9.072 -3.047,-3.564 -5.552,-7.595 -7.394,-11.905 -3.71,-8.608 -4.648,-18.397 -2.318,-27.451 1.157,-4.523 3.109,-8.83 5.655,-12.76 1.272,-1.968 2.724,-3.821 4.274,-5.588 1.549,-1.771 3.231,-3.431 5.011,-4.952 3.554,-3.058 7.577,-5.582 11.918,-7.295 2.164,-0.87 4.389,-1.566 6.649,-2.099 2.257,-0.55 4.559,-0.899 6.872,-1.078 4.631,-0.347 9.314,0.149 13.781,1.444 2.235,0.641 4.424,1.474 6.526,2.51 l 1.564,0.81 1.527,0.888 c 0.492,0.322 0.978,0.654 1.563,0.865 C -1.423,-0.179 -0.807,0.003 0,0"
             style="fill:#ffb114;fill-opacity:1;fill-rule:nonzero;stroke:none"
             id="path28"
             inkscape:connector-curvature="0" /></g><g
           id="g30"
           transform="translate(284.6602,298.0103)"><path
             d="m 0,0 c -1.153,0.089 -2.211,0.276 -3.24,0.469 l -2.995,0.586 c -1.94,0.382 -3.814,0.81 -5.668,0.809 -1.841,0.011 -3.632,-0.349 -5.099,-1.155 -1.475,-0.765 -2.641,-2.004 -3.126,-3.416 -0.481,-1.409 -0.317,-2.866 0.565,-3.883 0.433,-0.519 1.05,-0.925 1.772,-1.243 0.623,-0.266 1.872,-0.589 2.867,-0.948 2.085,-0.71 4.1,-1.663 6.004,-2.822 0.948,-0.587 1.86,-1.238 2.723,-1.968 0.434,-0.36 0.845,-0.753 1.248,-1.16 0.409,-0.433 0.76,-0.809 1.174,-1.393 l 10e-4,-0.001 c 0.439,-0.559 0.342,-1.368 -0.215,-1.807 -0.298,-0.234 -0.666,-0.317 -1.013,-0.257 l -0.056,0.009 c -3.687,0.642 -7.488,0.552 -11.098,-0.321 -3.609,-0.869 -7.023,-2.496 -9.915,-4.746 -2.887,-2.247 -5.223,-5.195 -6.463,-8.513 -1.245,-3.315 -1.243,-6.961 0.052,-10.208 1.274,-3.261 3.702,-6.083 6.597,-8.342 1.452,-1.145 2.999,-2.144 4.66,-3.08 1.65,-0.938 3.339,-1.795 5.067,-2.559 6.908,-3.042 14.409,-4.651 21.973,-4.359 3.778,0.139 7.554,0.73 11.227,1.751 3.676,1.028 7.255,2.413 10.549,4.255 6.611,3.664 12.015,9.202 15.242,15.755 1.622,3.269 2.746,6.78 3.253,10.396 0.246,1.808 0.32,3.636 0.295,5.464 -0.056,1.828 -0.276,3.653 -0.653,5.446 -0.722,3.595 -2.178,7.065 -4.353,10.061 -1.087,1.501 -2.393,2.835 -3.818,4.051 -1.423,1.232 -2.981,2.323 -4.669,3.436 2.015,-0.161 3.99,-0.846 5.766,-1.874 1.775,-1.04 3.362,-2.4 4.762,-3.922 2.818,-3.045 4.845,-6.806 6.041,-10.798 2.373,-8.012 1.37,-16.952 -2.518,-24.359 -1.926,-3.717 -4.597,-6.997 -7.626,-9.791 -3.045,-2.796 -6.519,-5.028 -10.134,-6.861 -3.631,-1.822 -7.415,-3.234 -11.277,-4.327 -3.866,-1.094 -7.848,-1.869 -11.894,-2.161 -4.041,-0.284 -8.143,-0.113 -12.152,0.62 -4.011,0.721 -7.912,1.999 -11.599,3.679 -1.846,0.839 -3.643,1.775 -5.388,2.789 -1.739,1.004 -3.483,2.149 -5.095,3.446 -3.225,2.573 -6.105,5.898 -7.659,9.979 -0.781,2.024 -1.18,4.22 -1.151,6.403 0.025,2.187 0.492,4.345 1.269,6.347 1.59,4.008 4.399,7.353 7.724,9.847 6.678,5.037 15.478,6.725 23.476,5.046 l -1.283,-2.056 v 0.001 c -0.244,0.232 -0.645,0.588 -1.002,0.869 -0.377,0.293 -0.772,0.569 -1.172,0.841 -0.8,0.547 -1.664,1.017 -2.539,1.457 -1.75,0.889 -3.618,1.566 -5.52,2.132 -0.991,0.306 -1.799,0.424 -3.145,0.875 -1.22,0.452 -2.42,1.198 -3.37,2.261 -0.953,1.056 -1.597,2.424 -1.819,3.826 -0.235,1.405 -0.053,2.825 0.404,4.096 0.914,2.564 2.901,4.518 5.135,5.66 2.266,1.132 4.742,1.478 7.073,1.382 C -7.124,5.547 -2.75,3.64 0,0"
             style="fill:#ffb114;fill-opacity:1;fill-rule:nonzero;stroke:none"
             id="path32"
             inkscape:connector-curvature="0" /></g><g
           id="g34"
           transform="translate(309.0273,278.4248)"><path
             d="M 0,0 C -0.757,-0.823 -1.684,-0.968 -2.475,-0.904 -3.268,-0.788 -4,-0.5 -4.728,-0.241 -6.175,0.31 -7.547,0.992 -8.863,1.768 c -2.629,1.555 -5.021,3.515 -7.066,5.865 -2.007,2.361 -3.681,5.198 -4.344,8.435 -0.337,1.608 -0.403,3.294 -0.187,4.936 0.211,1.646 0.719,3.231 1.398,4.699 0.693,1.454 1.607,2.884 2.77,4.091 1.156,1.216 2.548,2.224 4.061,2.932 3.034,1.439 6.394,1.769 9.532,1.424 6.312,-0.729 12.028,-3.722 16.528,-7.871 l -2.737,-2.564 -0.001,0.001 c -1.323,1.599 -2.467,3.357 -3.243,5.446 -0.377,1.046 -0.657,2.189 -0.678,3.455 -0.026,1.25 0.275,2.681 1.055,3.862 0.736,1.156 1.922,2.138 3.276,2.589 1.345,0.451 2.678,0.44 3.853,0.23 2.358,-0.45 4.266,-1.524 5.984,-2.748 1.705,-1.249 3.174,-2.74 4.444,-4.388 1.261,-1.653 2.32,-3.491 2.982,-5.527 0.666,-2.02 0.943,-4.275 0.485,-6.472 -0.239,-1.083 -0.588,-2.182 -1.303,-3.042 -0.708,-0.851 -1.651,-1.506 -2.855,-1.653 0.141,1.202 0.372,2.074 0.58,2.895 0.215,0.806 0.482,1.537 0.585,2.329 0.212,1.572 -0.091,3.218 -0.728,4.769 -1.296,3.101 -3.702,5.895 -6.515,7.811 -1.389,0.957 -2.941,1.71 -4.355,1.928 -0.698,0.1 -1.329,0.081 -1.8,-0.083 -0.461,-0.16 -0.821,-0.459 -1.117,-0.903 -0.265,-0.422 -0.421,-0.925 -0.428,-1.575 -0.008,-0.644 0.141,-1.387 0.387,-2.138 0.492,-1.513 1.361,-3.056 2.362,-4.47 l 0.001,-10e-4 c 0.653,-0.805 0.531,-1.989 -0.275,-2.643 -0.711,-0.577 -1.716,-0.549 -2.392,0.019 l -0.071,0.06 c -2.097,1.76 -4.382,3.282 -6.809,4.489 -2.428,1.198 -5.027,2.039 -7.644,2.351 -2.609,0.315 -5.246,0.035 -7.484,-1.003 -2.254,-1.026 -3.972,-2.883 -5.068,-5.193 -1.105,-2.317 -1.489,-4.853 -1.01,-7.33 0.479,-2.473 1.714,-4.867 3.406,-6.956 1.666,-2.117 3.759,-3.953 6.032,-5.498 1.14,-0.768 2.338,-1.455 3.573,-2.013 C -3.065,2.019 -2.424,1.829 -1.816,1.567 -1.206,1.262 -0.696,0.848 0,0"
             style="fill:#ffb114;fill-opacity:1;fill-rule:nonzero;stroke:none"
             id="path36"
             inkscape:connector-curvature="0" /></g><g
           id="g38"
           transform="translate(201.5645,320.1821)"><path
             d="m 0,0 c 0.764,2.791 2.318,5.425 4.492,7.543 2.176,2.081 5.08,3.707 8.4,3.915 0.823,0.06 1.656,-0.006 2.485,-0.122 0.822,-0.151 1.64,-0.369 2.412,-0.698 1.565,-0.621 2.926,-1.628 4.088,-2.758 1.153,-1.13 2.13,-2.441 2.886,-3.949 0.757,-1.501 1.163,-3.246 1.155,-5.003 -0.02,-1.76 -0.526,-3.514 -1.394,-5.018 -0.868,-1.513 -2.104,-2.769 -3.538,-3.717 -1.452,-0.92 -3.125,-1.521 -4.878,-1.637 -1.746,-0.102 -3.55,0.283 -5.043,1.164 -1.502,0.838 -2.716,2.096 -3.519,3.62 -0.77,1.529 -1.045,3.315 -0.646,4.969 0.386,1.647 1.536,3.13 3.053,3.76 1.523,0.635 3.14,0.41 4.449,-0.168 C 12.969,2.039 11.519,1.821 10.504,1.06 10.002,0.682 9.599,0.217 9.327,-0.316 9.057,-0.851 8.929,-1.44 8.887,-2.023 8.798,-3.2 9.194,-4.373 9.867,-5.302 c 0.654,-0.935 1.626,-1.697 2.667,-2.159 2.059,-0.957 4.505,-0.572 6.365,0.774 1.88,1.315 3.085,3.484 3.105,5.677 0.067,2.205 -1.082,4.46 -2.78,6.306 C 17.563,7.123 15.387,8.313 12.941,8.394 10.508,8.497 7.913,7.612 5.701,6.067 3.438,4.562 1.547,2.434 0,0"
             style="fill:#ffb114;fill-opacity:1;fill-rule:nonzero;stroke:none"
             id="path40"
             inkscape:connector-curvature="0" /></g><g
           id="g42"
           transform="translate(220.3467,276.8857)"><path
             d="m 0,0 c 2.126,0.113 3.856,0.539 5.298,1.33 1.438,0.776 2.611,1.863 3.517,3.134 0.896,1.277 1.525,2.719 1.703,4.276 0.186,1.559 -0.175,3.268 -1.186,5.153 1.026,-0.292 1.971,-0.914 2.731,-1.771 0.756,-0.858 1.293,-1.966 1.528,-3.143 C 14.062,6.606 13.381,4.105 12.009,2.195 10.648,0.27 8.551,-1.148 6.253,-1.589 3.959,-2.046 1.564,-1.433 0,0"
             style="fill:#ffb114;fill-opacity:1;fill-rule:nonzero;stroke:none"
             id="path44"
             inkscape:connector-curvature="0" /></g><g
           id="g46"
           transform="translate(245.7192,289.4971)"><path
             d="M 0,0 C 1.148,0.472 1.778,0.949 2.227,1.408 2.67,1.86 2.971,2.281 3.276,2.698 3.568,3.126 3.851,3.518 4.111,4.031 4.367,4.543 4.567,5.272 4.373,6.51 5.601,6.588 6.806,5.607 7.184,4.27 7.575,2.942 7.242,1.491 6.471,0.429 5.713,-0.647 4.483,-1.396 3.181,-1.511 1.883,-1.634 0.588,-1.074 0,0"
             style="fill:#ffb114;fill-opacity:1;fill-rule:nonzero;stroke:none"
             id="path48"
             inkscape:connector-curvature="0" /></g><g
           id="g50"
           transform="translate(242.6631,307.9067)"><path
             d="M 0,0 C 1.802,0.229 3.17,0.671 4.284,1.353 5.394,2.021 6.28,2.889 6.987,3.88 7.684,4.876 8.198,5.972 8.401,7.185 8.61,8.397 8.437,9.784 7.693,11.453 8.586,11.271 9.416,10.781 10.093,10.075 10.766,9.367 11.252,8.428 11.474,7.423 11.92,5.396 11.354,3.24 10.182,1.61 9.019,-0.034 7.208,-1.232 5.239,-1.566 3.273,-1.914 1.241,-1.317 0,0"
             style="fill:#ffb114;fill-opacity:1;fill-rule:nonzero;stroke:none"
             id="path52"
             inkscape:connector-curvature="0" /></g></g></g></g></svg>