<?xml version="1.0" encoding="iso-8859-1"?>
<!-- Generator: Adobe Illustrator 19.0.0, SVG Export Plug-In . SVG Version: 6.00 Build 0)  -->
<svg version="1.1" id="Capa_1" xmlns="http://www.w3.org/2000/svg" xmlns:xlink="http://www.w3.org/1999/xlink" x="0px" y="0px"
	 viewBox="0 0 512 512" style="enable-background:new 0 0 512 512;" xml:space="preserve">
<path style="fill:#607D8B;" d="M512,192v53.333c0,29.455-23.878,53.333-53.333,53.333H53.333C23.878,298.667,0,274.789,0,245.333
	V192H512z"/>
<path style="fill:#B0BEC5;" d="M512,96v96H0V96c0-29.455,23.878-53.333,53.333-53.333h405.333C488.122,42.667,512,66.545,512,96z"/>
<g>
	<path style="fill:#455A64;" d="M463.104,254.955h-21.333c-5.891,0-10.667-4.776-10.667-10.667c0-5.891,4.776-10.667,10.667-10.667
		h21.333c5.891,0,10.667,4.776,10.667,10.667C473.771,250.179,468.995,254.955,463.104,254.955z"/>
	<path style="fill:#455A64;" d="M399.104,254.955h-21.333c-5.891,0-10.667-4.776-10.667-10.667c0-5.891,4.776-10.667,10.667-10.667
		h21.333c5.891,0,10.667,4.776,10.667,10.667C409.771,250.179,404.995,254.955,399.104,254.955z"/>
</g>
<g>
	<path style="fill:#2196F3;" d="M85.184,469.333c-5.891,0.011-10.675-4.757-10.686-10.648c-0.005-2.84,1.123-5.565,3.134-7.571
		c13.056-13.035,7.701-28.885-2.133-53.675c-9.131-23.04-20.501-51.712,2.133-74.325c4.237-4.092,10.99-3.975,15.083,0.262
		c3.992,4.134,3.992,10.687,0,14.82c-12.096,12.096-6.891,27.413,2.624,51.392c9.344,23.595,20.992,52.971-2.624,76.608
		C90.719,468.199,88.011,469.327,85.184,469.333z"/>
	<path style="fill:#2196F3;" d="M170.155,469.333c-5.891,0.011-10.675-4.757-10.686-10.648c-0.005-2.84,1.123-5.565,3.134-7.571
		c13.056-13.035,7.701-28.885-2.133-53.675c-9.131-23.04-20.501-51.712,2.133-74.325c4.237-4.092,10.99-3.975,15.083,0.262
		c3.992,4.134,3.992,10.687,0,14.82c-12.096,12.096-6.891,27.413,2.624,51.392c9.344,23.595,20.992,52.971-2.624,76.608
		C175.69,468.199,172.981,469.327,170.155,469.333z"/>
	<path style="fill:#2196F3;" d="M255.125,469.333c-5.891,0.011-10.675-4.757-10.686-10.648c-0.005-2.84,1.123-5.565,3.134-7.571
		c13.056-13.035,7.701-28.885-2.133-53.675c-9.131-23.04-20.501-51.712,2.133-74.325c4.237-4.092,10.99-3.975,15.083,0.262
		c3.992,4.134,3.992,10.687,0,14.82c-12.096,12.096-6.891,27.413,2.624,51.392c9.344,23.595,20.992,52.971-2.624,76.608
		C260.66,468.199,257.952,469.327,255.125,469.333z"/>
	<path style="fill:#2196F3;" d="M394.667,469.333c-5.891,0-10.667-4.776-10.667-10.667v-128c0-5.891,4.776-10.667,10.667-10.667
		c5.891,0,10.667,4.776,10.667,10.667v128C405.333,464.558,400.558,469.333,394.667,469.333z"/>
	<path style="fill:#2196F3;" d="M339.2,437.333c-5.891,0-10.666-4.776-10.666-10.667c0-3.811,2.033-7.332,5.333-9.237l110.933-64
		c4.971-3.16,11.564-1.692,14.724,3.279c3.16,4.972,1.692,11.564-3.279,14.724c-0.253,0.161-0.513,0.311-0.778,0.45l-110.933,64
		C342.917,436.833,341.075,437.334,339.2,437.333z"/>
	<path style="fill:#2196F3;" d="M450.133,437.333c-1.873,0.007-3.715-0.486-5.333-1.429l-110.933-64
		c-5.22-2.731-7.238-9.176-4.507-14.396c2.731-5.22,9.176-7.238,14.396-4.507c0.266,0.139,0.525,0.289,0.778,0.45l110.933,64
		c5.102,2.946,6.849,9.469,3.904,14.571c-1.905,3.3-5.426,5.333-9.237,5.333L450.133,437.333z"/>
</g>
<path style="fill:#455A64;" d="M335.104,254.955H57.771c-5.891,0-10.667-4.776-10.667-10.667c0-5.891,4.776-10.667,10.667-10.667
	h277.333c5.891,0,10.667,4.776,10.667,10.667C345.771,250.179,340.995,254.955,335.104,254.955z"/>
<g>
</g>
<g>
</g>
<g>
</g>
<g>
</g>
<g>
</g>
<g>
</g>
<g>
</g>
<g>
</g>
<g>
</g>
<g>
</g>
<g>
</g>
<g>
</g>
<g>
</g>
<g>
</g>
<g>
</g>
</svg>
