<?xml version="1.0" encoding="iso-8859-1"?>
<!-- Generator: Adobe Illustrator 19.0.0, SVG Export Plug-In . SVG Version: 6.00 Build 0)  -->
<svg version="1.1" id="Capa_1" xmlns="http://www.w3.org/2000/svg" xmlns:xlink="http://www.w3.org/1999/xlink" x="0px" y="0px"
	 viewBox="0 0 512 512" style="enable-background:new 0 0 512 512;" xml:space="preserve">
<path style="fill:#1976D2;" d="M368,0H112c-8.832,0-16,7.168-16,16v256c0,8.832,7.168,16,16,16h256c8.832,0,16-7.168,16-16V16
	C384,7.168,376.832,0,368,0z"/>
<path style="fill:#2196F3;" d="M496,128H304c-8.832,0-16,7.168-16,16v87.424l-88.864,59.264C194.656,293.664,192,298.656,192,304
	v192c0,8.832,7.168,16,16,16h288c8.832,0,16-7.168,16-16V144C512,135.168,504.832,128,496,128z"/>
<path style="fill:#64B5F6;" d="M208,224H16c-8.832,0-16,7.168-16,16v256c0,8.832,7.168,16,16,16h192c8.832,0,16-7.168,16-16V240
	C224,231.168,216.832,224,208,224z"/>
<g>
	<rect x="64" y="288" style="fill:#FAFAFA;" width="32" height="32"/>
	<rect x="128" y="288" style="fill:#FAFAFA;" width="32" height="32"/>
	<rect x="64" y="352" style="fill:#FAFAFA;" width="32" height="32"/>
	<rect x="128" y="352" style="fill:#FAFAFA;" width="32" height="32"/>
	<rect x="160" y="64" style="fill:#FAFAFA;" width="32" height="32"/>
	<rect x="224" y="64" style="fill:#FAFAFA;" width="32" height="32"/>
	<rect x="160" y="128" style="fill:#FAFAFA;" width="32" height="32"/>
	<rect x="224" y="128" style="fill:#FAFAFA;" width="32" height="32"/>
	<rect x="288" y="64" style="fill:#FAFAFA;" width="32" height="32"/>
	<rect x="384" y="352" style="fill:#FAFAFA;" width="64" height="64"/>
	<rect x="384" y="224" style="fill:#FAFAFA;" width="64" height="64"/>
</g>
<g>
</g>
<g>
</g>
<g>
</g>
<g>
</g>
<g>
</g>
<g>
</g>
<g>
</g>
<g>
</g>
<g>
</g>
<g>
</g>
<g>
</g>
<g>
</g>
<g>
</g>
<g>
</g>
<g>
</g>
</svg>
