<?xml version="1.0" encoding="iso-8859-1"?>
<!-- Generator: Adobe Illustrator 19.0.0, SVG Export Plug-In . SVG Version: 6.00 Build 0)  -->
<svg version="1.1" id="Capa_1" xmlns="http://www.w3.org/2000/svg" xmlns:xlink="http://www.w3.org/1999/xlink" x="0px" y="0px"
	 viewBox="0 0 512 512" style="enable-background:new 0 0 512 512;" xml:space="preserve">
<path style="fill:#455A64;" d="M74.667,0h362.667C478.571,0,512,33.429,512,74.667v362.667C512,478.571,478.571,512,437.333,512
	H74.667C33.429,512,0,478.571,0,437.333V74.667C0,33.429,33.429,0,74.667,0z"/>
<path style="fill:#00BCD4;" d="M74.667,42.667h234.667c17.673,0,32,14.327,32,32v106.667c0,17.673-14.327,32-32,32H74.667
	c-17.673,0-32-14.327-32-32V74.667C42.667,56.994,56.994,42.667,74.667,42.667z"/>
<g>
	<path style="fill:#607D8B;" d="M74.667,256H96c17.673,0,32,14.327,32,32v21.333c0,17.673-14.327,32-32,32H74.667
		c-17.673,0-32-14.327-32-32V288C42.667,270.327,56.994,256,74.667,256z"/>
	<path style="fill:#607D8B;" d="M181.333,256h21.333c17.673,0,32,14.327,32,32v21.333c0,17.673-14.327,32-32,32h-21.333
		c-17.673,0-32-14.327-32-32V288C149.333,270.327,163.66,256,181.333,256z"/>
	<path style="fill:#607D8B;" d="M288,256h21.333c17.673,0,32,14.327,32,32v21.333c0,17.673-14.327,32-32,32H288
		c-17.673,0-32-14.327-32-32V288C256,270.327,270.327,256,288,256z"/>
	<path style="fill:#607D8B;" d="M74.667,362.667H96c17.673,0,32,14.327,32,32V416c0,17.673-14.327,32-32,32H74.667
		c-17.673,0-32-14.327-32-32v-21.333C42.667,376.994,56.994,362.667,74.667,362.667z"/>
	<path style="fill:#607D8B;" d="M181.333,362.667h21.333c17.673,0,32,14.327,32,32V416c0,17.673-14.327,32-32,32h-21.333
		c-17.673,0-32-14.327-32-32v-21.333C149.333,376.994,163.66,362.667,181.333,362.667z"/>
	<path style="fill:#607D8B;" d="M288,362.667h21.333c17.673,0,32,14.327,32,32V416c0,17.673-14.327,32-32,32H288
		c-17.673,0-32-14.327-32-32v-21.333C256,376.994,270.327,362.667,288,362.667z"/>
</g>
<g>
	<path style="fill:#2196F3;" d="M373.333,341.333h85.333c5.891,0,10.667,4.776,10.667,10.667v42.667
		c0,5.891-4.776,10.667-10.667,10.667h-85.333c-5.891,0-10.667-4.776-10.667-10.667V352
		C362.667,346.109,367.442,341.333,373.333,341.333z"/>
	<path style="fill:#2196F3;" d="M373.333,128h85.333c5.891,0,10.667,4.776,10.667,10.667v42.667c0,5.891-4.776,10.667-10.667,10.667
		h-85.333c-5.891,0-10.667-4.776-10.667-10.667v-42.667C362.667,132.776,367.442,128,373.333,128z"/>
</g>
<g>
</g>
<g>
</g>
<g>
</g>
<g>
</g>
<g>
</g>
<g>
</g>
<g>
</g>
<g>
</g>
<g>
</g>
<g>
</g>
<g>
</g>
<g>
</g>
<g>
</g>
<g>
</g>
<g>
</g>
</svg>
