<?xml version="1.0" encoding="iso-8859-1"?>
<!-- Generator: Adobe Illustrator 19.0.0, SVG Export Plug-In . SVG Version: 6.00 Build 0)  -->
<svg version="1.1" id="Capa_1" xmlns="http://www.w3.org/2000/svg" xmlns:xlink="http://www.w3.org/1999/xlink" x="0px" y="0px"
	 viewBox="0 0 512 512" style="enable-background:new 0 0 512 512;" xml:space="preserve">
<path style="fill:#FFC107;" d="M304,128H16c-8.832,0-16,7.168-16,16v304c0,35.296,28.704,64,64,64h240c8.832,0,16-7.168,16-16V144
	C320,135.168,312.832,128,304,128z"/>
<path style="fill:#2196F3;" d="M496,256H240c-8.832,0-16,7.168-16,16v176c0,35.296,28.704,64,64,64h160c35.296,0,64-28.704,64-64
	V272C512,263.168,504.832,256,496,256z"/>
<g>
	<path style="fill:#455A64;" d="M240,192c-8.832,0-16-7.168-16-16V96c0-35.296-28.704-64-64-64S96,60.704,96,96v80
		c0,8.832-7.168,16-16,16s-16-7.168-16-16V96c0-52.928,43.072-96,96-96s96,43.072,96,96v80C256,184.832,248.832,192,240,192z"/>
	<path style="fill:#455A64;" d="M432,320c-8.832,0-16-7.168-16-16v-64c0-26.464-21.536-48-48-48s-48,21.536-48,48v64
		c0,8.832-7.168,16-16,16s-16-7.168-16-16v-64c0-44.096,35.872-80,80-80s80,35.904,80,80v64C448,312.832,440.832,320,432,320z"/>
</g>
<g>
</g>
<g>
</g>
<g>
</g>
<g>
</g>
<g>
</g>
<g>
</g>
<g>
</g>
<g>
</g>
<g>
</g>
<g>
</g>
<g>
</g>
<g>
</g>
<g>
</g>
<g>
</g>
<g>
</g>
</svg>
