<?xml version="1.0" encoding="iso-8859-1"?>
<!-- Generator: Adobe Illustrator 19.0.0, SVG Export Plug-In . SVG Version: 6.00 Build 0)  -->
<svg version="1.1" id="Capa_1" xmlns="http://www.w3.org/2000/svg" xmlns:xlink="http://www.w3.org/1999/xlink" x="0px" y="0px"
	 viewBox="0 0 512 512" style="enable-background:new 0 0 512 512;" xml:space="preserve">
<rect x="64" y="223.992" style="fill:#90A4AE;" width="384" height="160"/>
<rect x="64" y="223.992" style="fill:#78909C;" width="384" height="32"/>
<g>
	<path style="fill:#CFD8DC;" d="M503.52,161.88l-240-128c-4.704-2.496-10.336-2.496-15.072,0l-240,128
		C3.264,164.664,0,170.072,0,175.992v32c0,8.832,7.168,16,16,16h480c8.832,0,16-7.168,16-16v-32
		C512,170.072,508.736,164.664,503.52,161.88z"/>
	<path style="fill:#CFD8DC;" d="M480,383.992H32c-17.632,0-32,14.336-32,32v48c0,8.832,7.168,16,16,16h480c8.832,0,16-7.168,16-16
		v-48C512,398.328,497.664,383.992,480,383.992z"/>
</g>
<g>
	<rect x="64" y="223.992" style="fill:#B0BEC5;" width="64" height="160"/>
	<rect x="224" y="223.992" style="fill:#B0BEC5;" width="64" height="160"/>
	<rect x="384" y="223.992" style="fill:#B0BEC5;" width="64" height="160"/>
</g>
<g>
</g>
<g>
</g>
<g>
</g>
<g>
</g>
<g>
</g>
<g>
</g>
<g>
</g>
<g>
</g>
<g>
</g>
<g>
</g>
<g>
</g>
<g>
</g>
<g>
</g>
<g>
</g>
<g>
</g>
</svg>
