<?xml version="1.0" encoding="iso-8859-1"?>
<!-- Generator: Adobe Illustrator 19.0.0, SVG Export Plug-In . SVG Version: 6.00 Build 0)  -->
<svg version="1.1" id="Capa_1" xmlns="http://www.w3.org/2000/svg" xmlns:xlink="http://www.w3.org/1999/xlink" x="0px" y="0px"
	 viewBox="0 0 512 512" style="enable-background:new 0 0 512 512;" xml:space="preserve">
<path style="fill:#4CAF50;" d="M160,84.444h341.333c5.891,0,10.667,4.776,10.667,10.667v213.333c0,5.891-4.776,10.667-10.667,10.667
	H160c-5.891,0-10.667-4.776-10.667-10.667V95.111C149.333,89.219,154.109,84.444,160,84.444z"/>
<path style="fill:#FFE082;" d="M373.333,340.807h-64.832l-47.979,3.776c-17.496,2.498-33.704-9.66-36.201-27.156
	c-0.213-1.491-0.32-2.996-0.321-4.503c-0.018-7.354,2.314-14.522,6.656-20.459l33.557-46.123
	c10.771-16.41,6.201-38.444-10.209-49.215c-14.01-9.196-32.54-7.356-44.469,4.415l-54.08,54.059
	c-28.544,1.532-54.051,18.317-66.752,43.925c-0.328,0.683-0.586,1.398-0.768,2.133l-23.573,89.387
	c-1.507,5.695,1.889,11.533,7.584,13.04c0.362,0.096,0.729,0.172,1.099,0.23l137.365,21.056c6.926,1.519,14.011,2.185,21.099,1.984
	c21.932,1.293,43.778-3.695,62.976-14.379l84.48-52.437c5.007-3.103,6.551-9.678,3.448-14.686
	C380.466,342.712,377.03,340.802,373.333,340.807z"/>
<path style="fill:#546E7A;" d="M10.667,426.14C4.776,426.14,0,421.364,0,415.473V266.14c0.003-2.975,1.248-5.813,3.435-7.829
	c2.161-2.048,5.099-3.067,8.064-2.795c12.053,0.939,73.152,6.528,91.733,24.235c2.406,2.203,3.671,5.386,3.435,8.64
	c-3.67,36.962-10.987,73.471-21.845,108.992c-0.811,2.543-2.547,4.69-4.864,6.016C58.702,415.733,35.098,423.48,10.667,426.14z"/>
<g>
	<path style="fill:#FAFAFA;" d="M330.667,255.111c-28.693,0-51.072-12.331-53.227-29.312c-0.736-5.862,3.418-11.21,9.28-11.947
		s11.21,3.418,11.947,9.28c0.384,3.093,12.096,10.667,32,10.667c20.672,0,32-8,32-10.667c0,0-0.363-6.677-31.147-10.475
		l-2.261-0.299c-15.659-1.92-51.925-6.379-51.925-31.915c0-18.24,22.933-32,53.333-32c28.693,0,51.072,12.309,53.227,29.291
		c0.736,5.862-3.418,11.21-9.28,11.947c-5.862,0.736-11.21-3.418-11.947-9.28c-0.32-2.475-10.923-10.667-32-10.667
		c-20.672,0-32,8-32,10.667c0,0,0.363,6.699,31.253,10.475l2.133,0.277c15.616,1.941,51.861,6.4,51.861,32
		C384,241.351,361.067,255.111,330.667,255.111z"/>
	<path style="fill:#FAFAFA;" d="M330.667,276.444c-5.891,0-10.667-4.776-10.667-10.667v-128c0-5.891,4.776-10.667,10.667-10.667
		c5.891,0,10.667,4.776,10.667,10.667v128C341.333,271.668,336.558,276.444,330.667,276.444z"/>
	<path style="fill:#FAFAFA;" d="M458.667,148.444H416c-5.891,0-10.667-4.776-10.667-10.667c0-5.891,4.776-10.667,10.667-10.667
		h42.667c5.891,0,10.667,4.776,10.667,10.667C469.333,143.668,464.558,148.444,458.667,148.444z"/>
</g>
<g>
</g>
<g>
</g>
<g>
</g>
<g>
</g>
<g>
</g>
<g>
</g>
<g>
</g>
<g>
</g>
<g>
</g>
<g>
</g>
<g>
</g>
<g>
</g>
<g>
</g>
<g>
</g>
<g>
</g>
</svg>
