<?xml version="1.0" encoding="iso-8859-1"?>
<!-- Generator: Adobe Illustrator 19.0.0, SVG Export Plug-In . SVG Version: 6.00 Build 0)  -->
<svg version="1.1" id="Capa_1" xmlns="http://www.w3.org/2000/svg" xmlns:xlink="http://www.w3.org/1999/xlink" x="0px" y="0px"
	 viewBox="0 0 512 512" style="enable-background:new 0 0 512 512;" xml:space="preserve">
<path style="fill:#4CAF50;" d="M288,0H10.667C4.776,0,0,4.776,0,10.667V288c0,5.891,4.776,10.667,10.667,10.667h106.667
	c5.891,0,10.667-4.776,10.667-10.667v-85.333C128,161.429,161.429,128,202.667,128H288c5.891,0,10.667-4.776,10.667-10.667V10.667
	C298.667,4.776,293.891,0,288,0z"/>
<path style="fill:#2196F3;" d="M309.333,106.667H202.667c-53.019,0-96,42.981-96,96v106.667c0,53.019,42.981,96,96,96h25.195
	c5.891,0.005,10.671-4.767,10.675-10.658c0.001-0.829-0.095-1.655-0.286-2.462c-7.382-29.567-3.248-60.834,11.563-87.467
	c12.482-23.278,31.553-42.357,54.827-54.848c26.64-14.79,57.899-18.923,87.467-11.563c5.719,1.414,11.501-2.075,12.915-7.794
	c0.217-0.877,0.321-1.778,0.311-2.681v-25.195C405.333,149.647,362.353,106.667,309.333,106.667z"/>
<circle style="fill:#FFC107;" cx="362.667" cy="362.667" r="149.333"/>
<g>
</g>
<g>
</g>
<g>
</g>
<g>
</g>
<g>
</g>
<g>
</g>
<g>
</g>
<g>
</g>
<g>
</g>
<g>
</g>
<g>
</g>
<g>
</g>
<g>
</g>
<g>
</g>
<g>
</g>
</svg>
