<?xml version="1.0" encoding="iso-8859-1"?>
<!-- Generator: Adobe Illustrator 19.0.0, SVG Export Plug-In . SVG Version: 6.00 Build 0)  -->
<svg version="1.1" id="Capa_1" xmlns="http://www.w3.org/2000/svg" xmlns:xlink="http://www.w3.org/1999/xlink" x="0px" y="0px"
	 viewBox="0 0 512 512" style="enable-background:new 0 0 512 512;" xml:space="preserve">
<path style="fill:#FFD54F;" d="M480,192.96V384c0,5.76-2.88,10.88-7.68,13.76l-160,96c-2.56,1.6-5.44,2.24-8.32,2.24
	c-4.8,0-9.6-2.24-12.8-6.4l-94.4-126.72L480,192.96z"/>
<path style="fill:#FFB300;" d="M512,128c0,24-10.88,46.4-32,64.96L196.8,362.88L49.92,165.76c-2.56-3.84-3.52-8.32-2.88-12.8
	c0.96-4.48,3.52-8.32,7.68-10.56l159.04-95.68c0.32,0,0.64-0.32,0.64-0.32C247.68,26.88,290.56,16,336,16
	C434.56,16,512,65.28,512,128z"/>
<path style="fill:#FFE082;" d="M176,112c-45.6,0-88.736,10.784-121.408,30.4C19.392,163.52,0,192.512,0,224
	c0,23.904,11.04,46.24,32,65.024V480c0,8.832,7.168,16,16,16h256c8.832,0,16-7.168,16-16V289.024c20.96-18.784,32-41.12,32-65.024
	C352,161.216,274.688,112,176,112z"/>
<g>
</g>
<g>
</g>
<g>
</g>
<g>
</g>
<g>
</g>
<g>
</g>
<g>
</g>
<g>
</g>
<g>
</g>
<g>
</g>
<g>
</g>
<g>
</g>
<g>
</g>
<g>
</g>
<g>
</g>
</svg>
