<svg id="color" enable-background="new 0 0 24 24" height="512" viewBox="0 0 24 24" width="512" xmlns="http://www.w3.org/2000/svg"><path d="m21.25 24h-18.5c-1.517 0-2.75-1.233-2.75-2.75v-18.5c0-1.517 1.233-2.75 2.75-2.75h18.5c1.517 0 2.75 1.233 2.75 2.75v18.5c0 1.517-1.233 2.75-2.75 2.75z" fill="#2196f3"/><path d="m19.356 8.059c-.397-.219-.883-.208-1.269.033l-2.087 1.305v-.147c0-1.241-1.01-2.25-2.25-2.25h-7.5c-1.24 0-2.25 1.009-2.25 2.25v5.5c0 1.241 1.01 2.25 2.25 2.25h7.5c1.24 0 2.25-1.009 2.25-2.25v-.147l2.088 1.305c.202.126.433.189.662.189.209 0 .418-.052.606-.156.396-.22.644-.64.644-1.094v-5.695c0-.454-.247-.873-.644-1.093z" fill="#fafafa"/></svg>