<svg id="color" enable-background="new 0 0 24 24" height="512" viewBox="0 0 24 24" width="512" xmlns="http://www.w3.org/2000/svg"><g fill="#cfd8dc"><path d="m17.25 24c-.552 0-1-.448-1-1v-1h-8.5v1c0 .552-.448 1-1 1s-1-.448-1-1v-1c0-1.103.897-2 2-2h8.5c1.103 0 2 .897 2 2v1c0 .552-.448 1-1 1z"/><path d="m12 15.125c-.552 0-1-.448-1-1v-2.5c0-.552.448-1 1-1s1 .448 1 1v2.5c0 .552-.448 1-1 1z"/><path d="m12 21.5c-.552 0-1-.448-1-1v-3c0-.552.448-1 1-1s1 .448 1 1v3c0 .552-.448 1-1 1z"/></g><path d="m17.25 18h-10.5c-.965 0-1.75-.785-1.75-1.75 0-1.517 1.233-2.75 2.75-2.75h8.5c1.517 0 2.75 1.233 2.75 2.75 0 .965-.785 1.75-1.75 1.75z" fill="#03a9f4"/><path d="m15.833 12h-7.666c-.822 0-1.595-.363-2.119-.997-.524-.633-.736-1.46-.583-2.268l1.238-6.5c.247-1.295 1.383-2.235 2.702-2.235h5.19c1.318 0 2.455.94 2.701 2.236l1.238 6.5c.154.807-.059 1.634-.583 2.267-.523.634-1.296.997-2.118.997z" fill="#039be5"/></svg>