<svg id="color" enable-background="new 0 0 24 24" height="512" viewBox="0 0 24 24" width="512" xmlns="http://www.w3.org/2000/svg"><path d="m12.75 18c-.074 0-.149-.011-.223-.034-.313-.097-.527-.387-.527-.716v-3.25h-6.25c-.414 0-.75-.336-.75-.75v-11.5c0-.965.785-1.75 1.75-1.75h15.5c.965 0 1.75.785 1.75 1.75v10.5c0 .965-.785 1.75-1.75 1.75h-6.355l-2.526 3.675c-.143.207-.377.325-.619.325z" fill="#2196f3"/><circle cx="5.5" cy="14.5" fill="#4caf50" r="3"/><path d="m8.25 19h-5.5c-1.517 0-2.75 1.233-2.75 2.75v1.5c0 .414.336.75.75.75h9.5c.414 0 .75-.336.75-.75v-1.5c0-1.517-1.233-2.75-2.75-2.75z" fill="#4caf50"/><path d="m9.75 10c-.201 0-.4-.08-.548-.238-.283-.303-.266-.777.037-1.06l3.75-3.5c.276-.259.702-.271.992-.028l2.424 2.02 3.27-3.924c.266-.319.738-.36 1.056-.096.318.265.361.738.096 1.056l-3.75 4.5c-.266.318-.738.361-1.056.096l-2.493-2.076-3.267 3.049c-.144.134-.327.201-.511.201z" fill="#fafafa"/></svg>