<svg height="512pt" viewBox="-85 0 512 512" width="512pt" xmlns="http://www.w3.org/2000/svg"><path d="m213.332031 96c0 53.019531-42.980469 96-96 96s-96-42.980469-96-96 42.980469-96 96-96 96 42.980469 96 96zm0 0" fill="#4caf50"/><path d="m341.332031 266.667969v138.664062c0 58.882813-47.785156 106.667969-106.664062 106.667969h-102.1875c-50.347657 0-132.695313-37.332031-132.480469-150.398438 0-34.5625 30.933594-62.292968 64-62.933593h1.066406c13.652344 0 20.265625 10.664062 20.265625 10.664062v-192c0-17.707031 14.296875-32 32-32 8.320313 0 15.789063 3.203125 21.335938 8.320313 6.613281 5.761718 10.664062 14.292968 10.664062 23.679687v106.667969c0-9.386719 4.054688-17.921875 10.667969-23.679688 5.546875-5.121093 13.015625-8.320312 21.332031-8.320312 8.320313 0 15.789063 3.199219 21.335938 8.320312 6.613281 5.757813 10.664062 14.292969 10.664062 23.679688v21.332031c0-9.386719 4.054688-17.917969 10.667969-23.679687 5.546875-5.117188 13.015625-8.320313 21.332031-8.320313 8.320313 0 15.789063 3.203125 21.335938 8.320313 6.613281 5.761718 10.664062 14.292968 10.664062 23.679687v21.335938c0-9.386719 4.054688-17.921875 10.667969-23.679688 5.546875-5.121093 13.015625-8.320312 21.332031-8.320312 17.707031 0 32 14.292969 32 32zm0 0" fill="#ffcc80"/><g fill="#ffa726"><path d="m85.332031 309.332031v42.667969c0 5.972656-4.691406 10.667969-10.664062 10.667969-5.972657 0-10.667969-4.695313-10.667969-10.667969v-53.332031h1.066406c13.652344 0 20.265625 10.664062 20.265625 10.664062zm0 0"/><path d="m288 242.988281v55.679688c-5.972656 0-10.667969-4.695313-10.667969-10.667969v-21.332031c0-9.386719 4.054688-17.921875 10.667969-23.679688zm0 0"/><path d="m224 221.652344v77.015625c-5.972656 0-10.667969-4.695313-10.667969-10.667969v-42.667969c0-9.386719 4.054688-17.917969 10.667969-23.679687zm0 0"/><path d="m160 200.320312v98.347657c-5.972656 0-10.667969-4.695313-10.667969-10.667969v-64c0-9.386719 4.054688-17.921875 10.667969-23.679688zm0 0"/></g></svg>