<?xml version="1.0" encoding="iso-8859-1"?>
<!-- Generator: Adobe Illustrator 19.0.0, SVG Export Plug-In . SVG Version: 6.00 Build 0)  -->
<svg version="1.1" id="Capa_1" xmlns="http://www.w3.org/2000/svg" xmlns:xlink="http://www.w3.org/1999/xlink" x="0px" y="0px"
	 viewBox="0 0 512 512" style="enable-background:new 0 0 512 512;" xml:space="preserve">
<path style="fill:#CFD8DC;" d="M368,256c-8.832,0-16-7.168-16-16v-32c0-8.832,7.168-16,16-16s16,7.168,16,16v32
	C384,248.832,376.832,256,368,256z"/>
<path style="fill:#90A4AE;" d="M432,128H304c-8.832,0-16,7.168-16,16v64c0,8.832,7.168,16,16,16h128c8.832,0,16-7.168,16-16v-64
	C448,135.168,440.832,128,432,128z"/>
<path style="fill:#455A64;" d="M496,160c8.832,0,16-7.168,16-16V80c0-44.096-35.872-80-80-80H16C7.168,0,0,7.168,0,16v480
	c0,8.832,7.168,16,16,16h480c8.832,0,16-7.168,16-16v-32c0-8.832-7.168-16-16-16H192V160H496z"/>
<path style="fill:#FFC107;" d="M464,288h-32H304c-8.832,0-16,7.168-16,16v64c0,44.128,35.872,80,80,80
	c38.656,0,70.944-27.52,78.368-64H464c26.464,0,48-21.536,48-48S490.464,288,464,288z M464,352h-16v-32h16c8.8,0,16,7.2,16,16
	S472.8,352,464,352z"/>
<g>
	<path style="fill:#B0BEC5;" d="M112,224H80c-8.832,0-16-7.168-16-16s7.168-16,16-16h32c8.832,0,16,7.168,16,16S120.832,224,112,224
		z"/>
	<path style="fill:#B0BEC5;" d="M112,288H80c-8.832,0-16-7.168-16-16s7.168-16,16-16h32c8.832,0,16,7.168,16,16S120.832,288,112,288
		z"/>
	<path style="fill:#B0BEC5;" d="M112,352H80c-8.832,0-16-7.168-16-16s7.168-16,16-16h32c8.832,0,16,7.168,16,16S120.832,352,112,352
		z"/>
	<path style="fill:#B0BEC5;" d="M336.64,96c-8.8,0-16.16-7.168-16.16-16s6.976-16,15.84-16h0.32c8.832,0,16,7.168,16,16
		S345.472,96,336.64,96z"/>
	<path style="fill:#B0BEC5;" d="M400.64,96c-8.8,0-16.16-7.168-16.16-16s6.976-16,15.84-16h0.32c8.832,0,16,7.168,16,16
		S409.472,96,400.64,96z"/>
</g>
<g>
</g>
<g>
</g>
<g>
</g>
<g>
</g>
<g>
</g>
<g>
</g>
<g>
</g>
<g>
</g>
<g>
</g>
<g>
</g>
<g>
</g>
<g>
</g>
<g>
</g>
<g>
</g>
<g>
</g>
</svg>
