<?xml version="1.0" encoding="iso-8859-1"?>
<!-- Generator: Adobe Illustrator 19.0.0, SVG Export Plug-In . SVG Version: 6.00 Build 0)  -->
<svg version="1.1" id="Capa_1" xmlns="http://www.w3.org/2000/svg" xmlns:xlink="http://www.w3.org/1999/xlink" x="0px" y="0px"
	 viewBox="0 0 480.008 480.008" style="enable-background:new 0 0 480.008 480.008;" xml:space="preserve">
<path style="fill:#ECEFF1;" d="M336.004,0h-224c-17.632,0-32,14.368-32,32v384c0,17.664,14.368,32,32,32h320
	c17.664,0,32-14.336,32-32V128L336.004,0z"/>
<path style="fill:#CFD8DC;" d="M336.004,0v96c0,17.664,14.336,32,32,32h96L336.004,0z"/>
<path style="fill:#F44336;" d="M148.676,352.288c-1.792-7.136-8.192-12.128-15.552-12.128h-74.24c-7.328,0-13.76,4.992-15.52,12.128
	l-26.88,107.84c-1.504,6.048,0.672,12.448,5.536,16.384c4.864,3.904,11.584,4.576,17.152,1.824l56.832-28.448l56.832,28.448
	c2.272,1.088,4.736,1.664,7.168,1.664c3.552,0,7.104-1.184,9.984-3.488c4.864-3.936,7.04-10.304,5.536-16.384L148.676,352.288z"/>
<circle style="fill:#FFC107;" cx="96.004" cy="304" r="80"/>
<g>
	<path style="fill:#90A4AE;" d="M256.004,128h-96c-8.832,0-16-7.168-16-16s7.168-16,16-16h96c8.832,0,16,7.168,16,16
		S264.836,128,256.004,128z"/>
	<path style="fill:#90A4AE;" d="M384.004,224h-192c-8.832,0-16-7.168-16-16s7.168-16,16-16h192c8.832,0,16,7.168,16,16
		S392.836,224,384.004,224z"/>
	<path style="fill:#90A4AE;" d="M384.004,320h-160c-8.832,0-16-7.168-16-16s7.168-16,16-16h160c8.832,0,16,7.168,16,16
		S392.836,320,384.004,320z"/>
</g>
<g>
</g>
<g>
</g>
<g>
</g>
<g>
</g>
<g>
</g>
<g>
</g>
<g>
</g>
<g>
</g>
<g>
</g>
<g>
</g>
<g>
</g>
<g>
</g>
<g>
</g>
<g>
</g>
<g>
</g>
</svg>
