<svg enable-background="new 0 0 24 24" height="512" viewBox="0 0 24 24" width="512" xmlns="http://www.w3.org/2000/svg"><g fill="#546e7a"><path d="m23.25 12h-2.75c-.414 0-.75-.336-.75-.75v-3c0-.414.336-.75.75-.75h2.75c.414 0 .75.336.75.75v3c0 .414-.336.75-.75.75z"/><path d="m3.75 19c-1.084 0-2-.965-2-2.107 0-.683.315-1.326.845-1.72.254-.19.405-.516.405-.873v-5.55c0-.414.336-.75.75-.75s.75.336.75.75v5.55c0 .827-.377 1.603-1.008 2.075-.152.113-.242.306-.242.518 0 .348.264.607.5.607.275 0 .5-.272.5-.607 0-.414.336-.75.75-.75s.75.336.75.75c0 1.162-.897 2.107-2 2.107z"/><path d="m15.5 5.25c-.414 0-.75-.336-.75-.75v-3.75c0-.414.336-.75.75-.75s.75.336.75.75v3.75c0 .414-.336.75-.75.75z"/></g><path d="m2 7.019c-.295 0-.575-.176-.694-.466-.156-.383.027-.821.41-.978l13.5-5.519c.253-.104.543-.061.756.111l6.5 5.25c.322.26.372.732.111 1.055-.26.323-.73.372-1.055.112l-6.154-4.972-13.09 5.351c-.094.038-.189.056-.284.056z" fill="#90a4ae"/><path d="m23.25 9h-22.5c-.414 0-.75-.336-.75-.75v-1.75c0-.375.276-.692.648-.743l12.75-1.75c.034-.005.068-.007.102-.007h4c.074 0 .147.011.219.033l5.75 1.75c.315.095.531.387.531.717v1.75c0 .414-.336.75-.75.75z" fill="#ffc107"/><g fill="#546e7a"><path d="m17.25 24c-.414 0-.75-.336-.75-.75v-17.75h-2v17.75c0 .414-.336.75-.75.75s-.75-.336-.75-.75v-18.5c0-.414.336-.75.75-.75h3.5c.414 0 .75.336.75.75v18.5c0 .414-.336.75-.75.75z"/><path d="m17.25 22.25c-.208 0-.416-.086-.564-.256l-3.5-4c-.272-.312-.241-.785.07-1.058.312-.272.785-.243 1.059.071l3.5 4c.272.312.241.785-.07 1.058-.143.124-.319.185-.495.185z"/><path d="m17.25 17.75c-.208 0-.416-.086-.564-.256l-3.5-4c-.272-.312-.241-.785.07-1.058.312-.272.785-.243 1.059.071l3.5 4c.272.312.241.785-.07 1.058-.143.124-.319.185-.495.185z"/><path d="m17.25 13.25c-.208 0-.416-.086-.564-.256l-3.5-4c-.272-.312-.241-.785.07-1.058.312-.272.785-.242 1.059.071l3.5 4c.272.312.241.785-.07 1.058-.143.124-.319.185-.495.185z"/><path d="m17.25 8.75c-.208 0-.416-.086-.564-.256l-2.844-3.25c-.272-.312-.241-.785.07-1.058.312-.271.785-.243 1.059.071l2.844 3.25c.272.312.241.785-.07 1.058-.143.124-.319.185-.495.185z"/></g></svg>