<?xml version="1.0" encoding="iso-8859-1"?>
<!-- Generator: Adobe Illustrator 19.0.0, SVG Export Plug-In . SVG Version: 6.00 Build 0)  -->
<svg version="1.1" id="Capa_1" xmlns="http://www.w3.org/2000/svg" xmlns:xlink="http://www.w3.org/1999/xlink" x="0px" y="0px"
	 viewBox="0 0 512 512" style="enable-background:new 0 0 512 512;" xml:space="preserve">
<path style="fill:#FFD54F;" d="M48,447h288c8.8,0,16-7.2,16-16v-64c0-8.8-7.2-16-16-16H48c-8.8,0-16,7.2-16,16v64
	C32,439.8,39.2,447,48,447z"/>
<g>
	<rect x="96" y="351" style="fill:#FFE082;" width="32" height="96"/>
	<rect x="192" y="351" style="fill:#FFE082;" width="32" height="96"/>
</g>
<path style="fill:#FFCA28;" d="M16,351h288c8.8,0,16-7.2,16-16v-64c0-8.8-7.2-16-16-16H16c-8.8,0-16,7.2-16,16v64
	C0,343.8,7.2,351,16,351z"/>
<g>
	<rect x="64" y="255" style="fill:#FFE082;" width="32" height="96"/>
	<rect x="160" y="255" style="fill:#FFE082;" width="32" height="96"/>
</g>
<path style="fill:#FFD54F;" d="M48,255h288c8.8,0,16-7.2,16-16v-64c0-8.8-7.2-16-16-16H48c-8.8,0-16,7.2-16,16v64
	C32,247.8,39.2,255,48,255z"/>
<g>
	<rect x="96" y="159" style="fill:#FFE082;" width="32" height="96"/>
	<rect x="192" y="159" style="fill:#FFE082;" width="32" height="96"/>
</g>
<path style="fill:#FFCA28;" d="M80,159h288c8.8,0,16-7.2,16-16V79c0-8.8-7.2-16-16-16H80c-8.8,0-16,7.2-16,16v64
	C64,151.8,71.2,159,80,159z"/>
<g>
	<rect x="128" y="63" style="fill:#FFE082;" width="32" height="96"/>
	<rect x="224" y="63" style="fill:#FFE082;" width="32" height="96"/>
</g>
<path style="fill:#FFFFFF;" d="M368,127c-97.2,0-176,78.8-176,176c0,59.6,32.1,114.2,77.4,146h67.1c8.8,0,17.8-8.6,17.8-17.4
	L352,367c0-8.8-7.2-16-16-16h-32c8.8,0,16-7.2,16-16v-64c0-8.8-7.2-16-16-16h32c8.8,0,16-7.2,16-16v-64c0-8.8-7.2-16-16-16h32
	c8.8,0,18.2-6.2,18.2-15v-17C380.9,126.5,373.4,127,368,127z"/>
<circle style="fill:#FFC107;" cx="368" cy="303" r="144"/>
<path style="fill:#FAFAFA;" d="M416,327c0-22-21.5-40-48-40c-9.8,0-16-5.2-16-8s6.2-8,16-8c4.9,0,9.2,1.2,12.5,3.4
	c7.4,4.9,17.3,2.9,22.2-4.4c4.9-7.4,2.9-17.3-4.4-22.2c-4.4-2.9-9.2-5.1-14.3-6.6V223c0-8.8-7.2-16-16-16s-16,7.2-16,16v18.5
	c-18.6,5.5-32,20.2-32,37.5c0,22,21.5,40,48,40c9.8,0,16,5.2,16,8s-6.2,8-16,8c-4.9,0-9.2-1.2-12.5-3.4c-7.4-4.8-17.3-2.9-22.2,4.4
	c-4.9,7.4-2.9,17.3,4.4,22.2c4.4,2.9,9.2,5.1,14.3,6.6V383c0,8.8,7.2,16,16,16s16-7.2,16-16v-18.5C402.6,359,416,344.4,416,327z"/>
<g>
</g>
<g>
</g>
<g>
</g>
<g>
</g>
<g>
</g>
<g>
</g>
<g>
</g>
<g>
</g>
<g>
</g>
<g>
</g>
<g>
</g>
<g>
</g>
<g>
</g>
<g>
</g>
<g>
</g>
</svg>
