<?xml version="1.0" encoding="iso-8859-1"?>
<!-- Generator: Adobe Illustrator 19.0.0, SVG Export Plug-In . SVG Version: 6.00 Build 0)  -->
<svg version="1.1" id="Capa_1" xmlns="http://www.w3.org/2000/svg" xmlns:xlink="http://www.w3.org/1999/xlink" x="0px" y="0px"
	 viewBox="0 0 512.714 512.714" style="enable-background:new 0 0 512.714 512.714;" xml:space="preserve">
<path style="fill:#FFC107;" d="M186.238,382.351c-3.482-3.189-8.645-3.709-12.693-1.28l-11.051,6.656
	c-13.009,7.812-29.862,4.005-38.251-8.64c-1.039-1.583-1.925-3.262-2.645-5.013c-2.259-5.399-8.447-7.969-13.867-5.76
	C69.37,383.827,50.849,427.5,66.362,465.861s59.186,56.882,97.547,41.369c38.361-15.513,56.882-59.186,41.369-97.547
	C201.062,399.259,194.555,389.918,186.238,382.351z"/>
<path style="fill:#FFD54F;" d="M136.062,469.349c-5.891,0-10.667-4.776-10.667-10.667v-53.333c0-5.891,4.776-10.667,10.667-10.667
	c5.891,0,10.667,4.776,10.667,10.667v53.333C146.728,464.573,141.953,469.349,136.062,469.349z"/>
<path style="fill:#FFE082;" d="M418.088,129.082l-128-64c-2.661-1.325-5.754-1.48-8.533-0.427l-156.587,58.88
	c-11.283,4.225-20.823,12.113-27.093,22.4l-44.16,73.813c-9.514,15.628-10.32,35.051-2.133,51.413l31.573,62.933l11.307,22.613
	c0.848,1.694,2.092,3.157,3.627,4.267c-0.252,5.558,0.47,11.117,2.133,16.427c0.664,2.411,1.52,4.766,2.56,7.04
	c0.999,2.246,2.214,4.389,3.627,6.4l0.427,0.427c0.458,0.731,1.035,1.379,1.707,1.92c6.076,8.744,15.082,15.025,25.387,17.707
	c4.547,1.467,9.302,2.188,14.08,2.133c8.952,0.061,17.744-2.377,25.387-7.04l73.387-43.947
	c47.416-14.467,87.445-46.627,111.787-89.813c26.176-40.953,47.916-84.576,64.853-130.133
	C425.16,137.034,422.879,131.467,418.088,129.082z M182.355,217.828c11.91,7.13,24.98,12.112,38.613,14.72
	c-6.188,7.646-11.956,15.622-17.28,23.893c-5.033,7.343-9.253,15.212-12.587,23.467c-1.28,0.64-2.773,1.28-4.48,2.133
	c-3.413,1.707-8.107,4.267-14.293,7.893c-2.987,1.707-6.4,3.84-10.24,5.973c-3.749-6.385-9.027-11.737-15.36-15.573
	c-0.213-0.213-0.427-0.213-0.64-0.427c-2.058-10.67-6.508-20.736-13.013-29.44C151.524,243.003,168.283,231.903,182.355,217.828z"/>
<path style="fill:#FFD54F;" d="M121.128,321.508c17.28-11.093,30.72-19.2,40.96-25.6c-3.749-6.385-9.027-11.737-15.36-15.573
	c-9.813,5.973-22.187,13.44-37.12,23.04c-11.619,7.448-20.813,18.124-26.453,30.72l11.307,22.613
	c0.848,1.694,2.092,3.157,3.627,4.267c0.213-2.56,0.64-5.333,1.067-7.893C101.902,340.016,109.831,328.623,121.128,321.508z"/>
<path style="fill:#455A64;" d="M460.286,64.868l-149.333-64c-4.411-1.897-9.545-0.613-12.544,3.136l-42.667,53.333
	c-3.683,4.598-2.942,11.311,1.656,14.994c0.59,0.473,1.23,0.882,1.906,1.22l161.131,80.555c9.918,4.992,21.72,4.458,31.147-1.408
	c9.455-5.799,15.204-16.108,15.168-27.2V74.682C466.753,70.412,464.21,66.551,460.286,64.868z"/>
<g>
</g>
<g>
</g>
<g>
</g>
<g>
</g>
<g>
</g>
<g>
</g>
<g>
</g>
<g>
</g>
<g>
</g>
<g>
</g>
<g>
</g>
<g>
</g>
<g>
</g>
<g>
</g>
<g>
</g>
</svg>
