<?xml version="1.0" encoding="iso-8859-1"?>
<!-- Generator: Adobe Illustrator 19.0.0, SVG Export Plug-In . SVG Version: 6.00 Build 0)  -->
<svg version="1.1" id="Capa_1" xmlns="http://www.w3.org/2000/svg" xmlns:xlink="http://www.w3.org/1999/xlink" x="0px" y="0px"
	 viewBox="0 0 514.652 514.652" style="enable-background:new 0 0 514.652 514.652;" xml:space="preserve">
<path style="fill:#FFC107;" d="M454.566,94.181c-0.435-0.924-1.003-1.779-1.685-2.539c-3.755-4.267-7.744-8.405-11.712-12.352
	C343.539-22.976,181.493-26.734,79.227,70.895s-106.024,259.676-8.395,361.941c2.733,2.863,5.532,5.662,8.395,8.395
	c4.165,4.164,10.917,4.164,15.083,0c19.275-21.476,46.584-34.011,75.435-34.624c21.584-0.628,39.458-16.96,42.027-38.4
	c0.403-2.268,1.644-4.301,3.477-5.696c4.779-3.444,5.862-10.111,2.418-14.89c-0.919-1.276-2.109-2.332-3.484-3.094
	c-46.461-25.542-63.419-83.913-37.877-130.374c25.542-46.461,83.913-63.419,130.374-37.877c8.689,4.777,16.585,10.87,23.407,18.064
	c2.595,2.777,6.471,3.964,10.176,3.115c3.705-0.847,6.68-3.602,7.808-7.232c0.491-1.44,1.463-2.668,2.752-3.477
	c17.005-13.854,38.268-21.419,60.203-21.419c17.646-0.015,33.877-9.66,42.325-25.152
	C461.859,126.137,462.322,108.649,454.566,94.181z"/>
<path style="fill:#795548;" d="M453.201,92.197c-4.048-4.28-10.799-4.468-15.079-0.42c-3.544,3.352-4.362,8.681-1.988,12.942
	c3.984,7.973,3.506,17.449-1.259,24.981c-4.702,8.752-13.81,14.234-23.744,14.293c-26.566,0.057-52.326,9.128-73.067,25.728
	c-4.67,3.303-8.173,8-10.005,13.419c-3.818,9.909-2.56,21.058,3.371,29.867c26.11,39.234,15.472,92.206-23.763,118.317
	c-22.113,14.717-49.819,18.296-74.947,9.683c-10.043-3.655-21.248-2.054-29.867,4.267c-6.174,4.522-10.423,11.2-11.904,18.709
	c-1.003,4.992-5.483,21.333-21.12,21.333c-34.491,0.679-67.201,15.449-90.517,40.875c-4.164,4.165-4.164,10.917,0,15.083
	c100.894,99.046,262.977,97.548,362.023-3.346C534.336,343.193,539.487,193.084,453.201,92.197z"/>
<g>
	<path style="fill:#EC407A;" d="M260.347,457.658c-12.233,0.11-24.389-1.949-35.904-6.08c-5.514-2.074-8.303-8.225-6.229-13.739
		c2.074-5.514,8.225-8.303,13.739-6.229c18.203,6.246,37.961,6.291,56.192,0.128c5.37-2.422,11.687-0.032,14.109,5.338
		s0.032,11.687-5.338,14.109c-0.211,0.095-0.426,0.184-0.643,0.265C284.79,455.745,272.605,457.851,260.347,457.658z"/>
	<path style="fill:#EC407A;" d="M441.531,281.594c-5.891,0.011-10.675-4.757-10.686-10.648c-0.005-2.84,1.123-5.565,3.134-7.571
		c11.285-11.264,4.821-43.712,0-48.939c-3.993-4.27-3.871-10.941,0.277-15.061c4.099-4.062,10.706-4.062,14.805,0
		c7.683,10.438,11.966,22.989,12.267,35.947c2.049,15.456-2.392,31.071-12.267,43.136
		C447.066,280.46,444.358,281.588,441.531,281.594z"/>
</g>
<path style="fill:#4CAF50;" d="M403.643,390.842c-21.228-1.241-41.057-10.994-54.997-27.051c-4.093-4.237-3.976-10.99,0.261-15.083
	c4.134-3.993,10.688-3.993,14.821,0c12.462,16.305,33.424,23.641,53.333,18.667c5.626-1.748,11.603,1.396,13.351,7.021
	c1.748,5.626-1.396,11.603-7.021,13.351c-0.048,0.015-0.095,0.029-0.143,0.043C416.899,389.766,410.293,390.794,403.643,390.842z"/>
<g>
	<circle style="fill:#FAFAFA;" cx="78.865" cy="228.261" r="10.667"/>
	<circle style="fill:#FAFAFA;" cx="185.531" cy="78.927" r="10.667"/>
	<circle style="fill:#FAFAFA;" cx="313.531" cy="100.261" r="10.667"/>
	<circle style="fill:#FAFAFA;" cx="121.531" cy="334.927" r="10.667"/>
</g>
<g>
</g>
<g>
</g>
<g>
</g>
<g>
</g>
<g>
</g>
<g>
</g>
<g>
</g>
<g>
</g>
<g>
</g>
<g>
</g>
<g>
</g>
<g>
</g>
<g>
</g>
<g>
</g>
<g>
</g>
</svg>
