<?xml version="1.0" encoding="iso-8859-1"?>
<!-- Generator: Adobe Illustrator 19.0.0, SVG Export Plug-In . SVG Version: 6.00 Build 0)  -->
<svg version="1.1" id="Capa_1" xmlns="http://www.w3.org/2000/svg" xmlns:xlink="http://www.w3.org/1999/xlink" x="0px" y="0px"
	 viewBox="0 0 507.767 507.767" style="enable-background:new 0 0 507.767 507.767;" xml:space="preserve">
<path style="fill:#FFC107;" d="M497.1,157.883h-128c-5.891,0-10.667-4.776-10.667-10.667c0-5.891,4.776-10.667,10.667-10.667h128
	c5.891,0,10.667,4.776,10.667,10.667C507.767,153.108,502.991,157.883,497.1,157.883z"/>
<g>
	<path style="fill:#455A64;" d="M355.554,111.483l-42.667-10.667c-17.142-4.3-34.524,6.11-38.825,23.251
		c-0.641,2.554-0.964,5.177-0.962,7.81v30.677c0,17.673,14.327,32,32,32c2.632,0,5.254-0.322,7.808-0.96l42.667-10.667
		c14.225-3.579,24.195-16.372,24.192-31.04v-9.344C379.778,127.862,369.795,115.056,355.554,111.483z"/>
	<path style="fill:#455A64;" d="M198.434,435.217H113.1c-41.237,0-74.667-33.429-74.667-74.667v-42.667
		c0-5.891,4.776-10.667,10.667-10.667s10.667,4.776,10.667,10.667v42.667c0,29.455,23.878,53.333,53.333,53.333h85.333
		c5.891,0,10.667,4.776,10.667,10.667C209.1,430.441,204.325,435.217,198.434,435.217z"/>
	<path style="fill:#455A64;" d="M155.767,264.55c-5.891,0-10.667-4.776-10.667-10.667v-42.667c0-5.891,4.776-10.667,10.667-10.667
		s10.667,4.776,10.667,10.667v42.667C166.434,259.775,161.658,264.55,155.767,264.55z"/>
</g>
<path style="fill:#F44336;" d="M241.1,72.55H102.434c-36.043,0.045-66.909,25.831-73.365,61.291L0.524,290.811l0,0
	c-3.169,17.387,8.356,34.051,25.743,37.22c1.903,0.347,3.833,0.52,5.767,0.519H81.1c15.093,0.002,28.136-10.542,31.296-25.301
	l19.797-81.365H241.1c29.455,0,53.333-23.878,53.333-53.333v-42.667C294.434,96.428,270.556,72.55,241.1,72.55z"/>
<g>
	<path style="fill:#FAFAFA;" d="M241.1,136.55h-85.333c-5.891,0-10.667-4.776-10.667-10.667c0-5.891,4.776-10.667,10.667-10.667
		H241.1c5.891,0,10.667,4.776,10.667,10.667C251.767,131.775,246.991,136.55,241.1,136.55z"/>
	<path style="fill:#FAFAFA;" d="M241.1,179.217h-85.333c-5.891,0-10.667-4.776-10.667-10.667s4.776-10.667,10.667-10.667H241.1
		c5.891,0,10.667,4.776,10.667,10.667S246.991,179.217,241.1,179.217z"/>
</g>
<g>
</g>
<g>
</g>
<g>
</g>
<g>
</g>
<g>
</g>
<g>
</g>
<g>
</g>
<g>
</g>
<g>
</g>
<g>
</g>
<g>
</g>
<g>
</g>
<g>
</g>
<g>
</g>
<g>
</g>
</svg>
