<?xml version="1.0" encoding="iso-8859-1"?>
<!-- Generator: Adobe Illustrator 19.0.0, SVG Export Plug-In . SVG Version: 6.00 Build 0)  -->
<svg version="1.1" id="Capa_1" xmlns="http://www.w3.org/2000/svg" xmlns:xlink="http://www.w3.org/1999/xlink" x="0px" y="0px"
	 viewBox="0 0 512.201 512.201" style="enable-background:new 0 0 512.201 512.201;" xml:space="preserve">
<path style="fill:#CFD8DC;" d="M424.517,188.08c-4.825-2.452-10.722-0.903-13.717,3.605c-3.541,5.368-7.608,10.37-12.139,14.933
	L212.485,392.688c-3.362,3.324-4.134,8.464-1.899,12.629c41.161,78.193,137.917,108.214,216.111,67.053
	s108.214-137.917,67.053-216.111C478.298,226.905,454.105,203.08,424.517,188.08z"/>
<path style="fill:#FAFAFA;" d="M458.778,341.317h-160c-5.891,0-10.667-4.776-10.667-10.667c0-5.891,4.776-10.667,10.667-10.667h160
	c5.891,0,10.667,4.776,10.667,10.667C469.445,336.542,464.669,341.317,458.778,341.317z"/>
<path style="fill:#F44336;" d="M413.829,55.557c-45.991-45.57-120.111-45.57-166.101,0L141.061,162.224
	c-4.164,4.165-4.164,10.917,0,15.083l151.04,151.04c4.165,4.164,10.917,4.164,15.083,0L413.85,221.68l0,0
	C459.417,175.676,459.407,101.549,413.829,55.557z"/>
<path style="fill:#EF9A9A;" d="M307.184,313.307l-151.04-151.04c-4.165-4.164-10.917-4.164-15.083,0L34.394,268.933
	c-45.868,45.879-45.858,120.255,0.021,166.123c45.879,45.868,120.255,45.858,166.123-0.021l106.667-106.667
	C311.349,324.199,311.34,317.464,307.184,313.307z"/>
<path style="fill:#FAFAFA;" d="M72.197,407.899c-2.831,0.005-5.548-1.115-7.552-3.115c-29.149-29.157-29.149-76.421,0-105.579
	l66.901-61.717c4.368-3.953,11.113-3.616,15.066,0.752c3.899,4.309,3.632,10.947-0.602,14.928l-66.581,61.397
	c-20.534,20.88-20.391,54.411,0.32,75.115c4.171,4.16,4.179,10.914,0.019,15.085C77.762,406.776,75.037,407.904,72.197,407.899z"/>
<g>
</g>
<g>
</g>
<g>
</g>
<g>
</g>
<g>
</g>
<g>
</g>
<g>
</g>
<g>
</g>
<g>
</g>
<g>
</g>
<g>
</g>
<g>
</g>
<g>
</g>
<g>
</g>
<g>
</g>
</svg>
