<svg id="color" enable-background="new 0 0 24 24" height="512" viewBox="0 0 24 24" width="512" xmlns="http://www.w3.org/2000/svg"><path d="m8.036 23.25c-2.083 0-4.041-.827-5.512-2.327-3.024-3.085-3.024-8.105 0-11.19l7.517-7.669c.831-.847 1.937-1.313 3.114-1.313s2.282.466 3.113 1.313c1.702 1.736 1.702 4.56 0 6.295l-7.9 8.061c-.386.395-1.019.4-1.415.014-.394-.387-.4-1.02-.014-1.415l7.901-8.061c.945-.963.945-2.531 0-3.495-.903-.922-2.467-.921-3.37 0l-7.517 7.669c-2.268 2.313-2.268 6.077 0 8.39 1.092 1.114 2.542 1.728 4.084 1.728s2.992-.613 4.084-1.728l9.916-10.116c.388-.394 1.02-.4 1.415-.014.394.387.4 1.02.014 1.415l-9.916 10.116c-1.473 1.5-3.431 2.327-5.514 2.327z" fill="#607d8b"/></svg>