<svg id="color" enable-background="new 0 0 24 24" height="512" viewBox="0 0 24 24" width="512" xmlns="http://www.w3.org/2000/svg"><path d="m3.91 15.95c-.098 0-.198-.019-.294-.06l-1.5-.64c-1.286-.555-2.116-1.814-2.116-3.21 0-.132.011-.277.023-.41.142-1.124.775-2.069 1.74-2.618.966-.549 2.098-.61 3.106-.17.381.166.554.608.388.988s-.607.552-.987.388c-.572-.249-1.215-.213-1.766.099-.55.313-.911.852-.99 1.478l-.014.245c0 .796.474 1.515 1.207 1.832l1.498.639c.381.163.558.604.396.984-.122.284-.4.455-.691.455z" fill="#cfd8dc"/><path d="m20.09 15.95c-.292 0-.569-.171-.69-.456-.163-.381.015-.822.396-.984l1.5-.64c.731-.315 1.205-1.034 1.205-1.83l-.017-.27c-.077-.602-.438-1.141-.988-1.454s-1.195-.349-1.766-.099c-.381.165-.822-.009-.987-.388-.166-.379.007-.821.387-.987 1.009-.44 2.141-.378 3.106.17s1.598 1.494 1.737 2.593c.016.158.027.303.027.435 0 1.396-.83 2.655-2.113 3.208l-1.502.642c-.097.041-.197.06-.295.06z" fill="#cfd8dc"/><path d="m12 18.999c-2.488 0-4.975-.756-7.446-2.269-.927-.567-1.429-1.619-1.278-2.68l.669-4.696c.12-.838.848-1.469 1.692-1.469h.655c.721 0 1.424-.255 1.978-.719l1.713-1.434c1.129-.944 2.905-.944 4.034 0l1.713 1.434c.554.463 1.256.719 1.978.719h.655c.845 0 1.572.631 1.692 1.469l.669 4.696c.151 1.061-.351 2.113-1.278 2.68-2.47 1.512-4.959 2.269-7.446 2.269z" fill="#607d8b"/><path d="m3.487 8.552c-.593 0-1.184.155-1.724.461-.965.548-1.598 1.494-1.74 2.618-.012.132-.023.277-.023.409 0 1.396.83 2.655 2.116 3.21l1.5.64c.031.013.062.024.094.033-.354-.525-.518-1.165-.441-1.812l-.561-.239c-.734-.317-1.208-1.036-1.208-1.832l.014-.246c.079-.626.44-1.165.99-1.478.308-.175.646-.263.984-.263.118 0 .236.011.353.032l.104-.732c.038-.266.137-.511.282-.721-.244-.053-.492-.08-.74-.08z" fill="#b4bcc0"/><path d="m12 5.024c-.726 0-1.453.236-2.017.708l-1.713 1.434c-.554.463-1.256.719-1.978.719h-.654c-.577 0-1.099.294-1.411.748-.144.21-.244.455-.282.721l-.104.732-.565 3.964c-.003.02-.006.041-.008.061-.077.647.087 1.287.441 1.812.215.319.501.596.844.807 2.471 1.513 4.958 2.269 7.446 2.269v-13.975z" fill="#546d79"/></svg>