<?xml version="1.0" encoding="iso-8859-1"?>
<!-- Generator: Adobe Illustrator 19.0.0, SVG Export Plug-In . SVG Version: 6.00 Build 0)  -->
<svg version="1.1" id="Capa_1" xmlns="http://www.w3.org/2000/svg" xmlns:xlink="http://www.w3.org/1999/xlink" x="0px" y="0px"
	 viewBox="0 0 512.005 512.005" style="enable-background:new 0 0 512.005 512.005;" xml:space="preserve">
<path style="fill:#00796B;" d="M160.002,85.338c-5.891,0-10.667-4.776-10.667-10.667v-64c0-5.891,4.776-10.667,10.667-10.667
	c5.891,0,10.667,4.776,10.667,10.667v64C170.669,80.562,165.893,85.338,160.002,85.338z"/>
<path style="fill:#CFD8DC;" d="M437.336,0.005H288.002c-5.891,0-10.667,4.776-10.667,10.667v32h-32
	c-5.891,0-10.667,4.776-10.667,10.667v42.667c0,5.891,4.776,10.667,10.667,10.667h192c5.891,0,10.667-4.776,10.667-10.667V10.671
	C448.002,4.78,443.227,0.005,437.336,0.005z"/>
<path style="fill:#B0BEC5;" d="M292.077,0.815c-3.985-1.654-8.574-0.745-11.627,2.304l-42.667,42.667
	c-4.171,4.16-4.179,10.914-0.019,15.085c2.006,2.011,4.731,3.139,7.571,3.134h42.667c5.891,0,10.667-4.776,10.667-10.667V10.671
	C298.668,6.355,296.066,2.464,292.077,0.815z"/>
<path style="fill:#455A64;" d="M10.669,85.338h490.667c5.891,0,10.667,4.776,10.667,10.667v384c0,5.891-4.776,10.667-10.667,10.667
	H10.669c-5.891,0-10.667-4.776-10.667-10.667v-384C0.002,90.114,4.778,85.338,10.669,85.338z"/>
<path style="fill:#4DB6AC;" d="M245.336,149.338h192c5.891,0,10.667,4.776,10.667,10.667v64c0,5.891-4.776,10.667-10.667,10.667
	h-192c-5.891,0-10.667-4.776-10.667-10.667v-64C234.669,154.114,239.445,149.338,245.336,149.338z"/>
<path style="fill:#009688;" d="M171.8,202.949l16.832-33.664c2.213-4.448,3.367-9.347,3.371-14.315V96.005c0-17.673-14.327-32-32-32
	h-64c-17.673,0-32,14.327-32,32v58.965c0.004,4.968,1.158,9.867,3.371,14.315l16.832,33.664c0.74,1.477,1.127,3.105,1.131,4.757
	v160.576c0,1.659-0.387,3.295-1.131,4.779l-16.832,33.664c-2.213,4.448-3.367,9.347-3.371,14.315v58.965c0,17.673,14.327,32,32,32
	h64c17.673,0,32-14.327,32-32v-58.965c-0.004-4.968-1.158-9.867-3.371-14.315L171.8,373.061c-0.74-1.477-1.127-3.105-1.131-4.757
	V207.706C170.672,206.054,171.059,204.425,171.8,202.949z"/>
<g>
	<path style="fill:#FAFAFA;" d="M416.002,298.671h21.333c5.891,0,10.667-4.776,10.667-10.667c0-5.891-4.776-10.667-10.667-10.667
		h-21.333c-5.891,0-10.667,4.776-10.667,10.667C405.336,293.896,410.111,298.671,416.002,298.671z"/>
	<path style="fill:#FAFAFA;" d="M266.669,277.338h-21.333c-5.891,0-10.667,4.776-10.667,10.667c0,5.891,4.776,10.667,10.667,10.667
		h21.333c5.891,0,10.667-4.776,10.667-10.667C277.336,282.114,272.56,277.338,266.669,277.338z"/>
	<path style="fill:#FAFAFA;" d="M352.002,277.338h-21.333c-5.891,0-10.667,4.776-10.667,10.667c0,5.891,4.776,10.667,10.667,10.667
		h21.333c5.891,0,10.667-4.776,10.667-10.667C362.669,282.114,357.893,277.338,352.002,277.338z"/>
	<path style="fill:#FAFAFA;" d="M266.669,341.338h-21.333c-5.891,0-10.667,4.776-10.667,10.667c0,5.891,4.776,10.667,10.667,10.667
		h21.333c5.891,0,10.667-4.776,10.667-10.667C277.336,346.114,272.56,341.338,266.669,341.338z"/>
	<path style="fill:#FAFAFA;" d="M352.002,341.338h-21.333c-5.891,0-10.667,4.776-10.667,10.667c0,5.891,4.776,10.667,10.667,10.667
		h21.333c5.891,0,10.667-4.776,10.667-10.667C362.669,346.114,357.893,341.338,352.002,341.338z"/>
	<path style="fill:#FAFAFA;" d="M437.336,341.338h-21.333c-5.891,0-10.667,4.776-10.667,10.667c0,5.891,4.776,10.667,10.667,10.667
		h21.333c5.891,0,10.667-4.776,10.667-10.667C448.002,346.114,443.227,341.338,437.336,341.338z"/>
	<path style="fill:#FAFAFA;" d="M266.669,405.338h-21.333c-5.891,0-10.667,4.776-10.667,10.667c0,5.891,4.776,10.667,10.667,10.667
		h21.333c5.891,0,10.667-4.776,10.667-10.667C277.336,410.114,272.56,405.338,266.669,405.338z"/>
	<path style="fill:#FAFAFA;" d="M352.002,405.338h-21.333c-5.891,0-10.667,4.776-10.667,10.667c0,5.891,4.776,10.667,10.667,10.667
		h21.333c5.891,0,10.667-4.776,10.667-10.667C362.669,410.114,357.893,405.338,352.002,405.338z"/>
	<path style="fill:#FAFAFA;" d="M437.336,405.338h-21.333c-5.891,0-10.667,4.776-10.667,10.667c0,5.891,4.776,10.667,10.667,10.667
		h21.333c5.891,0,10.667-4.776,10.667-10.667C448.002,410.114,443.227,405.338,437.336,405.338z"/>
</g>
<g>
</g>
<g>
</g>
<g>
</g>
<g>
</g>
<g>
</g>
<g>
</g>
<g>
</g>
<g>
</g>
<g>
</g>
<g>
</g>
<g>
</g>
<g>
</g>
<g>
</g>
<g>
</g>
<g>
</g>
</svg>
