<?xml version="1.0" encoding="UTF-8" standalone="no"?>
<!-- Generator: Adobe Illustrator 19.0.0, SVG Export Plug-In . SVG Version: 6.00 Build 0)  -->

<svg
   xmlns:dc="http://purl.org/dc/elements/1.1/"
   xmlns:cc="http://creativecommons.org/ns#"
   xmlns:rdf="http://www.w3.org/1999/02/22-rdf-syntax-ns#"
   xmlns:svg="http://www.w3.org/2000/svg"
   xmlns="http://www.w3.org/2000/svg"
   xmlns:sodipodi="http://sodipodi.sourceforge.net/DTD/sodipodi-0.dtd"
   xmlns:inkscape="http://www.inkscape.org/namespaces/inkscape"
   version="1.1"
   id="Capa_1"
   x="0px"
   y="0px"
   viewBox="0 0 512.019 512.019"
   style="enable-background:new 0 0 512.019 512.019;"
   xml:space="preserve"
   sodipodi:docname="files-and-folders.svg"
   inkscape:version="0.92.2 5c3e80d, 2017-08-06"><metadata
     id="metadata49"><rdf:RDF><cc:Work
         rdf:about=""><dc:format>image/svg+xml</dc:format><dc:type
           rdf:resource="http://purl.org/dc/dcmitype/StillImage" /></cc:Work></rdf:RDF></metadata><defs
     id="defs47" /><sodipodi:namedview
     pagecolor="#ffffff"
     bordercolor="#666666"
     borderopacity="1"
     objecttolerance="10"
     gridtolerance="10"
     guidetolerance="10"
     inkscape:pageopacity="0"
     inkscape:pageshadow="2"
     inkscape:window-width="723"
     inkscape:window-height="480"
     id="namedview45"
     showgrid="false"
     inkscape:zoom="0.46092041"
     inkscape:cx="256.00949"
     inkscape:cy="256.00949"
     inkscape:window-x="0"
     inkscape:window-y="0"
     inkscape:window-maximized="0"
     inkscape:current-layer="Capa_1" /><circle
     style="fill:#dc5555;fill-opacity:1"
     cx="394.686"
     cy="394.679"
     r="117.333"
     id="circle2" /><g
     id="g8"><path
       style="fill:#FAFAFA;"
       d="M394.686,426.679c-5.891,0-10.667-4.776-10.667-10.667v-85.333c0-5.891,4.776-10.667,10.667-10.667   c5.891,0,10.667,4.776,10.667,10.667v85.333C405.352,421.903,400.577,426.679,394.686,426.679z"
       id="path4" /><path
       style="fill:#FAFAFA;"
       d="M394.686,469.345c-5.834-0.135-10.531-4.833-10.667-10.667c-0.028-1.398,0.264-2.785,0.853-4.053   c0.444-1.331,1.249-2.513,2.325-3.413c4.148-4.066,10.786-4.066,14.933,0c1.076,0.905,1.887,2.085,2.347,3.413   c0.589,1.269,0.881,2.655,0.853,4.053c-0.157,5.825-4.842,10.51-10.667,10.667H394.686z"
       id="path6" /></g><path
     style="fill:#CFD8DC;"
     d="M256.019,394.679c0.119-64.185,44.226-119.919,106.667-134.784V10.679  c0-5.891-4.776-10.667-10.667-10.667H138.686c-5.891,0-10.667,4.776-10.667,10.667v117.333H10.686  c-5.891,0-10.667,4.776-10.667,10.667v320c0,5.891,4.776,10.667,10.667,10.667h267.349  C263.667,447.092,256.023,421.167,256.019,394.679z"
     id="path10" /><path
     style="fill:#B0BEC5;"
     d="M142.76,0.823c-3.985-1.654-8.574-0.745-11.627,2.304l-128,128  c-4.171,4.16-4.179,10.914-0.019,15.085c2.006,2.011,4.731,3.139,7.571,3.134h128c5.891,0,10.667-4.776,10.667-10.667v-128  C149.352,6.362,146.75,2.471,142.76,0.823z"
     id="path12" /><g
     id="g14" /><g
     id="g16" /><g
     id="g18" /><g
     id="g20" /><g
     id="g22" /><g
     id="g24" /><g
     id="g26" /><g
     id="g28" /><g
     id="g30" /><g
     id="g32" /><g
     id="g34" /><g
     id="g36" /><g
     id="g38" /><g
     id="g40" /><g
     id="g42" /></svg>