<?xml version="1.0" encoding="iso-8859-1"?>
<!-- Generator: Adobe Illustrator 19.0.0, SVG Export Plug-In . SVG Version: 6.00 Build 0)  -->
<svg version="1.1" id="Capa_1" xmlns="http://www.w3.org/2000/svg" xmlns:xlink="http://www.w3.org/1999/xlink" x="0px" y="0px"
	 viewBox="0 0 512 512" style="enable-background:new 0 0 512 512;" xml:space="preserve">
<path style="fill:#FFC107;" d="M472.928,34.752c-4.416-3.008-10.016-3.552-14.944-1.6c-1.024,0.416-106.88,42.048-195.168,0.384
	C161.664-14.24,46.848,31.2,42.016,33.184C35.968,35.616,32,41.472,32,48v256c0,5.312,2.656,10.272,7.04,13.248
	c4.384,2.976,9.984,3.552,14.944,1.6c1.056-0.448,106.848-42.08,195.2-0.384c34.592,16.352,70.784,21.792,103.648,21.792
	c63.2,0,114.016-20.128,117.184-21.408c6.016-2.464,9.984-8.32,9.984-14.848V48C480,42.688,477.344,37.728,472.928,34.752z"/>
<path style="fill:#455A64;" d="M48,512c-8.832,0-16-7.168-16-16V16c0-8.832,7.168-16,16-16s16,7.168,16,16v480
	C64,504.832,56.832,512,48,512z"/>
<g>
</g>
<g>
</g>
<g>
</g>
<g>
</g>
<g>
</g>
<g>
</g>
<g>
</g>
<g>
</g>
<g>
</g>
<g>
</g>
<g>
</g>
<g>
</g>
<g>
</g>
<g>
</g>
<g>
</g>
</svg>
