<?xml version="1.0" encoding="iso-8859-1"?>
<!-- Generator: Adobe Illustrator 19.0.0, SVG Export Plug-In . SVG Version: 6.00 Build 0)  -->
<svg version="1.1" id="Capa_1" xmlns="http://www.w3.org/2000/svg" xmlns:xlink="http://www.w3.org/1999/xlink" x="0px" y="0px"
	 viewBox="0 0 512 512" style="enable-background:new 0 0 512 512;" xml:space="preserve">
<g>
	<path style="fill:#90A4AE;" d="M458.667,448c-3.357,0-6.519-1.581-8.533-4.267l-60.8-81.067H122.667l-60.8,81.067
		c-3.535,4.713-10.221,5.668-14.933,2.133s-5.668-10.221-2.133-14.933l0,0l64-85.333c2.014-2.686,5.176-4.267,8.533-4.267h277.333
		c3.357,0,6.519,1.581,8.533,4.267l64,85.333c3.535,4.713,2.579,11.399-2.133,14.933C463.22,447.251,460.975,448,458.667,448
		L458.667,448z"/>
	<path style="fill:#90A4AE;" d="M117.333,362.666c-5.891,0-10.667-4.776-10.667-10.667c0-143.147-17.941-184.192-60.885-227.115
		c-4.093-4.237-3.975-10.99,0.262-15.083c4.134-3.992,10.687-3.992,14.82,0C107.285,156.202,128,202.197,128,352
		C128,357.891,123.224,362.666,117.333,362.666z"/>
	<path style="fill:#90A4AE;" d="M394.667,362.666c-5.891,0-10.667-4.776-10.667-10.667c0-149.803,20.715-195.797,67.115-242.219
		c4.093-4.237,10.845-4.354,15.083-0.262c4.237,4.093,4.354,10.845,0.262,15.083c-0.086,0.089-0.173,0.176-0.262,0.262
		c-42.923,42.944-60.864,83.989-60.864,227.136C405.333,357.891,400.558,362.666,394.667,362.666z"/>
</g>
<path style="fill:#546E7A;" d="M501.333,64H10.667C4.776,64,0,68.775,0,74.666v362.667C0,443.224,4.776,448,10.667,448h42.667
	C59.224,448,64,443.224,64,437.333V128h384v309.333c0,5.891,4.776,10.667,10.667,10.667h42.667c5.891,0,10.667-4.776,10.667-10.667
	V74.666C512,68.775,507.224,64,501.333,64z"/>
<g>
</g>
<g>
</g>
<g>
</g>
<g>
</g>
<g>
</g>
<g>
</g>
<g>
</g>
<g>
</g>
<g>
</g>
<g>
</g>
<g>
</g>
<g>
</g>
<g>
</g>
<g>
</g>
<g>
</g>
</svg>
