<?xml version="1.0" encoding="iso-8859-1"?>
<!-- Generator: Adobe Illustrator 19.0.0, SVG Export Plug-In . SVG Version: 6.00 Build 0)  -->
<svg version="1.1" id="Capa_1" xmlns="http://www.w3.org/2000/svg" xmlns:xlink="http://www.w3.org/1999/xlink" x="0px" y="0px"
	 viewBox="0 0 512 512" style="enable-background:new 0 0 512 512;" xml:space="preserve">
<g>
	<path style="fill:#607D8B;" d="M368,192c-8.832,0-16-7.168-16-16V16c0-8.832,7.168-16,16-16s16,7.168,16,16v160
		C384,184.832,376.832,192,368,192z"/>
	<path style="fill:#607D8B;" d="M144,256c-8.832,0-16-7.168-16-16V16c0-8.832,7.168-16,16-16s16,7.168,16,16v224
		C160,248.832,152.832,256,144,256z"/>
</g>
<path style="fill:#FFD54F;" d="M368,448c-79.392,0-144-64.608-144-144s64.608-144,144-144s144,64.608,144,144S447.392,448,368,448z
	 M368,224c-44.128,0-80,35.904-80,80c0,44.128,35.872,80,80,80s80-35.872,80-80C448,259.904,412.128,224,368,224z"/>
<path style="fill:#FFC107;" d="M144,512C64.608,512,0,447.392,0,368s64.608-144,144-144s144,64.608,144,144S223.392,512,144,512z
	 M144,288c-44.096,0-80,35.872-80,80s35.904,80,80,80s80-35.872,80-80S188.096,288,144,288z"/>
<g>
</g>
<g>
</g>
<g>
</g>
<g>
</g>
<g>
</g>
<g>
</g>
<g>
</g>
<g>
</g>
<g>
</g>
<g>
</g>
<g>
</g>
<g>
</g>
<g>
</g>
<g>
</g>
<g>
</g>
</svg>
