<svg id="color" enable-background="new 0 0 24 24" height="512" viewBox="0 0 24 24" width="512" xmlns="http://www.w3.org/2000/svg"><path d="m21.51 3.471-9.25-3.424c-.168-.062-.353-.062-.521 0l-9.249 3.424c-.295.108-.49.389-.49.703v8.001c0 9.103 9.71 11.774 9.808 11.8.063.016.128.025.192.025s.129-.009.192-.025c.098-.026 9.808-2.698 9.808-11.8v-8.001c0-.314-.195-.595-.49-.703z" fill="#2196f3"/><path d="m17.022 12.529-4.477 4.736c-.142.15-.339.235-.545.235s-.403-.085-.545-.234l-4.477-4.736c-1.298-1.372-1.298-3.605 0-4.978 1.281-1.355 3.538-1.356 4.821 0l.201.213.201-.213c1.282-1.356 3.539-1.355 4.821 0 1.298 1.372 1.298 3.605 0 4.977z" fill="#fafafa"/></svg>