<?xml version="1.0" encoding="iso-8859-1"?>
<!-- Generator: Adobe Illustrator 19.0.0, SVG Export Plug-In . SVG Version: 6.00 Build 0)  -->
<svg version="1.1" id="Capa_1" xmlns="http://www.w3.org/2000/svg" xmlns:xlink="http://www.w3.org/1999/xlink" x="0px" y="0px"
	 viewBox="0 0 511.968 511.968" style="enable-background:new 0 0 511.968 511.968;" xml:space="preserve">
<path style="fill:#607D8B;" d="M351.984,192h-192c-8.832,0-16-7.168-16-16v-32c0-8.832,7.168-16,16-16h192c8.832,0,16,7.168,16,16
	v32C367.984,184.832,360.816,192,351.984,192z"/>
<path style="fill:#ECEFF1;" d="M351.984,192h-192c-26.464,0-48,21.536-48,48v223.968c0,26.464,21.536,48,48,48h192
	c26.464,0,48-21.536,48-48V240C399.984,213.536,378.448,192,351.984,192z"/>
<path style="fill:#FFE082;" d="M287.984,70.72V32c0-17.6-14.4-32-32-32s-32,14.4-32,32v38.72c-24,9.92-42.24,31.04-48,57.28h160
	C330.224,101.76,311.984,80.64,287.984,70.72z"/>
<g>
</g>
<g>
</g>
<g>
</g>
<g>
</g>
<g>
</g>
<g>
</g>
<g>
</g>
<g>
</g>
<g>
</g>
<g>
</g>
<g>
</g>
<g>
</g>
<g>
</g>
<g>
</g>
<g>
</g>
</svg>
