<?xml version="1.0" encoding="iso-8859-1"?>
<!-- Generator: Adobe Illustrator 19.0.0, SVG Export Plug-In . SVG Version: 6.00 Build 0)  -->
<svg version="1.1" id="Capa_1" xmlns="http://www.w3.org/2000/svg" xmlns:xlink="http://www.w3.org/1999/xlink" x="0px" y="0px"
	 viewBox="0 0 512.108 512.108" style="enable-background:new 0 0 512.108 512.108;" xml:space="preserve">
<g>
	<path style="fill:#4CAF50;" d="M470.101,425.803c13.378-22.28,20.483-47.762,20.565-73.749
		c0-61.141-122.347-204.587-136.299-220.736c-1.703-2.04-4.213-3.232-6.869-3.264h-76.331c-2.657,0.032-5.167,1.224-6.869,3.264
		C250.347,147.467,128,290.913,128,352.054c0.082,25.987,7.188,51.469,20.565,73.749H470.101z"/>
	<path style="fill:#4CAF50;" d="M445.333,14.326c-17.771-20.096-64,6.272-90.539,24.128c-12.16-17.28-30.165-38.4-45.461-38.4
		s-33.301,21.12-45.461,38.4c-26.475-17.877-72.789-44.245-90.539-24.128c-4.92,5.673-7.241,13.146-6.4,20.608
		c3.435,39.509,83.861,104.811,93.013,112.107c1.905,1.529,4.277,2.357,6.72,2.347H352c2.418,0.002,4.765-0.818,6.656-2.325
		c9.152-7.317,89.6-72.533,93.013-112.107C452.542,27.495,450.244,20.01,445.333,14.326z"/>
</g>
<path style="fill:#388E3C;" d="M394.667,149.387H224c-5.891,0-10.667-4.776-10.667-10.667c0-5.891,4.776-10.667,10.667-10.667
	h170.667c5.891,0,10.667,4.776,10.667,10.667C405.333,144.612,400.558,149.387,394.667,149.387z"/>
<path style="fill:#FAFAFA;" d="M320,301.259v-43.499c11.755,2.859,20.651,10.197,21.333,18.859
	c0.495,5.891,5.672,10.266,11.563,9.771c5.891-0.495,10.266-5.672,9.771-11.563c-3.546-21.255-21.175-37.324-42.667-38.891v-11.499
	c0-5.891-4.776-10.667-10.667-10.667s-10.667,4.776-10.667,10.667v11.541c-22.489,1.71-40.492,19.343-42.667,41.792
	c0,19.989,13.995,33.472,42.667,40.533v23.467c0,5.891,4.776,10.667,10.667,10.667S320,347.662,320,341.771v-18.496
	c14.229,4.096,21.333,10.027,21.333,18.496c-0.292,5.216-2.877,10.035-7.061,13.163c-4.518,3.782-5.115,10.511-1.333,15.029
	s10.511,5.115,15.029,1.333c9.092-7.129,14.49-17.973,14.699-29.525C362.667,321.782,348.693,308.321,320,301.259z M277.333,277.793
	c0-9.067,9.067-16.96,21.333-19.968v38.4c-14.229-4.053-21.333-9.984-21.333-18.453V277.793z"/>
<path style="fill:#FFE082;" d="M510.869,411.958c-14.596-29.5-47.825-44.786-79.723-36.672l-69.013,17.259
	c-3.072-26.688-18.923-42.347-50.475-50.219l-192-42.667c-5.649-1.26-11.271,2.214-12.672,7.829l-32,128
	c-1.408,5.438,1.643,11.036,6.976,12.8l159.595,53.099c13.971,6.301,29.002,9.92,44.309,10.667
	c21.632,0,46.933-9.451,102.656-32.277l117.333-53.333c5.362-2.44,7.731-8.764,5.291-14.126c-0.055-0.121-0.112-0.24-0.171-0.359
	L510.869,411.958z"/>
<path style="fill:#455A64;" d="M128,289.654c0.288-3.244-0.922-6.442-3.285-8.683c-18.283-17.323-91.392-22.933-113.365-24.235
	c-2.924-0.142-5.784,0.895-7.936,2.88c-2.168,2.01-3.404,4.83-3.413,7.787v192c0,5.891,4.776,10.667,10.667,10.667h64
	c4.622,0.006,8.722-2.966,10.155-7.36C103.804,406.268,118.243,348.398,128,289.654z"/>
<path style="fill:#FFCA28;" d="M307.733,425.803c-4.899,0.005-9.787-0.474-14.592-1.429l-82.112-16.427
	c-5.773-1.178-9.498-6.813-8.32-12.587c1.178-5.773,6.813-9.498,12.587-8.32l82.091,16.427c7.768,1.536,15.78,1.347,23.467-0.555
	l41.557-10.389c2.848,11.428-4.104,23.002-15.531,25.856l-20.885,5.227C320.022,425.093,313.888,425.831,307.733,425.803z"/>
<g>
</g>
<g>
</g>
<g>
</g>
<g>
</g>
<g>
</g>
<g>
</g>
<g>
</g>
<g>
</g>
<g>
</g>
<g>
</g>
<g>
</g>
<g>
</g>
<g>
</g>
<g>
</g>
<g>
</g>
</svg>
