<svg height="512pt" viewBox="0 0 512.00109 512" width="512pt" xmlns="http://www.w3.org/2000/svg"><path d="m298.667969 426.667969c0 47.128906-38.207031 85.332031-85.335938 85.332031-47.128906 0-85.332031-38.203125-85.332031-85.332031 0-47.128907 38.203125-85.335938 85.332031-85.335938 47.128907 0 85.335938 38.207031 85.335938 85.335938zm0 0" fill="#ffa000"/><path d="m365.207031 277.332031h-71.875c-21.929687 0-41.855469-12.074219-52.007812-31.507812-10.15625-19.285157-8.707031-42.558594 3.796875-60.566407l33.511718-48.445312c-25.234374-6.550781-43.964843-29.527344-43.964843-56.8125 0-12.585938 4.050781-24.191406 10.835937-33.75-10.390625-2.28125-21.121094-3.582031-32.171875-3.582031-82.34375 0-149.332031 66.984375-149.332031 149.332031v59.476562c0 42.21875-18.496094 82.070313-50.945312 109.503907-8.296876 7.085937-13.054688 17.429687-13.054688 28.351562 0 20.589844 16.746094 37.335938 37.332031 37.335938h352c20.589844 0 37.335938-16.746094 37.335938-37.335938 0-10.921875-4.757813-21.265625-13.269531-28.542969-25.535157-21.589843-42.261719-51.136718-48.191407-83.457031zm0 0" fill="#ffc107"/><g fill="#2196f3"><path d="m389.332031 234.667969h-96c-5.949219 0-11.410156-3.308594-14.164062-8.578125-2.773438-5.269532-2.367188-11.625 1.023437-16.511719l78.59375-113.578125h-65.453125c-8.832031 0-16-7.167969-16-16s7.167969-16 16-16h96c5.953125 0 11.414063 3.308594 14.167969 8.578125 2.773438 5.269531 2.367188 11.625-1.023438 16.511719l-78.59375 113.578125h65.449219c8.832031 0 16 7.167969 16 16s-7.167969 16-16 16zm0 0"/><path d="m496 106.667969h-53.332031c-5.996094 0-11.480469-3.351563-14.230469-8.683594-2.753906-5.3125-2.261719-11.734375 1.214844-16.597656l35.265625-49.386719h-22.25c-8.832031 0-16-7.167969-16-16s7.167969-16 16-16h53.332031c5.996094 0 11.476562 3.351562 14.230469 8.683594 2.75 5.3125 2.261719 11.734375-1.21875 16.597656l-35.261719 49.386719h22.25c8.832031 0 16 7.167969 16 16s-7.167969 16-16 16zm0 0"/></g></svg>