<?xml version="1.0" encoding="iso-8859-1"?>
<!-- Generator: Adobe Illustrator 19.0.0, SVG Export Plug-In . SVG Version: 6.00 Build 0)  -->
<svg version="1.1" id="Capa_1" xmlns="http://www.w3.org/2000/svg" xmlns:xlink="http://www.w3.org/1999/xlink" x="0px" y="0px"
	 viewBox="0 0 490.667 490.667" style="enable-background:new 0 0 490.667 490.667;" xml:space="preserve">
<path style="fill:#FFCC80;" d="M405.333,85.333c-17.673,0-32,14.327-32,32V74.667c0-17.673-14.327-32-32-32
	c-17.673,0-32,14.327-32,32V32c0-17.673-14.327-32-32-32c-17.673,0-32,14.327-32,32v42.667c0-17.673-14.327-32-32-32
	s-32,14.327-32,32v224l-74.069-37.035c-7.405-3.703-15.571-5.631-23.851-5.632c-16.613,0-30.08,13.467-30.08,30.08v0.128
	c-0.017,8,3.154,15.677,8.811,21.333l137.941,137.941c28.983,28.954,68.281,45.207,109.248,45.184l0,0c70.692,0,128-57.308,128-128
	V117.333C437.333,99.66,423.007,85.333,405.333,85.333z"/>
<g>
	<path style="fill:#FFB74D;" d="M245.333,224c5.891,0,10.667-4.776,10.667-10.667V8.32c-6.818,5.976-10.709,14.614-10.667,23.68V224
		z"/>
	<path style="fill:#FFB74D;" d="M309.333,224c5.891,0,10.667-4.776,10.667-10.667V50.987c-6.818,5.976-10.709,14.614-10.667,23.68
		V224z"/>
	<path style="fill:#FFB74D;" d="M373.333,117.333V224c5.891,0,10.667-4.776,10.667-10.667V93.653
		C377.183,99.629,373.291,108.268,373.333,117.333z"/>
</g>
<g>
</g>
<g>
</g>
<g>
</g>
<g>
</g>
<g>
</g>
<g>
</g>
<g>
</g>
<g>
</g>
<g>
</g>
<g>
</g>
<g>
</g>
<g>
</g>
<g>
</g>
<g>
</g>
<g>
</g>
</svg>
