<?xml version="1.0" encoding="iso-8859-1"?>
<!-- Generator: Adobe Illustrator 19.0.0, SVG Export Plug-In . SVG Version: 6.00 Build 0)  -->
<svg version="1.1" id="Capa_1" xmlns="http://www.w3.org/2000/svg" xmlns:xlink="http://www.w3.org/1999/xlink" x="0px" y="0px"
	 viewBox="0 0 512 512" style="enable-background:new 0 0 512 512;" xml:space="preserve">
<g>
	<path style="fill:#B0BEC5;" d="M144,400H80c-8.832,0-16,7.168-16,16v64c0,8.832,7.168,16,16,16h64c8.832,0,16-7.168,16-16v-64
		C160,407.168,152.832,400,144,400z"/>
	<path style="fill:#B0BEC5;" d="M432,400h-64c-8.832,0-16,7.168-16,16v64c0,8.832,7.168,16,16,16h64c8.832,0,16-7.168,16-16v-64
		C448,407.168,440.832,400,432,400z"/>
</g>
<path style="fill:#ECEFF1;" d="M480,16H32C14.368,16,0,30.368,0,48v352c0,17.664,14.368,32,32,32h448c17.664,0,32-14.336,32-32V48
	C512,30.368,497.664,16,480,16z"/>
<path style="fill:#455A64;" d="M400,176H112c-8.832,0-16,7.168-16,16v160c0,8.832,7.168,16,16,16h288c8.832,0,16-7.168,16-16V192
	C416,183.168,408.832,176,400,176L400,176z"/>
<polyline style="fill:#607D8B;" points="384,208 384,336 128,336 128,208 384,208 "/>
<path style="fill:#CFD8DC;" d="M480,16H32C14.368,16,0,30.368,0,48v64h512V48C512,30.368,497.664,16,480,16z"/>
<g>
	<circle style="fill:#607D8B;" cx="112" cy="64" r="16"/>
	<circle style="fill:#607D8B;" cx="176" cy="64" r="16"/>
	<circle style="fill:#607D8B;" cx="240" cy="64" r="16"/>
</g>
<g>
</g>
<g>
</g>
<g>
</g>
<g>
</g>
<g>
</g>
<g>
</g>
<g>
</g>
<g>
</g>
<g>
</g>
<g>
</g>
<g>
</g>
<g>
</g>
<g>
</g>
<g>
</g>
<g>
</g>
</svg>
