<?xml version="1.0" encoding="iso-8859-1"?>
<!-- Generator: Adobe Illustrator 19.0.0, SVG Export Plug-In . SVG Version: 6.00 Build 0)  -->
<svg version="1.1" id="Capa_1" xmlns="http://www.w3.org/2000/svg" xmlns:xlink="http://www.w3.org/1999/xlink" x="0px" y="0px"
	 viewBox="0 0 512 512" style="enable-background:new 0 0 512 512;" xml:space="preserve">
<g>
	<path style="fill:#455A64;" d="M416,414.099c-1.36-0.001-2.706-0.261-3.968-0.768l-320-128c-5.542-1.998-8.415-8.11-6.417-13.652
		c1.998-5.542,8.11-8.415,13.652-6.417c0.229,0.083,0.456,0.173,0.679,0.272l320,128c5.467,2.195,8.119,8.406,5.925,13.873
		c-1.622,4.041-5.538,6.69-9.893,6.693L416,414.099z"/>
	<path style="fill:#455A64;" d="M96,414.099c-5.891-0.003-10.664-4.782-10.661-10.673c0.003-4.354,2.652-8.27,6.693-9.893l320-128
		c5.392-2.373,11.687,0.074,14.06,5.466c2.373,5.392-0.074,11.687-5.466,14.06c-0.223,0.098-0.45,0.189-0.679,0.272l-320,128
		C98.692,413.835,97.352,414.096,96,414.099z"/>
</g>
<path style="fill:#FFC107;" d="M10.667,158.099h490.667c5.891,0,10.667,4.776,10.667,10.667v64c0,5.891-4.776,10.667-10.667,10.667
	H10.667C4.776,243.432,0,238.657,0,232.766v-64C0,162.875,4.776,158.099,10.667,158.099z"/>
<path style="fill:#FFA000;" d="M497.365,65.363c-9.249-7.946-21.499-11.474-33.557-9.664
	C409.92,63.742,341.44,81.64,321.173,121.235c-2.686,5.243-0.614,11.671,4.629,14.357c1.505,0.771,3.173,1.174,4.864,1.174h170.667
	c5.891,0,10.667-4.776,10.667-10.667V97.32C512.013,85.044,506.668,73.373,497.365,65.363z"/>
<g>
	<circle style="fill:#607D8B;" cx="64" cy="414.099" r="42.667"/>
	<circle style="fill:#607D8B;" cx="448" cy="414.099" r="42.667"/>
</g>
<g>
</g>
<g>
</g>
<g>
</g>
<g>
</g>
<g>
</g>
<g>
</g>
<g>
</g>
<g>
</g>
<g>
</g>
<g>
</g>
<g>
</g>
<g>
</g>
<g>
</g>
<g>
</g>
<g>
</g>
</svg>
