<?xml version="1.0" encoding="UTF-8" standalone="no"?>
<!-- Created with Inkscape (http://www.inkscape.org/) -->

<svg
   xmlns:dc="http://purl.org/dc/elements/1.1/"
   xmlns:cc="http://creativecommons.org/ns#"
   xmlns:rdf="http://www.w3.org/1999/02/22-rdf-syntax-ns#"
   xmlns:svg="http://www.w3.org/2000/svg"
   xmlns="http://www.w3.org/2000/svg"
   xmlns:sodipodi="http://sodipodi.sourceforge.net/DTD/sodipodi-0.dtd"
   xmlns:inkscape="http://www.inkscape.org/namespaces/inkscape"
   id="svg2"
   version="1.1"
   inkscape:version="0.91 r13725"
   xml:space="preserve"
   width="765"
   height="990"
   viewBox="0 0 765 990"
   sodipodi:docname="paypal-seeklogo.com.svg"><metadata
     id="metadata8"><rdf:RDF><cc:Work
         rdf:about=""><dc:format>image/svg+xml</dc:format><dc:type
           rdf:resource="http://purl.org/dc/dcmitype/StillImage" /><dc:title></dc:title></cc:Work></rdf:RDF></metadata><defs
     id="defs6"><clipPath
       clipPathUnits="userSpaceOnUse"
       id="clipPath18"><path
         d="m 0,93.31408 611.4388,0 0,605.2061 -611.4388,0 0,-605.2061 z"
         id="path20"
         inkscape:connector-curvature="0" /></clipPath><clipPath
       clipPathUnits="userSpaceOnUse"
       id="clipPath30"><path
         d="m 0,93.31408 612,0 0,605.3718 -612,0 0,-605.3718 z"
         id="path32"
         inkscape:connector-curvature="0" /></clipPath><clipPath
       clipPathUnits="userSpaceOnUse"
       id="clipPath42"><path
         d="m 0,93.31408 611.4388,0 0,605.2061 -611.4388,0 0,-605.2061 z"
         id="path44"
         inkscape:connector-curvature="0" /></clipPath><clipPath
       clipPathUnits="userSpaceOnUse"
       id="clipPath54"><path
         d="m 0,93.31408 612,0 0,605.3718 -612,0 0,-605.3718 z"
         id="path56"
         inkscape:connector-curvature="0" /></clipPath></defs><sodipodi:namedview
     pagecolor="#ffffff"
     bordercolor="#666666"
     borderopacity="1"
     objecttolerance="10"
     gridtolerance="10"
     guidetolerance="10"
     inkscape:pageopacity="0"
     inkscape:pageshadow="2"
     inkscape:window-width="663"
     inkscape:window-height="480"
     id="namedview4"
     showgrid="false"
     inkscape:zoom="0.23838384"
     inkscape:cx="382.5"
     inkscape:cy="495"
     inkscape:window-x="0"
     inkscape:window-y="0"
     inkscape:window-maximized="0"
     inkscape:current-layer="g10" /><g
     id="g10"
     inkscape:groupmode="layer"
     inkscape:label="paypal-seeklogo.com"
     transform="matrix(1.25,0,0,-1.25,0,990)"><g
       id="g12" /><g
       id="g14"><g
         id="g16"
         clip-path="url(#clipPath18)"><path
           d="m 418.08,211.7063 c -2.6005,-17.072 -15.6381,-17.072 -28.2493,-17.072 l -7.176,0 5.0329,31.8748 c 0.3049,1.9266 1.9664,3.3451 3.9173,3.3451 l 3.2875,0 c 8.5857,0 16.6942,0 20.8743,-4.8894 2.5011,-2.9275 3.2589,-7.2645 2.3133,-13.2585 z m -5.4882,44.5412 -47.5614,0 c -3.2522,0 -6.0206,-2.3663 -6.5265,-5.5787 L 339.2711,128.7151 c -0.38,-2.406 1.4803,-4.5823 3.9151,-4.5823 l 24.4027,0 c 2.2756,0 4.2155,1.657 4.569,3.904 l 5.4549,34.5747 c 0.506,3.2124 3.2743,5.5787 6.5266,5.5787 l 15.0503,0 c 31.3269,0 49.4063,15.1608 54.1322,45.2107 2.1276,13.1414 0.0861,23.4681 -6.067,30.6972 -6.7651,7.9471 -18.7533,12.1494 -34.6631,12.1494"
           style="fill:#459adb;fill-opacity:1;fill-rule:nonzero;stroke:none"
           id="path22"
           inkscape:connector-curvature="0" /><path
           d="m 78.85962,211.7063 c -2.60044,-17.072 -15.64024,-17.072 -28.24921,-17.072 l -7.17609,0 5.03299,31.8748 c 0.30489,1.9266 1.96414,3.3451 3.91503,3.3451 l 3.28978,0 c 8.58346,0 16.69412,0 20.87428,-4.8894 2.50102,-2.9275 3.25884,-7.2645 2.31322,-13.2585 z m -5.49032,44.5412 -47.56146,0 c -3.25001,0 -6.02058,-2.3663 -6.52653,-5.5787 L 0.0486065,128.7151 c -0.3778051,-2.406 1.4802885,-4.5823 3.9172415,-4.5823 l 22.708072,0 c 3.25222,0 6.02058,2.3663 6.52653,5.5787 l 5.18985,32.9 c 0.50815,3.2124 3.27652,5.5787 6.52873,5.5787 l 15.04813,0 c 31.3291,0 49.40854,15.1608 54.13434,45.2107 2.1255,13.1414 0.0862,23.4681 -6.0691,30.6972 -6.763,7.9471 -18.7511,12.1494 -34.6631,12.1494"
           style="fill:#253b7d;fill-opacity:1;fill-rule:nonzero;stroke:none"
           id="path24"
           inkscape:connector-curvature="0" /></g></g><g
       id="g26"><g
         id="g28"
         clip-path="url(#clipPath30)"><path
           d="m 183.7856,167.9251 c -2.2006,-13.0133 -12.5294,-21.7492 -25.7062,-21.7492 -6.6039,0 -11.8909,2.1254 -15.2912,6.1487 -3.3693,3.9879 -4.6375,9.6683 -3.5681,15.9959 2.0503,12.8962 12.5449,21.9127 25.5206,21.9127 6.4669,0 11.7186,-2.1431 15.1851,-6.2039 3.4886,-4.0896 4.8584,-9.8097 3.8598,-16.1042 z m 31.7378,44.3269 -22.7721,0 c -1.9531,0 -3.6146,-1.4185 -3.9173,-3.3472 l -1.0008,-6.3675 -1.593,2.3066 c -4.9313,7.1606 -15.923,9.5512 -26.8993,9.5512 -25.1605,0 -46.6534,-19.067 -50.8379,-45.8072 -2.1763,-13.3425 0.9146,-26.0907 8.4774,-34.9901 6.9507,-8.1747 16.8686,-11.5794 28.6844,-11.5794 20.28,0 31.528,13.0288 31.528,13.0288 l -1.0163,-6.3299 c -0.3801,-2.406 1.4803,-4.5845 3.9172,-4.5845 l 20.5075,0 c 3.2522,0 6.0206,2.3641 6.5266,5.5765 l 12.3129,77.9626 c 0.38,2.406 -1.4803,4.5801 -3.9173,4.5801"
           style="fill:#253b7d;fill-opacity:1;fill-rule:nonzero;stroke:none"
           id="path34"
           inkscape:connector-curvature="0" /><path
           d="m 523.0059,167.9251 c -2.1983,-13.0133 -12.5294,-21.7492 -25.704,-21.7492 -6.606,0 -11.8931,2.1254 -15.2934,6.1487 -3.3693,3.9879 -4.6375,9.6683 -3.5681,15.9959 2.0503,12.8962 12.5471,21.9127 25.5228,21.9127 6.4669,0 11.7164,-2.1431 15.1829,-6.2039 3.4886,-4.0896 4.8585,-9.8097 3.8598,-16.1042 z m 31.7401,44.3269 -22.7744,0 c -1.9509,0 -3.6123,-1.4185 -3.915,-3.3472 l -1.0031,-6.3675 -1.5907,2.3066 c -4.9336,7.1606 -15.9253,9.5512 -26.9015,9.5512 -25.1605,0 -46.6534,-19.067 -50.838,-45.8072 -2.1763,-13.3425 0.9147,-26.0907 8.4796,-34.9901 6.9485,-8.1747 16.8665,-11.5794 28.6823,-11.5794 20.2799,0 31.5301,13.0288 31.5301,13.0288 l -1.0185,-6.3299 c -0.38,-2.406 1.4803,-4.5845 3.9172,-4.5845 l 20.5098,0 c 3.25,0 6.0183,2.3641 6.5265,5.5765 l 12.3107,77.9626 c 0.38,2.406 -1.4803,4.5801 -3.915,4.5801"
           style="fill:#459adb;fill-opacity:1;fill-rule:nonzero;stroke:none"
           id="path36"
           inkscape:connector-curvature="0" /></g></g><g
       id="g38"><g
         id="g40"
         clip-path="url(#clipPath42)"><path
           d="m 336.8209,212.252 -22.8914,0 c -2.1895,0 -4.2376,-1.087 -5.466,-2.8965 l -31.5766,-46.5054 -13.3822,44.6893 c -0.8374,2.7948 -3.4113,4.7126 -6.3299,4.7126 l -22.5026,0 c -2.7176,0 -4.6287,-2.6734 -3.7538,-5.2451 l 25.2069,-73.9835 -23.7089,-33.45234 c -1.8603,-2.62475 0.0177,-6.25698 3.2345,-6.25698 l 22.8694,0 c 2.1674,0 4.1978,1.06271 5.4307,2.84348 l 76.1288,109.87054 c 1.8205,2.6292 -0.0597,6.2239 -3.2589,6.2239"
           style="fill:#253b7d;fill-opacity:1;fill-rule:nonzero;stroke:none"
           id="path46"
           inkscape:connector-curvature="0" /><path
           d="M 581.5878,252.8981 562.0679,128.7129 c -0.3778,-2.4061 1.4825,-4.5801 3.9172,-4.5801 l 19.6304,0 c 3.2522,0 6.0206,2.3663 6.5265,5.5787 l 19.2482,121.9515 c 0.38,2.4082 -1.4803,4.5845 -3.9172,4.5845 l -21.968,0 c -1.9531,0 -3.6145,-1.4207 -3.9172,-3.3494"
           style="fill:#459adb;fill-opacity:1;fill-rule:nonzero;stroke:none"
           id="path48"
           inkscape:connector-curvature="0" /></g></g><g
       id="g50"><g
         id="g52"
         clip-path="url(#clipPath54)"><path
           d="m 454.0112,598.2627 c 4.8143,30.6972 -0.0331,51.5847 -16.6367,70.5037 -18.2804,20.8301 -51.3041,29.7538 -93.5564,29.7538 l -122.6475,0 c -8.6365,0 -15.9893,-6.2835 -17.3348,-14.8139 l -51.07,-323.8519 c -1.0075,-6.3895 3.9305,-12.167 10.3996,-12.167 l 75.7157,0 -5.2252,-33.1408 c -0.8816,-5.5898 3.4378,-10.6449 9.0982,-10.6449 l 63.8203,0 c 7.5539,0 13.9855,5.497 15.1631,12.9581 l 0.6252,3.2434 12.0235,76.2393 0.7755,4.2133 c 1.1754,7.4611 7.6069,12.958 15.1608,12.958 l 9.549,0 c 61.8274,0 110.2395,25.1207 124.3862,97.7653 5.9101,30.357 2.8545,55.6943 -12.7769,73.5063 -4.7281,5.3887 -10.6094,9.8428 -17.4696,13.4773"
           style="fill:#459adb;fill-opacity:1;fill-rule:nonzero;stroke:none"
           id="path58"
           inkscape:connector-curvature="0" /><path
           d="m 454.0112,598.2627 c 4.8143,30.6972 -0.0331,51.5847 -16.6367,70.5037 -18.2804,20.8301 -51.3041,29.7538 -93.5564,29.7538 l -122.6475,0 c -8.6365,0 -15.9893,-6.2835 -17.3348,-14.8139 l -51.07,-323.8519 c -1.0075,-6.3895 3.9305,-12.167 10.3996,-12.167 l 75.7157,0 19.0206,120.6059 -0.5899,-3.7802 c 1.3455,8.5282 8.6364,14.8117 17.2707,14.8117 l 35.9865,0 c 70.6761,0 126.0168,28.7132 142.1873,111.7552 0.4794,2.459 0.8881,4.8407 1.2549,7.1827"
           style="fill:#232d61;fill-opacity:1;fill-rule:nonzero;stroke:none"
           id="path60"
           inkscape:connector-curvature="0" /><path
           d="m 278.3341,597.8539 c 0.8086,5.1325 4.1006,9.3325 8.5348,11.4579 2.015,0.9655 4.2663,1.5024 6.6282,1.5024 l 96.1392,0 c 11.3894,0 22.0077,-0.7446 31.718,-2.3088 2.775,-0.4463 5.4748,-0.9611 8.0974,-1.5422 2.6225,-0.5832 5.1677,-1.2328 7.6334,-1.9553 1.2328,-0.3579 2.4436,-0.7357 3.6366,-1.1312 4.7657,-1.5841 9.2044,-3.451 13.2895,-5.614 4.8143,30.6972 -0.0331,51.5847 -16.6367,70.5037 -18.2804,20.8301 -51.3041,29.7538 -93.5564,29.7538 l -122.6475,0 c -8.6365,0 -15.9893,-6.2835 -17.3348,-14.8139 l -51.07,-323.8519 c -1.0075,-6.3895 3.9305,-12.167 10.3996,-12.167 l 75.7157,0 39.453,250.1665"
           style="fill:#253b7d;fill-opacity:1;fill-rule:nonzero;stroke:none"
           id="path62"
           inkscape:connector-curvature="0" /></g></g></g></svg>