<svg id="color" enable-background="new 0 0 24 24" height="512" viewBox="0 0 24 24" width="512" xmlns="http://www.w3.org/2000/svg"><path d="m20.93 9.49c-.199 0-.39-.079-.53-.22l-5.66-5.66c-.292-.292-.293-.766-.002-1.059l1.461-1.47c.699-.699 1.626-1.083 2.61-1.083h.008c.983.002 1.905.387 2.595 1.084l1.508 1.508c.695.688 1.08 1.61 1.082 2.593.003.987-.382 1.917-1.081 2.617l-1.459 1.469c-.141.141-.332.221-.532.221z" fill="#f44336"/><path d="m.75 24c-.197 0-.389-.078-.53-.22-.178-.177-.254-.431-.205-.677l1.41-7.07c.054-.271.253-.491.518-.571.268-.081.553-.008.748.188l5.66 5.66c.195.195.268.483.188.748s-.3.464-.571.518l-7.07 1.41c-.05.009-.099.014-.148.014z" fill="#ffe082"/><path d="m4.46 18.479 13.109-13.1c.294-.292.769-.292 1.061 0l3.43 3.288-13.709 13.704z" fill="#ffb300"/><path d="m4.991 19.01-3.361-3.36 13.64-13.63 3.36 3.36z" fill="#ffc107"/></svg>