<?xml version="1.0" encoding="iso-8859-1"?>
<!-- Generator: Adobe Illustrator 19.0.0, SVG Export Plug-In . SVG Version: 6.00 Build 0)  -->
<svg version="1.1" id="Capa_1" xmlns="http://www.w3.org/2000/svg" xmlns:xlink="http://www.w3.org/1999/xlink" x="0px" y="0px"
	 viewBox="0 0 512.008 512.008" style="enable-background:new 0 0 512.008 512.008;" xml:space="preserve">
<path style="fill:#607D8B;" d="M480,512.004c-8.192,0-16.384-3.136-22.624-9.376l-101.44-101.44
	c-12.512-12.512-12.512-32.736,0-45.248s32.736-12.512,45.248,0l101.44,101.44c12.512,12.512,12.512,32.736,0,45.248
	C496.384,508.868,488.192,512.004,480,512.004z"/>
<circle style="fill:#2196F3;" cx="304" cy="304.004" r="144"/>
<g>
	<path style="fill:#455A64;" d="M112,128.004H16c-8.832,0-16-7.168-16-16v-96c0-8.832,7.168-16,16-16h96c8.832,0,16,7.168,16,16v96
		C128,120.836,120.832,128.004,112,128.004z M32,96.004h64v-64H32V96.004z"/>
	<path style="fill:#455A64;" d="M368,128.004h-96c-8.832,0-16-7.168-16-16v-96c0-8.832,7.168-16,16-16h96c8.832,0,16,7.168,16,16v96
		C384,120.836,376.832,128.004,368,128.004z M288,96.004h64v-64h-64V96.004z"/>
	<path style="fill:#455A64;" d="M112,384.004H16c-8.832,0-16-7.168-16-16v-96c0-8.832,7.168-16,16-16h96c8.832,0,16,7.168,16,16v96
		C128,376.836,120.832,384.004,112,384.004z M32,352.004h64v-64H32V352.004z"/>
	<path style="fill:#455A64;" d="M112,192.004H80c-8.832,0-16-7.168-16-16s7.168-16,16-16h32c8.832,0,16,7.168,16,16
		S120.832,192.004,112,192.004z"/>
	<path style="fill:#455A64;" d="M208,64.004h-32c-8.832,0-16-7.168-16-16s7.168-16,16-16h32c8.832,0,16,7.168,16,16
		S216.832,64.004,208,64.004z"/>
	<path style="fill:#455A64;" d="M208,128.004h-32c-8.832,0-16-7.168-16-16s7.168-16,16-16h32c8.832,0,16,7.168,16,16
		S216.832,128.004,208,128.004z"/>
	<path style="fill:#455A64;" d="M112,224.004c-8.832,0-16-7.168-16-16v-32c0-8.832,7.168-16,16-16s16,7.168,16,16v32
		C128,216.836,120.832,224.004,112,224.004z"/>
</g>
<g>
</g>
<g>
</g>
<g>
</g>
<g>
</g>
<g>
</g>
<g>
</g>
<g>
</g>
<g>
</g>
<g>
</g>
<g>
</g>
<g>
</g>
<g>
</g>
<g>
</g>
<g>
</g>
<g>
</g>
</svg>
