<?xml version="1.0" encoding="iso-8859-1"?>
<!-- Generator: Adobe Illustrator 19.0.0, SVG Export Plug-In . SVG Version: 6.00 Build 0)  -->
<svg version="1.1" id="Capa_1" xmlns="http://www.w3.org/2000/svg" xmlns:xlink="http://www.w3.org/1999/xlink" x="0px" y="0px"
	 viewBox="0 0 512 512" style="enable-background:new 0 0 512 512;" xml:space="preserve">
<path style="fill:#455A64;" d="M480,416H32V112c0-17.632,14.368-32,32-32h384c17.664,0,32,14.368,32,32V416z"/>
<rect x="64" y="112" style="fill:#FAFAFA;" width="384" height="256"/>
<path style="fill:#B0BEC5;" d="M496,432H16c-8.832,0-16-7.168-16-16v-16h512v16C512,424.832,504.832,432,496,432z"/>
<g>
	
		<rect x="239.972" y="190.444" transform="matrix(-0.1933 0.9811 -0.9811 -0.1933 540.9349 35.2621)" style="fill:#4CAF50;" width="31.999" height="99.132"/>
	<polygon style="fill:#4CAF50;" points="448,167.136 354.72,225.472 371.648,252.608 448,204.864 	"/>
	<polygon style="fill:#4CAF50;" points="64,283.104 151.84,250.176 140.64,220.224 64,248.928 	"/>
</g>
<g>
	<circle style="fill:#FFC107;" cx="176" cy="224" r="48"/>
	<circle style="fill:#FFC107;" cx="336" cy="252.608" r="48"/>
</g>
<g>
</g>
<g>
</g>
<g>
</g>
<g>
</g>
<g>
</g>
<g>
</g>
<g>
</g>
<g>
</g>
<g>
</g>
<g>
</g>
<g>
</g>
<g>
</g>
<g>
</g>
<g>
</g>
<g>
</g>
</svg>
