<?xml version="1.0" encoding="iso-8859-1"?>
<!-- Generator: Adobe Illustrator 19.0.0, SVG Export Plug-In . SVG Version: 6.00 Build 0)  -->
<svg version="1.1" id="Capa_1" xmlns="http://www.w3.org/2000/svg" xmlns:xlink="http://www.w3.org/1999/xlink" x="0px" y="0px"
	 viewBox="0 0 480.008 480.008" style="enable-background:new 0 0 480.008 480.008;" xml:space="preserve">
<path style="fill:#455A64;" d="M448,480.004c-8.192,0-16.384-3.136-22.624-9.376l-147.52-147.52
	c-12.512-12.512-12.512-32.736,0-45.248s32.736-12.512,45.248,0l147.52,147.52c12.512,12.512,12.512,32.736,0,45.248
	C464.384,476.868,456.192,480.004,448,480.004z"/>
<circle style="fill:#2196F3;" cx="192" cy="192.004" r="192"/>
<g>
	<circle style="fill:#FAFAFA;" cx="192" cy="128.004" r="48"/>
	<path style="fill:#FAFAFA;" d="M272,272.004H112l0,0c0-35.36,28.64-64,64-64h32C243.36,208.004,272,236.644,272,272.004
		L272,272.004z"/>
</g>
<g>
</g>
<g>
</g>
<g>
</g>
<g>
</g>
<g>
</g>
<g>
</g>
<g>
</g>
<g>
</g>
<g>
</g>
<g>
</g>
<g>
</g>
<g>
</g>
<g>
</g>
<g>
</g>
<g>
</g>
</svg>
