<?xml version="1.0" encoding="UTF-8" standalone="no"?>
<!-- Generator: Adobe Illustrator 17.1.0, SVG Export Plug-In . SVG Version: 6.00 Build 0)  -->

<svg
   xmlns:dc="http://purl.org/dc/elements/1.1/"
   xmlns:cc="http://creativecommons.org/ns#"
   xmlns:rdf="http://www.w3.org/1999/02/22-rdf-syntax-ns#"
   xmlns:svg="http://www.w3.org/2000/svg"
   xmlns="http://www.w3.org/2000/svg"
   xmlns:sodipodi="http://sodipodi.sourceforge.net/DTD/sodipodi-0.dtd"
   xmlns:inkscape="http://www.inkscape.org/namespaces/inkscape"
   version="1.1"
   id="Capa_1"
   x="0px"
   y="0px"
   viewBox="0 0 229.5 229.5"
   style="enable-background:new 0 0 229.5 229.5;"
   xml:space="preserve"
   sodipodi:docname="secure.svg"
   inkscape:version="0.92.2 5c3e80d, 2017-08-06"><metadata
     id="metadata39"><rdf:RDF><cc:Work
         rdf:about=""><dc:format>image/svg+xml</dc:format><dc:type
           rdf:resource="http://purl.org/dc/dcmitype/StillImage" /><dc:title /></cc:Work></rdf:RDF></metadata><defs
     id="defs37" /><sodipodi:namedview
     pagecolor="#ffffff"
     bordercolor="#666666"
     borderopacity="1"
     objecttolerance="10"
     gridtolerance="10"
     guidetolerance="10"
     inkscape:pageopacity="0"
     inkscape:pageshadow="2"
     inkscape:window-width="1086"
     inkscape:window-height="763"
     id="namedview35"
     showgrid="false"
     inkscape:zoom="1.0283224"
     inkscape:cx="-60.292377"
     inkscape:cy="114.75"
     inkscape:window-x="0"
     inkscape:window-y="0"
     inkscape:window-maximized="0"
     inkscape:current-layer="Capa_1" /><path
     d="M214.419,32.12c-0.412-2.959-2.541-5.393-5.419-6.193L116.76,0.275c-1.315-0.366-2.704-0.366-4.02,0L20.5,25.927  c-2.878,0.8-5.007,3.233-5.419,6.193c-0.535,3.847-12.74,94.743,18.565,139.961c31.268,45.164,77.395,56.738,79.343,57.209  c0.579,0.14,1.169,0.209,1.761,0.209s1.182-0.07,1.761-0.209c1.949-0.471,48.076-12.045,79.343-57.209  C227.159,126.864,214.954,35.968,214.419,32.12z M174.233,85.186l-62.917,62.917c-1.464,1.464-3.384,2.197-5.303,2.197  s-3.839-0.732-5.303-2.197l-38.901-38.901c-1.407-1.406-2.197-3.314-2.197-5.303s0.791-3.897,2.197-5.303l7.724-7.724  c2.929-2.928,7.678-2.929,10.606,0l25.874,25.874l49.89-49.891c1.406-1.407,3.314-2.197,5.303-2.197s3.897,0.79,5.303,2.197  l7.724,7.724C177.162,77.508,177.162,82.257,174.233,85.186z"
     id="path2"
     style="fill:#77bc1f;fill-opacity:1" /><g
     id="g4" /><g
     id="g6" /><g
     id="g8" /><g
     id="g10" /><g
     id="g12" /><g
     id="g14" /><g
     id="g16" /><g
     id="g18" /><g
     id="g20" /><g
     id="g22" /><g
     id="g24" /><g
     id="g26" /><g
     id="g28" /><g
     id="g30" /><g
     id="g32" /></svg>