<?xml version="1.0" encoding="UTF-8" standalone="no"?>
<!-- Generator: Adobe Illustrator 19.0.0, SVG Export Plug-In . SVG Version: 6.00 Build 0)  -->

<svg
   xmlns:dc="http://purl.org/dc/elements/1.1/"
   xmlns:cc="http://creativecommons.org/ns#"
   xmlns:rdf="http://www.w3.org/1999/02/22-rdf-syntax-ns#"
   xmlns:svg="http://www.w3.org/2000/svg"
   xmlns="http://www.w3.org/2000/svg"
   xmlns:sodipodi="http://sodipodi.sourceforge.net/DTD/sodipodi-0.dtd"
   xmlns:inkscape="http://www.inkscape.org/namespaces/inkscape"
   version="1.1"
   id="Capa_1"
   x="0px"
   y="0px"
   viewBox="0 0 511.99424 335.76899"
   xml:space="preserve"
   sodipodi:docname="shake-hands.svg"
   width="511.99423"
   height="335.76898"
   inkscape:version="0.92.2 5c3e80d, 2017-08-06"><metadata
     id="metadata47"><rdf:RDF><cc:Work
         rdf:about=""><dc:format>image/svg+xml</dc:format><dc:type
           rdf:resource="http://purl.org/dc/dcmitype/StillImage" /><dc:title></dc:title></cc:Work></rdf:RDF></metadata><defs
     id="defs45" /><sodipodi:namedview
     pagecolor="#ffffff"
     bordercolor="#666666"
     borderopacity="1"
     objecttolerance="10"
     gridtolerance="10"
     guidetolerance="10"
     inkscape:pageopacity="0"
     inkscape:pageshadow="2"
     inkscape:window-width="1058"
     inkscape:window-height="679"
     id="namedview43"
     showgrid="false"
     fit-margin-top="0"
     fit-margin-left="0"
     fit-margin-right="0"
     fit-margin-bottom="0"
     inkscape:zoom="0.46094291"
     inkscape:cx="255.99725"
     inkscape:cy="167.88501"
     inkscape:window-x="0"
     inkscape:window-y="0"
     inkscape:window-maximized="0"
     inkscape:current-layer="Capa_1" /><path
     style="fill:#cfd8dc"
     d="m 428.89726,197.40097 -156.48,-107.487999 -40.32,-23.68 c -2.432,-1.44 -5.248,-2.208 -8.096,-2.208 h -64.64 c -5.984,0 -11.488,3.328 -14.208,8.672 L 76.353258,206.10497 c -3.584,7.008 -1.6,15.52 4.704,20.224 l 126.752002,93.76 c 14.176,10.464 31.072,15.68 47.936,15.68 17.152,0 34.24,-5.408 48.416,-16.192 l 125.44,-96.32 c 4.064,-3.136 6.368,-8 6.24,-13.12 -0.128,-5.088 -2.72,-9.824 -6.944,-12.736 z"
     id="path2"
     inkscape:connector-curvature="0" /><path
     style="fill:#b0bec5"
     d="m 434.04926,203.28897 -67.232,-130.591999 c -2.72,-5.344 -8.192,-8.672 -14.176,-8.672 h -64.64 c -4.256,0 -8.32,1.696 -11.328,4.672 l -96,95.999999 c -5.824,5.856 -6.272,15.2 -0.992,21.536 l 12.512,15.072 c 14.56,17.472 39.424,22.4 59.072,11.936 l 34.944,-18.208 78.912,62.656 c 2.912,2.304 6.4,3.456 9.952,3.456 3.424,0 6.912,-1.088 9.792,-3.328 l 44.8,-34.56 c 6.048,-4.704 7.936,-13.152 4.384,-19.968 z"
     id="path4"
     inkscape:connector-curvature="0" /><g
     id="g10"
     transform="translate(2.5785128e-4,-88.113029)"><path
       style="fill:#2196f3"
       d="m 167.169,113.834 -48,-24 c -7.904,-3.936 -17.504,-0.768 -21.472,7.136 l -96,192 c -3.968,7.904 -0.736,17.504 7.168,21.472 l 48,24 c 2.272,1.152 4.704,1.696 7.136,1.696 5.888,0 11.52,-3.264 14.336,-8.832 l 96,-192 c 3.936,-7.904 0.736,-17.536 -7.168,-21.472 z"
       id="path6"
       inkscape:connector-curvature="0" /><path
       style="fill:#2196f3"
       d="m 510.305,288.97 -96,-192 c -3.968,-7.936 -13.536,-11.104 -21.472,-7.168 l -48,24 c -7.904,3.968 -11.104,13.568 -7.168,21.472 l 96,192 c 2.816,5.6 8.48,8.832 14.304,8.832 2.4,0 4.832,-0.544 7.168,-1.696 l 48,-24 c 7.936,-3.936 11.104,-13.536 7.168,-21.44 z"
       id="path8"
       inkscape:connector-curvature="0" /></g><g
     id="g12"
     transform="translate(2.5785128e-4,-88.113029)" /><g
     id="g14"
     transform="translate(2.5785128e-4,-88.113029)" /><g
     id="g16"
     transform="translate(2.5785128e-4,-88.113029)" /><g
     id="g18"
     transform="translate(2.5785128e-4,-88.113029)" /><g
     id="g20"
     transform="translate(2.5785128e-4,-88.113029)" /><g
     id="g22"
     transform="translate(2.5785128e-4,-88.113029)" /><g
     id="g24"
     transform="translate(2.5785128e-4,-88.113029)" /><g
     id="g26"
     transform="translate(2.5785128e-4,-88.113029)" /><g
     id="g28"
     transform="translate(2.5785128e-4,-88.113029)" /><g
     id="g30"
     transform="translate(2.5785128e-4,-88.113029)" /><g
     id="g32"
     transform="translate(2.5785128e-4,-88.113029)" /><g
     id="g34"
     transform="translate(2.5785128e-4,-88.113029)" /><g
     id="g36"
     transform="translate(2.5785128e-4,-88.113029)" /><g
     id="g38"
     transform="translate(2.5785128e-4,-88.113029)" /><g
     id="g40"
     transform="translate(2.5785128e-4,-88.113029)" /></svg>