<?xml version="1.0" encoding="iso-8859-1"?>
<!-- Generator: Adobe Illustrator 19.0.0, SVG Export Plug-In . SVG Version: 6.00 Build 0)  -->
<svg version="1.1" id="Capa_1" xmlns="http://www.w3.org/2000/svg" xmlns:xlink="http://www.w3.org/1999/xlink" x="0px" y="0px"
	 viewBox="0 0 512 512" style="enable-background:new 0 0 512 512;" xml:space="preserve">
<path style="fill:#2196F3;" d="M480,16H32C14.368,16,0,30.368,0,48v96c0,17.632,14.368,32,32,32h32v48
	c0,6.88,4.416,12.992,10.944,15.168C76.608,239.744,78.304,240,80,240c4.928,0,9.728-2.304,12.8-6.4L136,176h344
	c17.664,0,32-14.368,32-32V48C512,30.368,497.664,16,480,16z"/>
<path style="fill:#FFD54F;" d="M480,272H32c-17.632,0-32,14.368-32,32v96c0,17.664,14.368,32,32,32h344l43.2,57.6
	c3.104,4.128,7.872,6.4,12.8,6.4c1.696,0,3.392-0.288,5.056-0.8C443.584,492.992,448,486.88,448,480v-48h32
	c17.664,0,32-14.336,32-32v-96C512,286.368,497.664,272,480,272z"/>
<g>
</g>
<g>
</g>
<g>
</g>
<g>
</g>
<g>
</g>
<g>
</g>
<g>
</g>
<g>
</g>
<g>
</g>
<g>
</g>
<g>
</g>
<g>
</g>
<g>
</g>
<g>
</g>
<g>
</g>
</svg>
