<svg id="Color" enable-background="new 0 0 24 24" height="512" viewBox="0 0 24 24" width="512" xmlns="http://www.w3.org/2000/svg"><path d="m12.192 5.152 2.545-2.036c.589-.47.809-1.233.56-1.944-.248-.712-.895-1.172-1.647-1.172h-9.3c-.752 0-1.399.46-1.648 1.172-.249.711-.029 1.475.56 1.944l2.546 2.036c-3.176 2.431-5.808 7.793-5.808 12.098 0 3.359 1.778 6.75 5.75 6.75h6.75c3.393 0 5.5-2.587 5.5-6.75 0-4.305-2.632-9.667-5.808-12.098z" fill="#eceff1"/><path d="m14.25 4.5h-10.5c-.414 0-.75.336-.75.75s.336.75.75.75h10.5c.414 0 .75-.336.75-.75s-.336-.75-.75-.75z" fill="#90a4ae"/><path d="m9 6h-4.162c-2.725 2.685-4.838 7.392-4.838 11.25 0 3.359 1.778 6.75 5.75 6.75h3.25zm0-6h-4.65c-.752 0-1.399.46-1.648 1.172-.249.711-.029 1.475.56 1.944l1.73 1.384h4.008z" fill="#cdd0d2"/><path d="m9 4.5h-4.008-1.242c-.414 0-.75.336-.75.75s.336.75.75.75h1.088 4.162z" fill="#7d8f97"/><path d="m23.89 21.551-2.069-3.522c-.177-.301-.534-.44-.87-.336l-2.622.817c-.217.067-.392.23-.475.443-.083.212-.065.45.049.647l2.364 4.03c.135.23.381.37.646.37h.024c.274-.01.521-.167.645-.412l.493-.979 1.12.07c.281.04.541-.119.686-.355.146-.237.149-.534.009-.773z" fill="#4caf50"/><path d="m19.741 18.069-1.413.441c-.217.067-.392.23-.475.443-.083.212-.065.45.049.647l2.364 4.03c.136.23.382.37.647.37h.024c.274-.01.521-.167.645-.412l.493-.979z" fill="#429846"/><path d="m19.429 19.377-2.185-1.566c-.172-.122-.386-.17-.593-.124-.206.043-.385.172-.491.354l-2.063 3.511c-.141.239-.138.536.008.772.145.236.414.378.686.355l1.118-.07.489.978c.123.246.371.404.646.414h.025c.265 0 .511-.14.647-.369l1.923-3.264c.195-.336.105-.764-.21-.991z" fill="#388e3c"/><path d="m16.808 17.669c-.052 0-.105.006-.157.017-.206.043-.385.172-.491.354l-2.063 3.511c-.141.239-.138.536.008.772.135.22.377.358.629.358.019 0 .038-.001.056-.002l1.118-.07 2.388-4.044-1.052-.754c-.129-.092-.281-.142-.436-.142z" fill="#317c34"/><path d="m18.986 12c-2.206 0-4 1.794-4 4s1.794 4 4 4 4-1.794 4-4-1.794-4-4-4z" fill="#ffc107"/><path d="m18.986 12c-2.206 0-4 1.794-4 4s1.794 4 4 4z" fill="#dea806"/></svg>