<?xml version="1.0" encoding="iso-8859-1"?>
<!-- Generator: Adobe Illustrator 19.0.0, SVG Export Plug-In . SVG Version: 6.00 Build 0)  -->
<svg version="1.1" id="Capa_1" xmlns="http://www.w3.org/2000/svg" xmlns:xlink="http://www.w3.org/1999/xlink" x="0px" y="0px"
	 viewBox="0 0 512.02 512.02" style="enable-background:new 0 0 512.02 512.02;" xml:space="preserve">
<path style="fill:#B0BEC5;" d="M508.886,408.458l-42.667-42.667c-2.004-1.999-4.721-3.12-7.552-3.115H79.083l-60.864-60.885
	c-4.16-4.171-10.914-4.179-15.085-0.019c-2.011,2.006-3.139,4.731-3.134,7.571V416.01c0,5.891,4.776,10.667,10.667,10.667h490.667
	c5.891,0.011,10.675-4.757,10.686-10.648C512.025,413.189,510.897,410.464,508.886,408.458z"/>
<path style="fill:#CFD8DC;" d="M138.667,224.01h298.667c5.891,0,10.667,4.776,10.667,10.667v74.667
	c0,5.891-4.776,10.667-10.667,10.667H138.667c-5.891,0-10.667-4.776-10.667-10.667v-74.667
	C128.001,228.786,132.776,224.01,138.667,224.01z"/>
<path style="fill:#F44336;" d="M405.334,85.343c-77.312,0-315.904,110.677-387.179,144.576C7,235.186-0.083,246.448,0.001,258.783
	v50.56c0,41.237,33.429,74.667,74.667,74.667s74.667-33.429,74.667-74.667c-0.008-4.086-0.387-8.163-1.131-12.181l337.344-59.541
	c15.296-2.692,26.45-15.978,26.453-31.509v-35.435C512.001,150.666,504.321,85.343,405.334,85.343z"/>
<circle style="fill:#C62828;" cx="74.667" cy="309.343" r="32"/>
<g>
</g>
<g>
</g>
<g>
</g>
<g>
</g>
<g>
</g>
<g>
</g>
<g>
</g>
<g>
</g>
<g>
</g>
<g>
</g>
<g>
</g>
<g>
</g>
<g>
</g>
<g>
</g>
<g>
</g>
</svg>
