<?xml version="1.0" encoding="iso-8859-1"?>
<!-- Generator: Adobe Illustrator 19.0.0, SVG Export Plug-In . SVG Version: 6.00 Build 0)  -->
<svg version="1.1" id="Capa_1" xmlns="http://www.w3.org/2000/svg" xmlns:xlink="http://www.w3.org/1999/xlink" x="0px" y="0px"
	 viewBox="0 0 470.613 470.613" style="enable-background:new 0 0 470.613 470.613;" xml:space="preserve">
<circle style="fill:#FFC107;" cx="351.893" cy="117.333" r="117.333"/>
<g>
	<path style="fill:#455A64;" d="M351.893,192c-5.891,0-10.667-4.776-10.667-10.667v-68.075l-5.888,2.944
		c-5.272,2.633-11.681,0.494-14.315-4.779c-2.633-5.272-0.494-11.681,4.779-14.315l21.333-10.667
		c5.267-2.639,11.676-0.509,14.315,4.758c0.743,1.483,1.13,3.119,1.13,4.778v85.333c0.012,5.891-4.754,10.676-10.645,10.688
		C351.922,192,351.908,192,351.893,192z"/>
	<path style="fill:#455A64;" d="M373.227,192H330.56c-5.891,0-10.667-4.776-10.667-10.667c0-5.891,4.776-10.667,10.667-10.667
		h42.667c5.891,0,10.667,4.776,10.667,10.667C383.893,187.224,379.118,192,373.227,192z"/>
	<circle style="fill:#455A64;" cx="351.893" cy="53.333" r="10.667"/>
</g>
<path style="fill:#009688;" d="M374.72,332.16c-24.694,0.057-49.238-3.832-72.704-11.52c-10.972-3.86-23.18-1.285-31.659,6.677
	l-46.016,34.709c-49.448-24.813-89.567-64.924-114.389-114.368l33.813-44.907c8.546-8.538,11.601-21.136,7.915-32.64
	c-7.739-23.501-11.664-48.09-11.627-72.832c0-17.673-14.327-32-32-32H33.387c-17.673,0-32,14.327-32,32
	C1.622,303.369,168.631,470.378,374.72,470.613c17.673,0,32-14.327,32-32V364.16C406.72,346.487,392.393,332.16,374.72,332.16z"/>
<g>
</g>
<g>
</g>
<g>
</g>
<g>
</g>
<g>
</g>
<g>
</g>
<g>
</g>
<g>
</g>
<g>
</g>
<g>
</g>
<g>
</g>
<g>
</g>
<g>
</g>
<g>
</g>
<g>
</g>
</svg>
