<?xml version="1.0" encoding="iso-8859-1"?>
<!-- Generator: Adobe Illustrator 19.0.0, SVG Export Plug-In . SVG Version: 6.00 Build 0)  -->
<svg version="1.1" id="Capa_1" xmlns="http://www.w3.org/2000/svg" xmlns:xlink="http://www.w3.org/1999/xlink" x="0px" y="0px"
	 viewBox="0 0 512 512" style="enable-background:new 0 0 512 512;" xml:space="preserve">
<path style="fill:#F44336;" d="M393.6,195.2l-128-96c-5.696-4.288-13.504-4.288-19.2,0l-128,96c-4.032,3.008-6.4,7.776-6.4,12.8v272
	c0,17.664,14.368,32,32,32h224c17.664,0,32-14.336,32-32V208C400,202.976,397.632,198.208,393.6,195.2z"/>
<path style="fill:#FAFAFA;" d="M256,320c-8.832,0-16-7.2-16-16s7.168-16,16-16l32,0.032c8.832,0,16-7.168,16-16S296.832,256,288,256
	h-16v-16c0-8.832-7.168-16-16-16s-16,7.168-16,16v18.944c-18.592,6.624-32,24.224-32,45.056c0,26.464,21.536,48,48,48
	c8.832,0,16,7.2,16,16s-7.168,16-16,16h-32c-8.832,0-16,7.168-16,16s7.168,16,16,16h16v16c0,8.832,7.168,16,16,16s16-7.168,16-16
	v-18.944c18.592-6.624,32-24.224,32-45.056C304,341.536,282.464,320,256,320z"/>
<path style="fill:#455A64;" d="M256,192c-44.096,0-80-43.072-80-96s35.904-96,80-96s80,43.072,80,96c0,8.832-7.168,16-16,16
	s-16-7.168-16-16c0-35.296-21.536-64-48-64s-48,28.704-48,64s21.536,64,48,64c8.832,0,16,7.168,16,16S264.832,192,256,192z"/>
<g>
</g>
<g>
</g>
<g>
</g>
<g>
</g>
<g>
</g>
<g>
</g>
<g>
</g>
<g>
</g>
<g>
</g>
<g>
</g>
<g>
</g>
<g>
</g>
<g>
</g>
<g>
</g>
<g>
</g>
</svg>
