<?xml version="1.0" encoding="iso-8859-1"?>
<!-- Generator: Adobe Illustrator 19.0.0, SVG Export Plug-In . SVG Version: 6.00 Build 0)  -->
<svg version="1.1" id="Capa_1" xmlns="http://www.w3.org/2000/svg" xmlns:xlink="http://www.w3.org/1999/xlink" x="0px" y="0px"
	 viewBox="0 0 490.662 490.662" style="enable-background:new 0 0 490.662 490.662;" xml:space="preserve">
<path style="fill:#009688;" d="M416.275,245.402c-50.475-1.195-110.933-8.533-120.704-18.219
	c-16.085-16.149-39.552-75.947-39.552-141.781c0.011-5.891-4.757-10.675-10.648-10.686c-2.84-0.005-5.565,1.123-7.571,3.134
	L67.134,248.517c-2.738,2.74-3.775,6.75-2.709,10.475l42.667,149.333c1.306,4.584,5.495,7.745,10.261,7.744h266.667
	c5.891,0.008,10.673-4.76,10.682-10.651c0.004-3.101-1.341-6.05-3.685-8.079c-22.053-21.469-28.235-54.48-15.445-82.475
	c10.965-29.376,31.275-48.128,40.448-48.128c5.891,0.071,10.724-4.648,10.795-10.539
	C426.884,250.306,422.166,245.473,416.275,245.402z"/>
<g>
	<path style="fill:#00796B;" d="M423.571,248.517L252.904,77.85c-4.16-4.171-10.914-4.179-15.085-0.019
		c-2.011,2.006-3.139,4.731-3.134,7.571c0,68.608,23.765,134.848,45.781,156.885c20.224,20.224,108.672,23.829,135.296,24.448h0.256
		c5.891,0.011,10.675-4.757,10.686-10.648C426.71,253.248,425.582,250.523,423.571,248.517z"/>
	<path style="fill:#00796B;" d="M424.318,249.37c-2.024-2.509-5.075-3.967-8.299-3.968c-24.213,0-49.216,32-60.437,61.995
		c-16.884,36.237-8.182,79.247,21.461,106.069c1.937,1.677,4.414,2.601,6.976,2.603c1.144-0.002,2.282-0.182,3.371-0.533
		c3.586-1.194,6.272-4.197,7.061-7.893l32-149.333C427.126,255.16,426.342,251.875,424.318,249.37z"/>
</g>
<g>
	<path style="fill:#455A64;" d="M10.686,330.735C4.795,330.746,0.011,325.979,0,320.088c-0.005-2.84,1.123-5.565,3.134-7.571
		L237.8,77.85c4.092-4.237,10.845-4.355,15.083-0.262s4.355,10.845,0.262,15.083c-0.086,0.089-0.173,0.176-0.262,0.262
		L18.216,327.599C16.221,329.601,13.512,330.729,10.686,330.735z"/>
	<path style="fill:#455A64;" d="M480.019,330.735c-2.831,0.005-5.548-1.115-7.552-3.115L237.8,92.954
		c-4.092-4.237-3.975-10.99,0.262-15.083c4.134-3.992,10.687-3.992,14.82,0L487.55,312.538c4.159,4.172,4.149,10.926-0.024,15.085
		C485.533,329.61,482.834,330.729,480.019,330.735z"/>
	<path style="fill:#455A64;" d="M245.352,416.069c-5.891,0-10.667-4.776-10.667-10.667v-320c0-5.891,4.776-10.667,10.667-10.667
		c5.891,0,10.667,4.776,10.667,10.667v320C256.019,411.293,251.243,416.069,245.352,416.069z"/>
</g>
<g>
</g>
<g>
</g>
<g>
</g>
<g>
</g>
<g>
</g>
<g>
</g>
<g>
</g>
<g>
</g>
<g>
</g>
<g>
</g>
<g>
</g>
<g>
</g>
<g>
</g>
<g>
</g>
<g>
</g>
</svg>
