<?xml version="1.0" encoding="UTF-8" standalone="no"?>
<!-- Generator: Adobe Illustrator 19.0.0, SVG Export Plug-In . SVG Version: 6.00 Build 0)  -->

<svg
   xmlns:dc="http://purl.org/dc/elements/1.1/"
   xmlns:cc="http://creativecommons.org/ns#"
   xmlns:rdf="http://www.w3.org/1999/02/22-rdf-syntax-ns#"
   xmlns:svg="http://www.w3.org/2000/svg"
   xmlns="http://www.w3.org/2000/svg"
   xmlns:sodipodi="http://sodipodi.sourceforge.net/DTD/sodipodi-0.dtd"
   xmlns:inkscape="http://www.inkscape.org/namespaces/inkscape"
   version="1.1"
   id="Capa_1"
   x="0px"
   y="0px"
   viewBox="0 0 512 512"
   style="enable-background:new 0 0 512 512;"
   xml:space="preserve"
   sodipodi:docname="text-lines.svg"
   inkscape:version="0.92.2 5c3e80d, 2017-08-06"><metadata
     id="metadata49"><rdf:RDF><cc:Work
         rdf:about=""><dc:format>image/svg+xml</dc:format><dc:type
           rdf:resource="http://purl.org/dc/dcmitype/StillImage" /></cc:Work></rdf:RDF></metadata><defs
     id="defs47" /><sodipodi:namedview
     pagecolor="#ffffff"
     bordercolor="#666666"
     borderopacity="1"
     objecttolerance="10"
     gridtolerance="10"
     guidetolerance="10"
     inkscape:pageopacity="0"
     inkscape:pageshadow="2"
     inkscape:window-width="1465"
     inkscape:window-height="903"
     id="namedview45"
     showgrid="false"
     inkscape:zoom="0.4609375"
     inkscape:cx="253.83051"
     inkscape:cy="256"
     inkscape:window-x="0"
     inkscape:window-y="0"
     inkscape:window-maximized="0"
     inkscape:current-layer="Capa_1" /><path
     style="fill:#ECEFF1;"
     d="M320,0H96C78.368,0,64,14.368,64,32v448c0,17.664,14.368,32,32,32h320c17.664,0,32-14.336,32-32V128  L320,0z"
     id="path2" /><path
     style="fill:#CFD8DC;"
     d="M320,0v96c0,17.664,14.336,32,32,32h96L320,0z"
     id="path4" /><g
     id="g10"><path
       style="fill:#90A4AE;"
       d="M144,128h96c8.832,0,16-7.168,16-16s-7.168-16-16-16h-96c-8.832,0-16,7.168-16,16   S135.168,128,144,128z"
       id="path6" /><path
       style="fill:#90A4AE;"
       d="M256,176c0-8.832-7.168-16-16-16h-96c-8.832,0-16,7.168-16,16s7.168,16,16,16h96   C248.832,192,256,184.832,256,176z"
       id="path8" /></g><g
     id="g935"
     transform="matrix(15.93925,0,0,15.93925,-351.9854,508.01406)"><path
       id="path920"
       d="m 38.144068,-3.7627123 c -0.157,0 -0.314,-0.049 -0.447,-0.148 -0.62,-0.461 -6.053,-4.602 -6.053,-8.1139997 0,-2.061 1.682,-3.738 3.75,-3.738 1.063,0 2.054,0.446 2.75,1.194 0.696,-0.748 1.687,-1.194 2.75,-1.194 2.068,0 3.75,1.677 3.75,3.738 0,3.5119997 -5.433,7.6529997 -6.053,8.1139997 -0.133,0.099 -0.29,0.148 -0.447,0.148 z"
       inkscape:connector-curvature="0"
       style="fill:#f44336" /></g><g
     id="g14" /><g
     id="g16" /><g
     id="g18" /><g
     id="g20" /><g
     id="g22" /><g
     id="g24" /><g
     id="g26" /><g
     id="g28" /><g
     id="g30" /><g
     id="g32" /><g
     id="g34" /><g
     id="g36" /><g
     id="g38" /><g
     id="g40" /><g
     id="g42" /></svg>