<?xml version="1.0" encoding="iso-8859-1"?>
<!-- Generator: Adobe Illustrator 19.0.0, SVG Export Plug-In . SVG Version: 6.00 Build 0)  -->
<svg version="1.1" id="Capa_1" xmlns="http://www.w3.org/2000/svg" xmlns:xlink="http://www.w3.org/1999/xlink" x="0px" y="0px"
	 viewBox="0 0 494.395 494.395" style="enable-background:new 0 0 494.395 494.395;" xml:space="preserve">
<path style="fill:#CFD8DC;" d="M481.864,215.155c-0.027-8.487,3.346-16.63,9.365-22.613c4.171-4.16,4.179-10.914,0.019-15.085
	c-0.006-0.006-0.013-0.013-0.019-0.019L316.915,3.123c-4.165-4.164-10.917-4.164-15.083,0c-12.653,12.107-32.595,12.107-45.248,0
	c-4.165-4.164-10.917-4.164-15.083,0L3.166,241.438c-4.171,4.16-4.179,10.914-0.019,15.085c0.006,0.006,0.013,0.013,0.019,0.019
	c6.019,5.983,9.392,14.127,9.365,22.613c-0.014,8.211-3.202,16.1-8.896,22.016c-4.007,4.206-3.912,10.844,0.213,14.933
	c33.024,32.661,93.141,93.12,173.824,174.933c1.989,2.017,4.698,3.161,7.531,3.179c2.879,0.317,5.723-0.847,7.552-3.093
	c12.659-11.965,32.477-11.899,45.056,0.149c4.165,4.164,10.917,4.164,15.083,0l238.336-238.4c4.171-4.16,4.179-10.914,0.019-15.085
	c-0.006-0.006-0.013-0.013-0.019-0.019C485.211,231.786,481.838,223.642,481.864,215.155z"/>
<g>
	<path style="fill:#90A4AE;" d="M73.416,250.27c-4.237-4.093-10.99-3.975-15.083,0.262c-3.992,4.134-3.992,10.687,0,14.82
		l21.333,21.333c4.092,4.237,10.845,4.355,15.083,0.262c4.237-4.092,4.355-10.845,0.262-15.083
		c-0.086-0.089-0.173-0.176-0.262-0.262L73.416,250.27z"/>
	<path style="fill:#90A4AE;" d="M222.75,399.603c-4.237-4.093-10.99-3.975-15.083,0.262c-3.993,4.134-3.993,10.687,0,14.821
		L229,436.019c4.237,4.093,10.99,3.975,15.083-0.262c3.993-4.134,3.993-10.687,0-14.821L222.75,399.603z"/>
	<path style="fill:#90A4AE;" d="M148.083,324.936c-4.237-4.093-10.99-3.975-15.083,0.262c-3.993,4.134-3.993,10.687,0,14.821
		l21.333,21.333c4.093,4.237,10.845,4.354,15.083,0.262c4.237-4.093,4.354-10.845,0.262-15.083
		c-0.086-0.089-0.173-0.176-0.262-0.262L148.083,324.936z"/>
	<path style="fill:#90A4AE;" d="M265.416,58.27c-4.237-4.093-10.99-3.975-15.083,0.262c-3.992,4.134-3.992,10.687,0,14.82
		l21.333,21.333c4.092,4.237,10.845,4.355,15.083,0.262s4.355-10.845,0.262-15.083c-0.086-0.089-0.173-0.176-0.262-0.262
		L265.416,58.27z"/>
	<path style="fill:#90A4AE;" d="M340.083,132.936c-4.237-4.092-10.99-3.975-15.083,0.262c-3.992,4.134-3.992,10.687,0,14.82
		l21.333,21.333c4.093,4.237,10.845,4.355,15.083,0.262c4.237-4.093,4.354-10.845,0.262-15.083
		c-0.086-0.089-0.173-0.176-0.262-0.262L340.083,132.936z"/>
	<path style="fill:#90A4AE;" d="M436.083,228.936l-21.333-21.333c-4.237-4.093-10.99-3.975-15.083,0.262
		c-3.993,4.134-3.993,10.687,0,14.821L421,244.019c4.237,4.093,10.99,3.975,15.083-0.262
		C440.076,239.624,440.076,233.07,436.083,228.936z"/>
</g>
<path style="fill:#F44336;" d="M355.806,250.291l-56.747-28.928l10.005-62.912c0.933-5.817-3.026-11.289-8.842-12.222
	c-3.387-0.543-6.828,0.575-9.248,3.006l-45.077,45.035l-56.768-28.907c-5.255-2.663-11.673-0.561-14.336,4.694
	c-1.535,3.031-1.535,6.611,0,9.642l28.928,56.789l-45.035,45.013c-3.272,3.269-4.065,8.275-1.963,12.395
	c2.044,4.164,6.586,6.483,11.157,5.696l62.912-9.963l28.907,56.768c1.819,3.57,5.486,5.82,9.493,5.824
	c0.557,0.003,1.114-0.04,1.664-0.128c4.57-0.721,8.154-4.305,8.875-8.875l9.963-62.912l62.912-9.963
	c5.816-0.935,9.774-6.407,8.839-12.224c-0.54-3.36-2.651-6.261-5.682-7.808L355.806,250.291z"/>
<g>
</g>
<g>
</g>
<g>
</g>
<g>
</g>
<g>
</g>
<g>
</g>
<g>
</g>
<g>
</g>
<g>
</g>
<g>
</g>
<g>
</g>
<g>
</g>
<g>
</g>
<g>
</g>
<g>
</g>
</svg>
