<?xml version="1.0" encoding="iso-8859-1"?>
<!-- Generator: Adobe Illustrator 19.0.0, SVG Export Plug-In . SVG Version: 6.00 Build 0)  -->
<svg version="1.1" id="Capa_1" xmlns="http://www.w3.org/2000/svg" xmlns:xlink="http://www.w3.org/1999/xlink" x="0px" y="0px"
	 viewBox="0 0 512 512" style="enable-background:new 0 0 512 512;" xml:space="preserve">
<path style="fill:#D32F2F;" d="M411.317,244.672l-144-144c-5.152-5.12-13.088-6.144-19.36-2.496
	c-6.272,3.648-9.312,11.104-7.36,18.08l56.64,203.84c1.376,4.96,5.056,8.96,9.952,10.752c1.792,0.672,3.616,0.96,5.472,0.96
	c3.2,0,6.336-0.928,9.024-2.816l87.36-59.84c3.936-2.688,6.464-6.976,6.912-11.712C416.373,252.736,414.677,248.032,411.317,244.672
	z"/>
<path style="fill:#F44336;" d="M272.597,112h-97.216L96.565,395.712c-1.664,5.984,0.288,12.384,5.024,16.448l112,96
	c2.976,2.56,6.688,3.84,10.4,3.84s7.424-1.28,10.4-3.84l112-96c4.704-4.064,6.688-10.464,4.992-16.448L272.597,112z"/>
<path style="fill:#D32F2F;" d="M174.101,112h99.776l44.416-88.832c2.464-4.96,2.208-10.848-0.672-15.552
	C314.677,2.88,309.525,0,303.989,0h-160c-5.536,0-10.688,2.88-13.6,7.616c-2.912,4.704-3.2,10.624-0.704,15.552L174.101,112z"/>
<g>
</g>
<g>
</g>
<g>
</g>
<g>
</g>
<g>
</g>
<g>
</g>
<g>
</g>
<g>
</g>
<g>
</g>
<g>
</g>
<g>
</g>
<g>
</g>
<g>
</g>
<g>
</g>
<g>
</g>
</svg>
