<?xml version="1.0" encoding="iso-8859-1"?>
<!-- Generator: Adobe Illustrator 19.0.0, SVG Export Plug-In . SVG Version: 6.00 Build 0)  -->
<svg version="1.1" id="Capa_1" xmlns="http://www.w3.org/2000/svg" xmlns:xlink="http://www.w3.org/1999/xlink" x="0px" y="0px"
	 viewBox="0 0 512.016 512.016" style="enable-background:new 0 0 512.016 512.016;" xml:space="preserve">
<path style="fill:#CFD8DC;" d="M229.341,0C141.427,0,48.008,26.176,48.008,74.667v298.667c0,48.491,93.419,74.667,181.333,74.667
	s181.333-26.176,181.333-74.667V74.667C410.675,26.176,317.256,0,229.341,0z"/>
<path style="fill:#90A4AE;" d="M229.341,149.333v224h181.333V74.667C410.675,123.157,317.256,149.333,229.341,149.333z"/>
<path style="fill:#B0BEC5;" d="M229.341,0C141.427,0,48.008,26.176,48.008,74.667s93.419,74.667,181.333,74.667
	s181.333-26.176,181.333-74.667S317.256,0,229.341,0z"/>
<path style="fill:#78909C;" d="M229.341,42.667c-30.4,0-53.333,13.76-53.333,32s22.933,32,53.333,32c30.4,0,53.333-13.76,53.333-32
	S259.741,42.667,229.341,42.667z"/>
<path style="fill:#CFD8DC;" d="M464.008,160c0-40.896-179.584-10.667-234.667-10.667v280.896h234.667V160z"/>
<path style="fill:#B0BEC5;" d="M464.008,149.333c0,33.771-117.333,32-117.333,32V512l0,0c0,0,117.333,1.771,117.333-32V149.333"/>
<g>
</g>
<g>
</g>
<g>
</g>
<g>
</g>
<g>
</g>
<g>
</g>
<g>
</g>
<g>
</g>
<g>
</g>
<g>
</g>
<g>
</g>
<g>
</g>
<g>
</g>
<g>
</g>
<g>
</g>
</svg>
