<?xml version="1.0" encoding="iso-8859-1"?>
<!-- Generator: Adobe Illustrator 19.0.0, SVG Export Plug-In . SVG Version: 6.00 Build 0)  -->
<svg version="1.1" id="Capa_1" xmlns="http://www.w3.org/2000/svg" xmlns:xlink="http://www.w3.org/1999/xlink" x="0px" y="0px"
	 viewBox="0 0 512 512" style="enable-background:new 0 0 512 512;" xml:space="preserve">
<path style="fill:#CFD8DC;" d="M320,42.667H192c-5.891,0-10.667,4.776-10.667,10.667v384C181.333,478.571,214.763,512,256,512
	s74.667-33.429,74.667-74.667v-384C330.667,47.442,325.891,42.667,320,42.667z"/>
<path style="fill:#FFC107;" d="M256,490.667c-29.455,0-53.333-23.878-53.333-53.333v-96h106.667v96
	C309.333,466.789,285.455,490.667,256,490.667z"/>
<path style="fill:#90A4AE;" d="M341.333,0H170.667c-17.673,0-32,14.327-32,32s14.327,32,32,32h170.667c17.673,0,32-14.327,32-32
	S359.006,0,341.333,0z"/>
<g>
</g>
<g>
</g>
<g>
</g>
<g>
</g>
<g>
</g>
<g>
</g>
<g>
</g>
<g>
</g>
<g>
</g>
<g>
</g>
<g>
</g>
<g>
</g>
<g>
</g>
<g>
</g>
<g>
</g>
</svg>
