<?xml version="1.0" encoding="iso-8859-1"?>
<!-- Generator: Adobe Illustrator 19.0.0, SVG Export Plug-In . SVG Version: 6.00 Build 0)  -->
<svg version="1.1" id="Capa_1" xmlns="http://www.w3.org/2000/svg" xmlns:xlink="http://www.w3.org/1999/xlink" x="0px" y="0px"
	 viewBox="0 0 490.667 490.667" style="enable-background:new 0 0 490.667 490.667;" xml:space="preserve">
<g>
	<path style="fill:#455A64;" d="M245.333,448c-5.891,0-10.667-4.776-10.667-10.667v-64c0-5.891,4.776-10.667,10.667-10.667
		c5.891,0,10.667,4.776,10.667,10.667v64C256,443.224,251.224,448,245.333,448z"/>
	<path style="fill:#455A64;" d="M245.333,128c-5.891,0-10.667-4.776-10.667-10.667v-64c0-5.891,4.776-10.667,10.667-10.667
		c5.891,0,10.667,4.776,10.667,10.667v64C256,123.224,251.224,128,245.333,128z"/>
	<path style="fill:#455A64;" d="M352,202.667c-5.891,0-10.666-4.776-10.666-10.667c0-4.036,2.279-7.727,5.887-9.535l64-32
		c5.273-2.633,11.681-0.494,14.315,4.779c2.633,5.272,0.494,11.681-4.779,14.315l0,0l-64,32
		C355.279,202.29,353.65,202.67,352,202.667z"/>
	<path style="fill:#455A64;" d="M74.667,341.333c-5.891,0-10.666-4.776-10.666-10.667c0-4.036,2.279-7.727,5.887-9.535l64-32
		c5.272-2.633,11.681-0.494,14.315,4.779c2.633,5.272,0.494,11.681-4.779,14.315l0,0l-64,32
		C77.945,340.957,76.317,341.337,74.667,341.333z"/>
	<path style="fill:#455A64;" d="M138.667,202.667c-1.652-0.003-3.281-0.39-4.757-1.131l-64-32
		c-5.272-2.633-7.412-9.042-4.779-14.315c2.633-5.272,9.042-7.412,14.315-4.779l64,32c5.278,2.616,7.437,9.015,4.821,14.294
		C146.46,200.382,142.736,202.683,138.667,202.667z"/>
	<path style="fill:#455A64;" d="M416,341.333c-1.652-0.003-3.28-0.39-4.757-1.131l-64-32c-5.272-2.633-7.412-9.042-4.779-14.315
		c2.633-5.272,9.042-7.412,14.315-4.779l0,0l64,32c5.278,2.616,7.437,9.015,4.821,14.294
		C423.793,339.049,420.069,341.349,416,341.333z"/>
</g>
<path style="fill:#F44336;" d="M358.123,183.253l-106.667-74.667c-3.671-2.566-8.553-2.566-12.224,0l-106.667,74.667
	c-2.86,1.994-4.564,5.26-4.565,8.747v106.667c-0.004,3.483,1.692,6.748,4.544,8.747l106.667,74.667
	c3.671,2.566,8.553,2.566,12.224,0l106.667-74.667c2.852-1.999,4.548-5.264,4.544-8.747V192
	C362.654,188.521,360.966,185.257,358.123,183.253z"/>
<circle style="fill:#C62828;" cx="245.333" cy="245.333" r="53.333"/>
<g>
	<circle style="fill:#D32F2F;" cx="245.333" cy="32" r="32"/>
	<circle style="fill:#D32F2F;" cx="245.333" cy="458.667" r="32"/>
	<circle style="fill:#D32F2F;" cx="437.333" cy="352" r="32"/>
	<circle style="fill:#D32F2F;" cx="437.333" cy="160" r="32"/>
	<circle style="fill:#D32F2F;" cx="53.333" cy="352" r="32"/>
	<circle style="fill:#D32F2F;" cx="53.333" cy="160" r="32"/>
</g>
<g>
</g>
<g>
</g>
<g>
</g>
<g>
</g>
<g>
</g>
<g>
</g>
<g>
</g>
<g>
</g>
<g>
</g>
<g>
</g>
<g>
</g>
<g>
</g>
<g>
</g>
<g>
</g>
<g>
</g>
</svg>
