<?xml version="1.0" encoding="iso-8859-1"?>
<!-- Generator: Adobe Illustrator 19.0.0, SVG Export Plug-In . SVG Version: 6.00 Build 0)  -->
<svg version="1.1" id="Capa_1" xmlns="http://www.w3.org/2000/svg" xmlns:xlink="http://www.w3.org/1999/xlink" x="0px" y="0px"
	 viewBox="0 0 512 512" style="enable-background:new 0 0 512 512;" xml:space="preserve">
<path style="fill:#455A64;" d="M412.843,10.193c-23.52-13.385-52.431-13.043-75.627,0.896L65.557,125.03
	C25.801,141.635-0.062,180.527,0,223.611c0,5.891,4.776,10.667,10.667,10.667c0.528,0,1.055-0.036,1.579-0.107l426.667-64
	c5.227-0.782,9.093-5.275,9.088-10.56V73.894C448.522,47.899,435.115,23.607,412.843,10.193z"/>
<path style="fill:#B0BEC5;" d="M202.667,170.278c-5.891,0-10.667-4.776-10.667-10.667c0-4.443,2.754-8.42,6.912-9.984l170.667-64
	c5.52-2.074,11.676,0.72,13.749,6.24c2.074,5.52-0.72,11.676-6.24,13.749l-170.667,64
	C205.22,170.061,203.948,170.285,202.667,170.278z"/>
<path style="fill:#607D8B;" d="M74.667,148.945h362.667c41.237,0,74.667,33.429,74.667,74.667v213.333
	c0,41.237-33.429,74.667-74.667,74.667H74.667C33.43,511.611,0,478.182,0,436.945V223.611C0,182.374,33.43,148.945,74.667,148.945z"
	/>
<path style="fill:#455A64;" d="M501.333,255.611H416c-41.237,0-74.667,33.429-74.667,74.667s33.429,74.667,74.667,74.667h85.333
	c5.891,0,10.667-4.776,10.667-10.667v-128C512,260.387,507.224,255.611,501.333,255.611z"/>
<circle style="fill:#90A4AE;" cx="416" cy="330.278" r="32"/>
<g>
</g>
<g>
</g>
<g>
</g>
<g>
</g>
<g>
</g>
<g>
</g>
<g>
</g>
<g>
</g>
<g>
</g>
<g>
</g>
<g>
</g>
<g>
</g>
<g>
</g>
<g>
</g>
<g>
</g>
</svg>
