<?xml version="1.0" encoding="iso-8859-1"?>
<!-- Generator: Adobe Illustrator 19.0.0, SVG Export Plug-In . SVG Version: 6.00 Build 0)  -->
<svg version="1.1" id="Capa_1" xmlns="http://www.w3.org/2000/svg" xmlns:xlink="http://www.w3.org/1999/xlink" x="0px" y="0px"
	 viewBox="0 0 512 512" style="enable-background:new 0 0 512 512;" xml:space="preserve">
<path style="fill:#90CAF9;" d="M320,264H192c-26.496,0-48-21.504-48-48l0,0c0-26.496,21.504-48,48-48h128c26.496,0,48,21.504,48,48
	l0,0C368,242.496,346.496,264,320,264z"/>
<g>
	<path style="fill:#BBDEFB;" d="M336,512H176c-17.664,0-32-14.336-32-32V288c0-17.664,14.336-32,32-32h160c17.664,0,32,14.336,32,32
		v192C368,497.664,353.664,512,336,512z"/>
	<path style="fill:#BBDEFB;" d="M144,144c8.544-55.232,56.096-96,112-96s103.456,40.736,112,96l-3.52-14.08
		c2.24,4.16,3.52,8.96,3.52,14.08c0,17.6-14.4,32-32,32H176C158.4,176,144,161.6,144,144c0-5.12,1.28-9.92,3.52-14.08"/>
</g>
<path style="fill:#2196F3;" d="M304,0h-96c-8.832,0-16,7.168-16,16v32c0,8.832,7.168,16,16,16h96c8.832,0,16-7.168,16-16V16
	C320,7.168,312.832,0,304,0z"/>
<g>
</g>
<g>
</g>
<g>
</g>
<g>
</g>
<g>
</g>
<g>
</g>
<g>
</g>
<g>
</g>
<g>
</g>
<g>
</g>
<g>
</g>
<g>
</g>
<g>
</g>
<g>
</g>
<g>
</g>
</svg>
