<?xml version="1.0" encoding="UTF-8" standalone="no"?>
<svg
   xmlns:dc="http://purl.org/dc/elements/1.1/"
   xmlns:cc="http://creativecommons.org/ns#"
   xmlns:rdf="http://www.w3.org/1999/02/22-rdf-syntax-ns#"
   xmlns:svg="http://www.w3.org/2000/svg"
   xmlns="http://www.w3.org/2000/svg"
   xmlns:sodipodi="http://sodipodi.sourceforge.net/DTD/sodipodi-0.dtd"
   xmlns:inkscape="http://www.inkscape.org/namespaces/inkscape"
   version="1.2"
   id="svg8"
   viewBox="0 0 200 200"
   xml:space="preserve"
   sodipodi:docname="Webflow Logo(alt).svg"
   inkscape:export-filename="/Users/kyleunderhill/Desktop/Desktop/Donorport/Logo/lWF-alt(32).png"
   inkscape:export-xdpi="15.36"
   inkscape:export-ydpi="15.36"
   inkscape:version="1.0.2 (e86c8708, 2021-01-15)"
   width="200"
   height="200"><path
   id="path879"
   style="fill:#0e75f9;fill-opacity:1;stroke-width:99.495;stroke-linejoin:round;stroke-opacity:0.0645161;paint-order:stroke fill markers"
   d="m 15.38164,1.01278 c -6.03429,0 -10.89336,5.15666 -10.89336,11.56053 v 118.45499 16.34401 22.33378 c 0,6.73398 6.33069,9.51392 10.88467,12.15442 26.44638,15.33397 81.18322,17.1267 81.18322,17.1267 0,0 61.62455,-1.79273 88.07087,-17.1267 4.554,-2.6405 10.88468,-5.42044 10.88468,-12.15442 v -34.33763 c 0,-6.73405 -4.8543,-12.15441 -10.88468,-12.15441 H 101.7996 95.63156 V 12.57331 c 0,-6.40387 -4.85905,-11.56053 -10.89334,-11.56053 z"
   sodipodi:nodetypes="ssccsccssssccsss" /><path
   id="path881"
   style="fill:#ffffff;fill-opacity:1;stroke-width:75.5904;stroke-linejoin:round;stroke-opacity:0.0645161;paint-order:stroke fill markers"
   d="M 77.8652,38.8038 A 19.5307,19.530701 0 0 1 58.33449,58.33449 19.5307,19.530701 0 0 1 38.8038,38.8038 19.5307,19.530701 0 0 1 58.33449,19.27309 19.5307,19.530701 0 0 1 77.8652,38.8038 Z" /><path
   id="path883"
   style="fill:#fef153;fill-opacity:1;stroke-width:25.9782;stroke-linejoin:round;stroke-opacity:0.0645161;paint-order:stroke fill markers"
   d="M 195.45514,107.82504 V 69.16055 c 0,-3.71662 -2.99205,-6.70869 -6.70869,-6.70869 h -77.7259 c -3.7166,0 -6.70868,2.99207 -6.70868,6.70869 v 38.66449 c 0,3.71662 2.99208,6.70869 6.70868,6.70869 h 77.7259 c 3.71664,0 6.7087,-2.99207 6.70869,-6.70869 z" /><path
   id="path885"
   style="fill:#fef153;fill-opacity:1;stroke-width:25.9782;stroke-linejoin:round;stroke-opacity:0.0645161;paint-order:stroke fill markers"
   d="M 195.45514,47.06286 V 8.39836 c 0,-3.71661 -2.99205,-6.70868 -6.70869,-6.70868 h -77.7259 c -3.7166,0 -6.70868,2.99207 -6.70868,6.70868 v 38.6645 c 0,3.71661 2.99208,6.70869 6.70868,6.70869 h 77.7259 c 3.71664,0 6.7087,-2.99208 6.70869,-6.70869 z" /><metadata
   id="metadata51"><rdf:RDF><cc:Work
       rdf:about=""><dc:format>image/svg+xml</dc:format><dc:type
         rdf:resource="http://purl.org/dc/dcmitype/StillImage" /><dc:title>Donorport</dc:title></cc:Work></rdf:RDF></metadata><defs
   id="defs24" /><sodipodi:namedview
   pagecolor="#ffffff"
   bordercolor="#666666"
   borderopacity="1"
   objecttolerance="10"
   gridtolerance="10"
   guidetolerance="10"
   inkscape:pageopacity="0"
   inkscape:pageshadow="2"
   inkscape:window-width="1251"
   inkscape:window-height="943"
   id="namedview22"
   showgrid="false"
   inkscape:zoom="0.6167205"
   inkscape:cx="200.74312"
   inkscape:cy="-117.42483"
   inkscape:window-x="0"
   inkscape:window-y="25"
   inkscape:window-maximized="0"
   inkscape:current-layer="svg8"
   inkscape:document-rotation="0"
   inkscape:snap-global="true"
   inkscape:snap-bbox="true"
   inkscape:snap-bbox-edge-midpoints="true"
   inkscape:bbox-nodes="true"
   inkscape:snap-grids="true"
   fit-margin-top="0"
   fit-margin-left="0"
   fit-margin-right="0"
   fit-margin-bottom="0"
   showguides="true"><inkscape:grid
     type="xygrid"
     id="grid53"
     originx="113.01172"
     originy="-141.01278" /></sodipodi:namedview>
<title
   id="title8">Donorport</title>
<g
   id="layer1"
   transform="translate(-29.449572,-254.75604)">
</g>
<g
   id="g4622"
   transform="translate(-26.700182,-254.75604)">
	</g>
<g
   id="g1097"
   transform="translate(226.1373,15.83004)">
	</g></svg>
